G04 #@! TF.GenerationSoftware,KiCad,Pcbnew,6.0.9-8da3e8f707~116~ubuntu20.04.1*
G04 #@! TF.CreationDate,2023-04-19T17:37:20+00:00*
G04 #@! TF.ProjectId,LEC030001,4c454330-3330-4303-9031-2e6b69636164,rev?*
G04 #@! TF.SameCoordinates,Original*
G04 #@! TF.FileFunction,Copper,L1,Top*
G04 #@! TF.FilePolarity,Positive*
%FSLAX46Y46*%
G04 Gerber Fmt 4.6, Leading zero omitted, Abs format (unit mm)*
G04 Created by KiCad (PCBNEW 6.0.9-8da3e8f707~116~ubuntu20.04.1) date 2023-04-19 17:37:20*
%MOMM*%
%LPD*%
G01*
G04 APERTURE LIST*
G04 #@! TA.AperFunction,EtchedComponent*
%ADD10C,0.010000*%
G04 #@! TD*
G04 #@! TA.AperFunction,ComponentPad*
%ADD11R,3.000000X3.000000*%
G04 #@! TD*
G04 #@! TA.AperFunction,ComponentPad*
%ADD12C,3.000000*%
G04 #@! TD*
G04 #@! TA.AperFunction,Conductor*
%ADD13C,0.254000*%
G04 #@! TD*
G04 APERTURE END LIST*
G04 #@! TO.C,LOGO1*
G36*
X189001400Y-102552120D02*
G01*
X188780420Y-102552120D01*
X188780420Y-101277040D01*
X189001400Y-101277040D01*
X189001400Y-102552120D01*
G37*
D10*
X189001400Y-102552120D02*
X188780420Y-102552120D01*
X188780420Y-101277040D01*
X189001400Y-101277040D01*
X189001400Y-102552120D01*
G36*
X194990720Y-101495480D02*
G01*
X193621660Y-101495480D01*
X193621660Y-101274500D01*
X194990720Y-101274500D01*
X194990720Y-101495480D01*
G37*
X194990720Y-101495480D02*
X193621660Y-101495480D01*
X193621660Y-101274500D01*
X194990720Y-101274500D01*
X194990720Y-101495480D01*
G36*
X192666209Y-101271115D02*
G01*
X192687949Y-101271898D01*
X192706476Y-101273135D01*
X192714880Y-101274013D01*
X192776536Y-101284111D01*
X192836482Y-101298858D01*
X192894502Y-101318120D01*
X192950380Y-101341760D01*
X193003901Y-101369642D01*
X193054850Y-101401632D01*
X193103012Y-101437592D01*
X193148171Y-101477388D01*
X193190111Y-101520884D01*
X193228617Y-101567944D01*
X193263475Y-101618433D01*
X193264753Y-101620462D01*
X193270950Y-101630604D01*
X193275873Y-101639176D01*
X193279032Y-101645284D01*
X193279933Y-101648034D01*
X193279927Y-101648046D01*
X193277616Y-101649794D01*
X193271584Y-101653936D01*
X193262376Y-101660116D01*
X193250541Y-101667976D01*
X193236627Y-101677159D01*
X193221181Y-101687308D01*
X193204750Y-101698066D01*
X193187883Y-101709075D01*
X193171127Y-101719979D01*
X193155029Y-101730419D01*
X193140138Y-101740039D01*
X193127000Y-101748482D01*
X193116165Y-101755390D01*
X193108178Y-101760407D01*
X193103588Y-101763174D01*
X193102794Y-101763584D01*
X193099968Y-101762718D01*
X193095905Y-101758095D01*
X193090305Y-101749339D01*
X193087184Y-101743914D01*
X193070089Y-101716428D01*
X193049427Y-101688002D01*
X193026229Y-101659852D01*
X193001528Y-101633197D01*
X192976356Y-101609254D01*
X192964480Y-101599140D01*
X192923846Y-101569172D01*
X192880247Y-101543127D01*
X192834196Y-101521226D01*
X192786208Y-101503690D01*
X192736797Y-101490740D01*
X192696452Y-101483813D01*
X192674946Y-101481768D01*
X192650221Y-101480722D01*
X192623760Y-101480637D01*
X192597045Y-101481480D01*
X192571557Y-101483214D01*
X192548779Y-101485804D01*
X192537826Y-101487603D01*
X192487286Y-101499608D01*
X192438775Y-101516099D01*
X192392534Y-101536857D01*
X192348804Y-101561666D01*
X192307826Y-101590308D01*
X192269841Y-101622566D01*
X192235090Y-101658223D01*
X192203814Y-101697062D01*
X192176252Y-101738864D01*
X192152648Y-101783413D01*
X192133240Y-101830492D01*
X192123199Y-101861621D01*
X192112556Y-101906052D01*
X192105928Y-101952105D01*
X192103432Y-101990145D01*
X192102028Y-102031420D01*
X191881031Y-102031420D01*
X191882507Y-101986335D01*
X191886951Y-101926765D01*
X191896239Y-101868219D01*
X191910196Y-101810945D01*
X191928643Y-101755192D01*
X191951405Y-101701206D01*
X191978306Y-101649239D01*
X192009168Y-101599537D01*
X192043816Y-101552349D01*
X192082073Y-101507923D01*
X192123762Y-101466510D01*
X192168708Y-101428355D01*
X192216733Y-101393709D01*
X192267661Y-101362820D01*
X192321316Y-101335936D01*
X192354200Y-101322046D01*
X192407077Y-101303465D01*
X192461789Y-101288763D01*
X192519205Y-101277716D01*
X192534540Y-101275434D01*
X192550719Y-101273688D01*
X192570782Y-101272339D01*
X192593544Y-101271399D01*
X192617825Y-101270875D01*
X192642441Y-101270777D01*
X192666209Y-101271115D01*
G37*
X192666209Y-101271115D02*
X192687949Y-101271898D01*
X192706476Y-101273135D01*
X192714880Y-101274013D01*
X192776536Y-101284111D01*
X192836482Y-101298858D01*
X192894502Y-101318120D01*
X192950380Y-101341760D01*
X193003901Y-101369642D01*
X193054850Y-101401632D01*
X193103012Y-101437592D01*
X193148171Y-101477388D01*
X193190111Y-101520884D01*
X193228617Y-101567944D01*
X193263475Y-101618433D01*
X193264753Y-101620462D01*
X193270950Y-101630604D01*
X193275873Y-101639176D01*
X193279032Y-101645284D01*
X193279933Y-101648034D01*
X193279927Y-101648046D01*
X193277616Y-101649794D01*
X193271584Y-101653936D01*
X193262376Y-101660116D01*
X193250541Y-101667976D01*
X193236627Y-101677159D01*
X193221181Y-101687308D01*
X193204750Y-101698066D01*
X193187883Y-101709075D01*
X193171127Y-101719979D01*
X193155029Y-101730419D01*
X193140138Y-101740039D01*
X193127000Y-101748482D01*
X193116165Y-101755390D01*
X193108178Y-101760407D01*
X193103588Y-101763174D01*
X193102794Y-101763584D01*
X193099968Y-101762718D01*
X193095905Y-101758095D01*
X193090305Y-101749339D01*
X193087184Y-101743914D01*
X193070089Y-101716428D01*
X193049427Y-101688002D01*
X193026229Y-101659852D01*
X193001528Y-101633197D01*
X192976356Y-101609254D01*
X192964480Y-101599140D01*
X192923846Y-101569172D01*
X192880247Y-101543127D01*
X192834196Y-101521226D01*
X192786208Y-101503690D01*
X192736797Y-101490740D01*
X192696452Y-101483813D01*
X192674946Y-101481768D01*
X192650221Y-101480722D01*
X192623760Y-101480637D01*
X192597045Y-101481480D01*
X192571557Y-101483214D01*
X192548779Y-101485804D01*
X192537826Y-101487603D01*
X192487286Y-101499608D01*
X192438775Y-101516099D01*
X192392534Y-101536857D01*
X192348804Y-101561666D01*
X192307826Y-101590308D01*
X192269841Y-101622566D01*
X192235090Y-101658223D01*
X192203814Y-101697062D01*
X192176252Y-101738864D01*
X192152648Y-101783413D01*
X192133240Y-101830492D01*
X192123199Y-101861621D01*
X192112556Y-101906052D01*
X192105928Y-101952105D01*
X192103432Y-101990145D01*
X192102028Y-102031420D01*
X191881031Y-102031420D01*
X191882507Y-101986335D01*
X191886951Y-101926765D01*
X191896239Y-101868219D01*
X191910196Y-101810945D01*
X191928643Y-101755192D01*
X191951405Y-101701206D01*
X191978306Y-101649239D01*
X192009168Y-101599537D01*
X192043816Y-101552349D01*
X192082073Y-101507923D01*
X192123762Y-101466510D01*
X192168708Y-101428355D01*
X192216733Y-101393709D01*
X192267661Y-101362820D01*
X192321316Y-101335936D01*
X192354200Y-101322046D01*
X192407077Y-101303465D01*
X192461789Y-101288763D01*
X192519205Y-101277716D01*
X192534540Y-101275434D01*
X192550719Y-101273688D01*
X192570782Y-101272339D01*
X192593544Y-101271399D01*
X192617825Y-101270875D01*
X192642441Y-101270777D01*
X192666209Y-101271115D01*
G36*
X196300968Y-101274500D02*
G01*
X196506269Y-101557044D01*
X196530799Y-101590835D01*
X196554493Y-101623537D01*
X196577180Y-101654909D01*
X196598689Y-101684714D01*
X196618848Y-101712711D01*
X196637487Y-101738663D01*
X196654435Y-101762329D01*
X196669520Y-101783470D01*
X196682571Y-101801848D01*
X196693418Y-101817223D01*
X196701889Y-101829356D01*
X196707814Y-101838009D01*
X196711021Y-101842942D01*
X196711570Y-101844021D01*
X196710129Y-101847001D01*
X196706077Y-101853439D01*
X196699817Y-101862779D01*
X196691755Y-101874461D01*
X196682293Y-101887928D01*
X196671838Y-101902622D01*
X196660793Y-101917984D01*
X196649562Y-101933457D01*
X196638551Y-101948483D01*
X196628162Y-101962504D01*
X196618801Y-101974962D01*
X196610872Y-101985298D01*
X196604779Y-101992955D01*
X196600927Y-101997375D01*
X196599810Y-101998247D01*
X196598071Y-101996223D01*
X196593504Y-101990295D01*
X196586264Y-101980671D01*
X196576502Y-101967561D01*
X196564373Y-101951174D01*
X196550029Y-101931719D01*
X196533625Y-101909405D01*
X196515313Y-101884442D01*
X196495247Y-101857037D01*
X196473579Y-101827402D01*
X196450465Y-101795743D01*
X196426056Y-101762272D01*
X196400506Y-101727196D01*
X196373968Y-101690724D01*
X196346596Y-101653067D01*
X196338190Y-101641493D01*
X196310558Y-101603445D01*
X196283707Y-101566468D01*
X196257789Y-101530772D01*
X196232960Y-101496572D01*
X196209374Y-101464081D01*
X196187186Y-101433511D01*
X196166549Y-101405075D01*
X196147618Y-101378985D01*
X196130548Y-101355456D01*
X196115493Y-101334699D01*
X196102608Y-101316927D01*
X196092047Y-101302354D01*
X196083964Y-101291192D01*
X196078514Y-101283654D01*
X196075851Y-101279952D01*
X196075625Y-101279630D01*
X196074877Y-101278417D01*
X196074715Y-101277412D01*
X196075563Y-101276595D01*
X196077844Y-101275947D01*
X196081981Y-101275449D01*
X196088399Y-101275081D01*
X196097522Y-101274823D01*
X196109772Y-101274655D01*
X196125573Y-101274559D01*
X196145349Y-101274514D01*
X196169525Y-101274500D01*
X196186554Y-101274499D01*
X196300968Y-101274500D01*
G37*
X196300968Y-101274500D02*
X196506269Y-101557044D01*
X196530799Y-101590835D01*
X196554493Y-101623537D01*
X196577180Y-101654909D01*
X196598689Y-101684714D01*
X196618848Y-101712711D01*
X196637487Y-101738663D01*
X196654435Y-101762329D01*
X196669520Y-101783470D01*
X196682571Y-101801848D01*
X196693418Y-101817223D01*
X196701889Y-101829356D01*
X196707814Y-101838009D01*
X196711021Y-101842942D01*
X196711570Y-101844021D01*
X196710129Y-101847001D01*
X196706077Y-101853439D01*
X196699817Y-101862779D01*
X196691755Y-101874461D01*
X196682293Y-101887928D01*
X196671838Y-101902622D01*
X196660793Y-101917984D01*
X196649562Y-101933457D01*
X196638551Y-101948483D01*
X196628162Y-101962504D01*
X196618801Y-101974962D01*
X196610872Y-101985298D01*
X196604779Y-101992955D01*
X196600927Y-101997375D01*
X196599810Y-101998247D01*
X196598071Y-101996223D01*
X196593504Y-101990295D01*
X196586264Y-101980671D01*
X196576502Y-101967561D01*
X196564373Y-101951174D01*
X196550029Y-101931719D01*
X196533625Y-101909405D01*
X196515313Y-101884442D01*
X196495247Y-101857037D01*
X196473579Y-101827402D01*
X196450465Y-101795743D01*
X196426056Y-101762272D01*
X196400506Y-101727196D01*
X196373968Y-101690724D01*
X196346596Y-101653067D01*
X196338190Y-101641493D01*
X196310558Y-101603445D01*
X196283707Y-101566468D01*
X196257789Y-101530772D01*
X196232960Y-101496572D01*
X196209374Y-101464081D01*
X196187186Y-101433511D01*
X196166549Y-101405075D01*
X196147618Y-101378985D01*
X196130548Y-101355456D01*
X196115493Y-101334699D01*
X196102608Y-101316927D01*
X196092047Y-101302354D01*
X196083964Y-101291192D01*
X196078514Y-101283654D01*
X196075851Y-101279952D01*
X196075625Y-101279630D01*
X196074877Y-101278417D01*
X196074715Y-101277412D01*
X196075563Y-101276595D01*
X196077844Y-101275947D01*
X196081981Y-101275449D01*
X196088399Y-101275081D01*
X196097522Y-101274823D01*
X196109772Y-101274655D01*
X196125573Y-101274559D01*
X196145349Y-101274514D01*
X196169525Y-101274500D01*
X196186554Y-101274499D01*
X196300968Y-101274500D01*
G36*
X191472820Y-101487860D02*
G01*
X190599060Y-101487860D01*
X190599060Y-101800280D01*
X190375540Y-101800280D01*
X190375540Y-101266880D01*
X191472820Y-101266880D01*
X191472820Y-101487860D01*
G37*
X191472820Y-101487860D02*
X190599060Y-101487860D01*
X190599060Y-101800280D01*
X190375540Y-101800280D01*
X190375540Y-101266880D01*
X191472820Y-101266880D01*
X191472820Y-101487860D01*
G36*
X189928500Y-102953440D02*
G01*
X188780420Y-102953440D01*
X188780420Y-102729920D01*
X189928500Y-102729920D01*
X189928500Y-102953440D01*
G37*
X189928500Y-102953440D02*
X188780420Y-102953440D01*
X188780420Y-102729920D01*
X189928500Y-102729920D01*
X189928500Y-102953440D01*
G36*
X191472820Y-102953440D02*
G01*
X190380620Y-102953440D01*
X190380620Y-102729920D01*
X191472820Y-102729920D01*
X191472820Y-102953440D01*
G37*
X191472820Y-102953440D02*
X190380620Y-102953440D01*
X190380620Y-102729920D01*
X191472820Y-102729920D01*
X191472820Y-102953440D01*
G36*
X191358520Y-102209220D02*
G01*
X190599060Y-102209220D01*
X190599060Y-102552120D01*
X190378080Y-102552120D01*
X190378080Y-101985700D01*
X191358520Y-101985700D01*
X191358520Y-102209220D01*
G37*
X191358520Y-102209220D02*
X190599060Y-102209220D01*
X190599060Y-102552120D01*
X190378080Y-102552120D01*
X190378080Y-101985700D01*
X191358520Y-101985700D01*
X191358520Y-102209220D01*
G36*
X197416304Y-101280092D02*
G01*
X197434850Y-101280188D01*
X197548296Y-101280850D01*
X197242148Y-101699183D01*
X197212064Y-101740298D01*
X197182787Y-101780325D01*
X197154458Y-101819069D01*
X197127217Y-101856338D01*
X197101206Y-101891940D01*
X197076566Y-101925680D01*
X197053436Y-101957366D01*
X197031957Y-101986806D01*
X197012271Y-102013806D01*
X196994518Y-102038172D01*
X196978839Y-102059713D01*
X196965374Y-102078236D01*
X196954265Y-102093546D01*
X196945651Y-102105452D01*
X196939674Y-102113760D01*
X196936474Y-102118277D01*
X196935946Y-102119087D01*
X196937407Y-102121269D01*
X196941707Y-102127370D01*
X196948703Y-102137192D01*
X196958256Y-102150541D01*
X196970224Y-102167220D01*
X196984465Y-102187032D01*
X197000838Y-102209783D01*
X197019202Y-102235275D01*
X197039416Y-102263314D01*
X197061337Y-102293701D01*
X197084825Y-102326243D01*
X197109739Y-102360742D01*
X197135938Y-102397003D01*
X197163279Y-102434829D01*
X197191622Y-102474025D01*
X197220825Y-102514395D01*
X197232671Y-102530766D01*
X197262190Y-102571564D01*
X197290913Y-102611274D01*
X197318699Y-102649701D01*
X197345405Y-102686647D01*
X197370889Y-102721916D01*
X197395010Y-102755310D01*
X197417626Y-102786635D01*
X197438595Y-102815692D01*
X197457775Y-102842285D01*
X197475025Y-102866218D01*
X197490202Y-102887293D01*
X197503164Y-102905315D01*
X197513770Y-102920086D01*
X197521878Y-102931411D01*
X197527346Y-102939091D01*
X197530033Y-102942932D01*
X197530296Y-102943347D01*
X197528016Y-102943981D01*
X197520822Y-102944522D01*
X197508878Y-102944969D01*
X197492349Y-102945317D01*
X197471400Y-102945563D01*
X197446196Y-102945703D01*
X197417266Y-102945734D01*
X197303390Y-102945649D01*
X197062090Y-102611780D01*
X197035526Y-102575037D01*
X197009765Y-102539426D01*
X196984965Y-102505163D01*
X196961283Y-102472466D01*
X196938876Y-102441550D01*
X196917902Y-102412632D01*
X196898517Y-102385929D01*
X196880880Y-102361658D01*
X196865147Y-102340034D01*
X196851475Y-102321274D01*
X196840023Y-102305596D01*
X196830948Y-102293215D01*
X196824406Y-102284347D01*
X196820556Y-102279211D01*
X196819520Y-102277933D01*
X196817906Y-102279950D01*
X196813455Y-102285854D01*
X196806324Y-102295427D01*
X196796674Y-102308455D01*
X196784661Y-102324722D01*
X196770447Y-102344010D01*
X196754188Y-102366106D01*
X196736044Y-102390791D01*
X196716173Y-102417851D01*
X196694734Y-102447070D01*
X196671887Y-102478231D01*
X196647789Y-102511119D01*
X196622600Y-102545518D01*
X196596477Y-102581211D01*
X196575680Y-102609644D01*
X196548925Y-102646214D01*
X196522965Y-102681667D01*
X196497961Y-102715786D01*
X196474072Y-102748355D01*
X196451458Y-102779156D01*
X196430279Y-102807973D01*
X196410693Y-102834589D01*
X196392863Y-102858787D01*
X196376946Y-102880350D01*
X196363102Y-102899061D01*
X196351493Y-102914704D01*
X196342276Y-102927061D01*
X196335613Y-102935916D01*
X196331662Y-102941051D01*
X196330570Y-102942335D01*
X196327574Y-102942529D01*
X196320025Y-102942680D01*
X196308450Y-102942789D01*
X196293375Y-102942853D01*
X196275327Y-102942870D01*
X196254833Y-102942839D01*
X196232419Y-102942759D01*
X196215648Y-102942672D01*
X196103267Y-102942010D01*
X196709225Y-102113970D01*
X196751717Y-102055907D01*
X196793457Y-101998878D01*
X196834343Y-101943019D01*
X196874276Y-101888469D01*
X196913154Y-101835363D01*
X196950878Y-101783839D01*
X196987347Y-101734036D01*
X197022459Y-101686089D01*
X197056115Y-101640136D01*
X197088214Y-101596314D01*
X197118655Y-101554761D01*
X197147338Y-101515614D01*
X197174162Y-101479011D01*
X197199027Y-101445087D01*
X197221832Y-101413981D01*
X197242477Y-101385831D01*
X197260860Y-101360772D01*
X197276882Y-101338943D01*
X197290441Y-101320481D01*
X197301437Y-101305522D01*
X197309771Y-101294205D01*
X197315340Y-101286667D01*
X197318045Y-101283044D01*
X197318294Y-101282728D01*
X197320129Y-101281936D01*
X197324193Y-101281292D01*
X197330860Y-101280789D01*
X197340504Y-101280418D01*
X197353497Y-101280171D01*
X197370212Y-101280039D01*
X197391024Y-101280016D01*
X197416304Y-101280092D01*
G37*
X197416304Y-101280092D02*
X197434850Y-101280188D01*
X197548296Y-101280850D01*
X197242148Y-101699183D01*
X197212064Y-101740298D01*
X197182787Y-101780325D01*
X197154458Y-101819069D01*
X197127217Y-101856338D01*
X197101206Y-101891940D01*
X197076566Y-101925680D01*
X197053436Y-101957366D01*
X197031957Y-101986806D01*
X197012271Y-102013806D01*
X196994518Y-102038172D01*
X196978839Y-102059713D01*
X196965374Y-102078236D01*
X196954265Y-102093546D01*
X196945651Y-102105452D01*
X196939674Y-102113760D01*
X196936474Y-102118277D01*
X196935946Y-102119087D01*
X196937407Y-102121269D01*
X196941707Y-102127370D01*
X196948703Y-102137192D01*
X196958256Y-102150541D01*
X196970224Y-102167220D01*
X196984465Y-102187032D01*
X197000838Y-102209783D01*
X197019202Y-102235275D01*
X197039416Y-102263314D01*
X197061337Y-102293701D01*
X197084825Y-102326243D01*
X197109739Y-102360742D01*
X197135938Y-102397003D01*
X197163279Y-102434829D01*
X197191622Y-102474025D01*
X197220825Y-102514395D01*
X197232671Y-102530766D01*
X197262190Y-102571564D01*
X197290913Y-102611274D01*
X197318699Y-102649701D01*
X197345405Y-102686647D01*
X197370889Y-102721916D01*
X197395010Y-102755310D01*
X197417626Y-102786635D01*
X197438595Y-102815692D01*
X197457775Y-102842285D01*
X197475025Y-102866218D01*
X197490202Y-102887293D01*
X197503164Y-102905315D01*
X197513770Y-102920086D01*
X197521878Y-102931411D01*
X197527346Y-102939091D01*
X197530033Y-102942932D01*
X197530296Y-102943347D01*
X197528016Y-102943981D01*
X197520822Y-102944522D01*
X197508878Y-102944969D01*
X197492349Y-102945317D01*
X197471400Y-102945563D01*
X197446196Y-102945703D01*
X197417266Y-102945734D01*
X197303390Y-102945649D01*
X197062090Y-102611780D01*
X197035526Y-102575037D01*
X197009765Y-102539426D01*
X196984965Y-102505163D01*
X196961283Y-102472466D01*
X196938876Y-102441550D01*
X196917902Y-102412632D01*
X196898517Y-102385929D01*
X196880880Y-102361658D01*
X196865147Y-102340034D01*
X196851475Y-102321274D01*
X196840023Y-102305596D01*
X196830948Y-102293215D01*
X196824406Y-102284347D01*
X196820556Y-102279211D01*
X196819520Y-102277933D01*
X196817906Y-102279950D01*
X196813455Y-102285854D01*
X196806324Y-102295427D01*
X196796674Y-102308455D01*
X196784661Y-102324722D01*
X196770447Y-102344010D01*
X196754188Y-102366106D01*
X196736044Y-102390791D01*
X196716173Y-102417851D01*
X196694734Y-102447070D01*
X196671887Y-102478231D01*
X196647789Y-102511119D01*
X196622600Y-102545518D01*
X196596477Y-102581211D01*
X196575680Y-102609644D01*
X196548925Y-102646214D01*
X196522965Y-102681667D01*
X196497961Y-102715786D01*
X196474072Y-102748355D01*
X196451458Y-102779156D01*
X196430279Y-102807973D01*
X196410693Y-102834589D01*
X196392863Y-102858787D01*
X196376946Y-102880350D01*
X196363102Y-102899061D01*
X196351493Y-102914704D01*
X196342276Y-102927061D01*
X196335613Y-102935916D01*
X196331662Y-102941051D01*
X196330570Y-102942335D01*
X196327574Y-102942529D01*
X196320025Y-102942680D01*
X196308450Y-102942789D01*
X196293375Y-102942853D01*
X196275327Y-102942870D01*
X196254833Y-102942839D01*
X196232419Y-102942759D01*
X196215648Y-102942672D01*
X196103267Y-102942010D01*
X196709225Y-102113970D01*
X196751717Y-102055907D01*
X196793457Y-101998878D01*
X196834343Y-101943019D01*
X196874276Y-101888469D01*
X196913154Y-101835363D01*
X196950878Y-101783839D01*
X196987347Y-101734036D01*
X197022459Y-101686089D01*
X197056115Y-101640136D01*
X197088214Y-101596314D01*
X197118655Y-101554761D01*
X197147338Y-101515614D01*
X197174162Y-101479011D01*
X197199027Y-101445087D01*
X197221832Y-101413981D01*
X197242477Y-101385831D01*
X197260860Y-101360772D01*
X197276882Y-101338943D01*
X197290441Y-101320481D01*
X197301437Y-101305522D01*
X197309771Y-101294205D01*
X197315340Y-101286667D01*
X197318045Y-101283044D01*
X197318294Y-101282728D01*
X197320129Y-101281936D01*
X197324193Y-101281292D01*
X197330860Y-101280789D01*
X197340504Y-101280418D01*
X197353497Y-101280171D01*
X197370212Y-101280039D01*
X197391024Y-101280016D01*
X197416304Y-101280092D01*
G36*
X192098402Y-102235255D02*
G01*
X192103120Y-102284642D01*
X192112714Y-102333391D01*
X192126988Y-102381126D01*
X192145743Y-102427472D01*
X192168784Y-102472055D01*
X192195913Y-102514500D01*
X192226933Y-102554432D01*
X192261648Y-102591476D01*
X192299860Y-102625258D01*
X192305940Y-102630066D01*
X192346038Y-102658193D01*
X192389345Y-102682754D01*
X192435214Y-102703491D01*
X192482999Y-102720147D01*
X192532054Y-102732466D01*
X192581733Y-102740191D01*
X192583061Y-102740331D01*
X192604417Y-102741812D01*
X192629012Y-102742277D01*
X192655170Y-102741784D01*
X192681216Y-102740393D01*
X192705475Y-102738161D01*
X192725040Y-102735369D01*
X192775420Y-102723968D01*
X192824171Y-102708011D01*
X192870973Y-102687722D01*
X192915506Y-102663326D01*
X192957447Y-102635050D01*
X192996477Y-102603119D01*
X193032275Y-102567757D01*
X193064521Y-102529189D01*
X193092893Y-102487642D01*
X193103459Y-102469570D01*
X193107764Y-102461866D01*
X193110977Y-102456162D01*
X193112419Y-102453660D01*
X193112428Y-102453648D01*
X193114718Y-102454589D01*
X193120966Y-102457586D01*
X193130622Y-102462356D01*
X193143134Y-102468617D01*
X193157950Y-102476087D01*
X193174518Y-102484484D01*
X193192288Y-102493526D01*
X193210709Y-102502930D01*
X193229227Y-102512414D01*
X193247292Y-102521697D01*
X193264353Y-102530496D01*
X193279857Y-102538530D01*
X193293254Y-102545515D01*
X193303992Y-102551170D01*
X193311519Y-102555212D01*
X193315284Y-102557360D01*
X193315579Y-102557574D01*
X193316342Y-102559476D01*
X193315650Y-102562864D01*
X193313236Y-102568246D01*
X193308829Y-102576130D01*
X193302161Y-102587022D01*
X193292963Y-102601432D01*
X193289532Y-102606730D01*
X193253745Y-102657247D01*
X193214233Y-102704456D01*
X193171253Y-102748181D01*
X193125061Y-102788245D01*
X193075915Y-102824473D01*
X193024071Y-102856690D01*
X192969786Y-102884719D01*
X192913317Y-102908386D01*
X192854922Y-102927513D01*
X192801386Y-102940608D01*
X192780451Y-102944715D01*
X192761307Y-102947937D01*
X192742786Y-102950387D01*
X192723721Y-102952177D01*
X192702944Y-102953419D01*
X192679286Y-102954226D01*
X192655190Y-102954665D01*
X192636965Y-102954860D01*
X192620071Y-102954960D01*
X192605281Y-102954966D01*
X192593367Y-102954880D01*
X192585103Y-102954704D01*
X192581530Y-102954485D01*
X192575642Y-102953741D01*
X192566310Y-102952630D01*
X192555138Y-102951341D01*
X192549780Y-102950735D01*
X192494003Y-102942047D01*
X192438007Y-102928574D01*
X192382401Y-102910545D01*
X192327794Y-102888188D01*
X192274797Y-102861731D01*
X192224019Y-102831401D01*
X192215770Y-102825955D01*
X192185798Y-102805098D01*
X192159044Y-102784653D01*
X192133942Y-102763317D01*
X192108927Y-102739790D01*
X192093718Y-102724501D01*
X192051520Y-102677656D01*
X192013616Y-102628179D01*
X191980086Y-102576236D01*
X191951014Y-102521994D01*
X191926482Y-102465618D01*
X191906574Y-102407274D01*
X191891371Y-102347129D01*
X191883187Y-102301477D01*
X191881980Y-102292261D01*
X191880577Y-102279810D01*
X191879087Y-102265307D01*
X191877618Y-102249937D01*
X191876281Y-102234885D01*
X191875185Y-102221334D01*
X191874438Y-102210470D01*
X191874150Y-102203505D01*
X191876602Y-102203107D01*
X191883621Y-102202738D01*
X191894692Y-102202405D01*
X191909304Y-102202119D01*
X191926941Y-102201886D01*
X191947091Y-102201717D01*
X191969241Y-102201620D01*
X191985519Y-102201600D01*
X192096899Y-102201600D01*
X192098402Y-102235255D01*
G37*
X192098402Y-102235255D02*
X192103120Y-102284642D01*
X192112714Y-102333391D01*
X192126988Y-102381126D01*
X192145743Y-102427472D01*
X192168784Y-102472055D01*
X192195913Y-102514500D01*
X192226933Y-102554432D01*
X192261648Y-102591476D01*
X192299860Y-102625258D01*
X192305940Y-102630066D01*
X192346038Y-102658193D01*
X192389345Y-102682754D01*
X192435214Y-102703491D01*
X192482999Y-102720147D01*
X192532054Y-102732466D01*
X192581733Y-102740191D01*
X192583061Y-102740331D01*
X192604417Y-102741812D01*
X192629012Y-102742277D01*
X192655170Y-102741784D01*
X192681216Y-102740393D01*
X192705475Y-102738161D01*
X192725040Y-102735369D01*
X192775420Y-102723968D01*
X192824171Y-102708011D01*
X192870973Y-102687722D01*
X192915506Y-102663326D01*
X192957447Y-102635050D01*
X192996477Y-102603119D01*
X193032275Y-102567757D01*
X193064521Y-102529189D01*
X193092893Y-102487642D01*
X193103459Y-102469570D01*
X193107764Y-102461866D01*
X193110977Y-102456162D01*
X193112419Y-102453660D01*
X193112428Y-102453648D01*
X193114718Y-102454589D01*
X193120966Y-102457586D01*
X193130622Y-102462356D01*
X193143134Y-102468617D01*
X193157950Y-102476087D01*
X193174518Y-102484484D01*
X193192288Y-102493526D01*
X193210709Y-102502930D01*
X193229227Y-102512414D01*
X193247292Y-102521697D01*
X193264353Y-102530496D01*
X193279857Y-102538530D01*
X193293254Y-102545515D01*
X193303992Y-102551170D01*
X193311519Y-102555212D01*
X193315284Y-102557360D01*
X193315579Y-102557574D01*
X193316342Y-102559476D01*
X193315650Y-102562864D01*
X193313236Y-102568246D01*
X193308829Y-102576130D01*
X193302161Y-102587022D01*
X193292963Y-102601432D01*
X193289532Y-102606730D01*
X193253745Y-102657247D01*
X193214233Y-102704456D01*
X193171253Y-102748181D01*
X193125061Y-102788245D01*
X193075915Y-102824473D01*
X193024071Y-102856690D01*
X192969786Y-102884719D01*
X192913317Y-102908386D01*
X192854922Y-102927513D01*
X192801386Y-102940608D01*
X192780451Y-102944715D01*
X192761307Y-102947937D01*
X192742786Y-102950387D01*
X192723721Y-102952177D01*
X192702944Y-102953419D01*
X192679286Y-102954226D01*
X192655190Y-102954665D01*
X192636965Y-102954860D01*
X192620071Y-102954960D01*
X192605281Y-102954966D01*
X192593367Y-102954880D01*
X192585103Y-102954704D01*
X192581530Y-102954485D01*
X192575642Y-102953741D01*
X192566310Y-102952630D01*
X192555138Y-102951341D01*
X192549780Y-102950735D01*
X192494003Y-102942047D01*
X192438007Y-102928574D01*
X192382401Y-102910545D01*
X192327794Y-102888188D01*
X192274797Y-102861731D01*
X192224019Y-102831401D01*
X192215770Y-102825955D01*
X192185798Y-102805098D01*
X192159044Y-102784653D01*
X192133942Y-102763317D01*
X192108927Y-102739790D01*
X192093718Y-102724501D01*
X192051520Y-102677656D01*
X192013616Y-102628179D01*
X191980086Y-102576236D01*
X191951014Y-102521994D01*
X191926482Y-102465618D01*
X191906574Y-102407274D01*
X191891371Y-102347129D01*
X191883187Y-102301477D01*
X191881980Y-102292261D01*
X191880577Y-102279810D01*
X191879087Y-102265307D01*
X191877618Y-102249937D01*
X191876281Y-102234885D01*
X191875185Y-102221334D01*
X191874438Y-102210470D01*
X191874150Y-102203505D01*
X191876602Y-102203107D01*
X191883621Y-102202738D01*
X191894692Y-102202405D01*
X191909304Y-102202119D01*
X191926941Y-102201886D01*
X191947091Y-102201717D01*
X191969241Y-102201620D01*
X191985519Y-102201600D01*
X192096899Y-102201600D01*
X192098402Y-102235255D01*
G36*
X195658740Y-102945820D02*
G01*
X195437760Y-102945820D01*
X195437760Y-101274500D01*
X195658740Y-101274500D01*
X195658740Y-102945820D01*
G37*
X195658740Y-102945820D02*
X195437760Y-102945820D01*
X195437760Y-101274500D01*
X195658740Y-101274500D01*
X195658740Y-102945820D01*
G36*
X194411600Y-102945820D02*
G01*
X194190620Y-102945820D01*
X194190620Y-101663120D01*
X194411600Y-101663120D01*
X194411600Y-102945820D01*
G37*
X194411600Y-102945820D02*
X194190620Y-102945820D01*
X194190620Y-101663120D01*
X194411600Y-101663120D01*
X194411600Y-102945820D01*
G04 #@! TD*
D11*
G04 #@! TO.P,J5,1*
G04 #@! TO.N,/blue*
X203200000Y-83820000D03*
D12*
G04 #@! TO.P,J5,2*
X203200000Y-78740000D03*
G04 #@! TD*
D11*
G04 #@! TO.P,J6,1*
G04 #@! TO.N,/blue*
X203200000Y-63500000D03*
D12*
G04 #@! TO.P,J6,2*
X203200000Y-58420000D03*
G04 #@! TD*
D11*
G04 #@! TO.P,J7,1*
G04 #@! TO.N,/blue*
X203200000Y-93980000D03*
D12*
G04 #@! TO.P,J7,2*
X203200000Y-88900000D03*
G04 #@! TD*
D11*
G04 #@! TO.P,J8,1*
G04 #@! TO.N,/blue*
X203200000Y-73660000D03*
D12*
G04 #@! TO.P,J8,2*
X203200000Y-68580000D03*
G04 #@! TD*
D11*
G04 #@! TO.P,J2,1*
G04 #@! TO.N,/green*
X182880000Y-78740000D03*
D12*
G04 #@! TO.P,J2,2*
X182880000Y-83820000D03*
G04 #@! TD*
D11*
G04 #@! TO.P,J1,1*
G04 #@! TO.N,/green*
X182880000Y-68580000D03*
D12*
G04 #@! TO.P,J1,2*
X182880000Y-73660000D03*
G04 #@! TD*
D11*
G04 #@! TO.P,J4,1*
G04 #@! TO.N,/green*
X182880000Y-88900000D03*
D12*
G04 #@! TO.P,J4,2*
X182880000Y-93980000D03*
G04 #@! TD*
D11*
G04 #@! TO.P,J3,1*
G04 #@! TO.N,/green*
X182880000Y-58420000D03*
D12*
G04 #@! TO.P,J3,2*
X182880000Y-63500000D03*
G04 #@! TD*
G04 #@! TO.N,/green*
D13*
X189840001Y-58693382D02*
X189840000Y-93706619D01*
X187153620Y-96393000D01*
X179730000Y-96393000D01*
X179730000Y-95471653D01*
X181567952Y-95471653D01*
X181723962Y-95787214D01*
X182098745Y-95978020D01*
X182503551Y-96092044D01*
X182922824Y-96124902D01*
X183340451Y-96075334D01*
X183740383Y-95945243D01*
X184036038Y-95787214D01*
X184192048Y-95471653D01*
X182880000Y-94159605D01*
X181567952Y-95471653D01*
X179730000Y-95471653D01*
X179730000Y-94022824D01*
X180735098Y-94022824D01*
X180784666Y-94440451D01*
X180914757Y-94840383D01*
X181072786Y-95136038D01*
X181388347Y-95292048D01*
X182700395Y-93980000D01*
X183059605Y-93980000D01*
X184371653Y-95292048D01*
X184687214Y-95136038D01*
X184878020Y-94761255D01*
X184992044Y-94356449D01*
X185024902Y-93937176D01*
X184975334Y-93519549D01*
X184845243Y-93119617D01*
X184687214Y-92823962D01*
X184371653Y-92667952D01*
X183059605Y-93980000D01*
X182700395Y-93980000D01*
X181388347Y-92667952D01*
X181072786Y-92823962D01*
X180881980Y-93198745D01*
X180767956Y-93603551D01*
X180735098Y-94022824D01*
X179730000Y-94022824D01*
X179730000Y-92488347D01*
X181567952Y-92488347D01*
X182880000Y-93800395D01*
X184192048Y-92488347D01*
X184036038Y-92172786D01*
X183661255Y-91981980D01*
X183256449Y-91867956D01*
X182837176Y-91835098D01*
X182419549Y-91884666D01*
X182019617Y-92014757D01*
X181723962Y-92172786D01*
X181567952Y-92488347D01*
X179730000Y-92488347D01*
X179730000Y-90400000D01*
X180741928Y-90400000D01*
X180754188Y-90524482D01*
X180790498Y-90644180D01*
X180849463Y-90754494D01*
X180928815Y-90851185D01*
X181025506Y-90930537D01*
X181135820Y-90989502D01*
X181255518Y-91025812D01*
X181380000Y-91038072D01*
X182594250Y-91035000D01*
X182753000Y-90876250D01*
X182753000Y-89027000D01*
X183007000Y-89027000D01*
X183007000Y-90876250D01*
X183165750Y-91035000D01*
X184380000Y-91038072D01*
X184504482Y-91025812D01*
X184624180Y-90989502D01*
X184734494Y-90930537D01*
X184831185Y-90851185D01*
X184910537Y-90754494D01*
X184969502Y-90644180D01*
X185005812Y-90524482D01*
X185018072Y-90400000D01*
X185015000Y-89185750D01*
X184856250Y-89027000D01*
X183007000Y-89027000D01*
X182753000Y-89027000D01*
X180903750Y-89027000D01*
X180745000Y-89185750D01*
X180741928Y-90400000D01*
X179730000Y-90400000D01*
X179730000Y-87400000D01*
X180741928Y-87400000D01*
X180745000Y-88614250D01*
X180903750Y-88773000D01*
X182753000Y-88773000D01*
X182753000Y-86923750D01*
X183007000Y-86923750D01*
X183007000Y-88773000D01*
X184856250Y-88773000D01*
X185015000Y-88614250D01*
X185018072Y-87400000D01*
X185005812Y-87275518D01*
X184969502Y-87155820D01*
X184910537Y-87045506D01*
X184831185Y-86948815D01*
X184734494Y-86869463D01*
X184624180Y-86810498D01*
X184504482Y-86774188D01*
X184380000Y-86761928D01*
X183165750Y-86765000D01*
X183007000Y-86923750D01*
X182753000Y-86923750D01*
X182594250Y-86765000D01*
X181380000Y-86761928D01*
X181255518Y-86774188D01*
X181135820Y-86810498D01*
X181025506Y-86869463D01*
X180928815Y-86948815D01*
X180849463Y-87045506D01*
X180790498Y-87155820D01*
X180754188Y-87275518D01*
X180741928Y-87400000D01*
X179730000Y-87400000D01*
X179730000Y-85311653D01*
X181567952Y-85311653D01*
X181723962Y-85627214D01*
X182098745Y-85818020D01*
X182503551Y-85932044D01*
X182922824Y-85964902D01*
X183340451Y-85915334D01*
X183740383Y-85785243D01*
X184036038Y-85627214D01*
X184192048Y-85311653D01*
X182880000Y-83999605D01*
X181567952Y-85311653D01*
X179730000Y-85311653D01*
X179730000Y-83862824D01*
X180735098Y-83862824D01*
X180784666Y-84280451D01*
X180914757Y-84680383D01*
X181072786Y-84976038D01*
X181388347Y-85132048D01*
X182700395Y-83820000D01*
X183059605Y-83820000D01*
X184371653Y-85132048D01*
X184687214Y-84976038D01*
X184878020Y-84601255D01*
X184992044Y-84196449D01*
X185024902Y-83777176D01*
X184975334Y-83359549D01*
X184845243Y-82959617D01*
X184687214Y-82663962D01*
X184371653Y-82507952D01*
X183059605Y-83820000D01*
X182700395Y-83820000D01*
X181388347Y-82507952D01*
X181072786Y-82663962D01*
X180881980Y-83038745D01*
X180767956Y-83443551D01*
X180735098Y-83862824D01*
X179730000Y-83862824D01*
X179730000Y-82328347D01*
X181567952Y-82328347D01*
X182880000Y-83640395D01*
X184192048Y-82328347D01*
X184036038Y-82012786D01*
X183661255Y-81821980D01*
X183256449Y-81707956D01*
X182837176Y-81675098D01*
X182419549Y-81724666D01*
X182019617Y-81854757D01*
X181723962Y-82012786D01*
X181567952Y-82328347D01*
X179730000Y-82328347D01*
X179730000Y-80240000D01*
X180741928Y-80240000D01*
X180754188Y-80364482D01*
X180790498Y-80484180D01*
X180849463Y-80594494D01*
X180928815Y-80691185D01*
X181025506Y-80770537D01*
X181135820Y-80829502D01*
X181255518Y-80865812D01*
X181380000Y-80878072D01*
X182594250Y-80875000D01*
X182753000Y-80716250D01*
X182753000Y-78867000D01*
X183007000Y-78867000D01*
X183007000Y-80716250D01*
X183165750Y-80875000D01*
X184380000Y-80878072D01*
X184504482Y-80865812D01*
X184624180Y-80829502D01*
X184734494Y-80770537D01*
X184831185Y-80691185D01*
X184910537Y-80594494D01*
X184969502Y-80484180D01*
X185005812Y-80364482D01*
X185018072Y-80240000D01*
X185015000Y-79025750D01*
X184856250Y-78867000D01*
X183007000Y-78867000D01*
X182753000Y-78867000D01*
X180903750Y-78867000D01*
X180745000Y-79025750D01*
X180741928Y-80240000D01*
X179730000Y-80240000D01*
X179730000Y-77240000D01*
X180741928Y-77240000D01*
X180745000Y-78454250D01*
X180903750Y-78613000D01*
X182753000Y-78613000D01*
X182753000Y-76763750D01*
X183007000Y-76763750D01*
X183007000Y-78613000D01*
X184856250Y-78613000D01*
X185015000Y-78454250D01*
X185018072Y-77240000D01*
X185005812Y-77115518D01*
X184969502Y-76995820D01*
X184910537Y-76885506D01*
X184831185Y-76788815D01*
X184734494Y-76709463D01*
X184624180Y-76650498D01*
X184504482Y-76614188D01*
X184380000Y-76601928D01*
X183165750Y-76605000D01*
X183007000Y-76763750D01*
X182753000Y-76763750D01*
X182594250Y-76605000D01*
X181380000Y-76601928D01*
X181255518Y-76614188D01*
X181135820Y-76650498D01*
X181025506Y-76709463D01*
X180928815Y-76788815D01*
X180849463Y-76885506D01*
X180790498Y-76995820D01*
X180754188Y-77115518D01*
X180741928Y-77240000D01*
X179730000Y-77240000D01*
X179730000Y-75151653D01*
X181567952Y-75151653D01*
X181723962Y-75467214D01*
X182098745Y-75658020D01*
X182503551Y-75772044D01*
X182922824Y-75804902D01*
X183340451Y-75755334D01*
X183740383Y-75625243D01*
X184036038Y-75467214D01*
X184192048Y-75151653D01*
X182880000Y-73839605D01*
X181567952Y-75151653D01*
X179730000Y-75151653D01*
X179730000Y-73702824D01*
X180735098Y-73702824D01*
X180784666Y-74120451D01*
X180914757Y-74520383D01*
X181072786Y-74816038D01*
X181388347Y-74972048D01*
X182700395Y-73660000D01*
X183059605Y-73660000D01*
X184371653Y-74972048D01*
X184687214Y-74816038D01*
X184878020Y-74441255D01*
X184992044Y-74036449D01*
X185024902Y-73617176D01*
X184975334Y-73199549D01*
X184845243Y-72799617D01*
X184687214Y-72503962D01*
X184371653Y-72347952D01*
X183059605Y-73660000D01*
X182700395Y-73660000D01*
X181388347Y-72347952D01*
X181072786Y-72503962D01*
X180881980Y-72878745D01*
X180767956Y-73283551D01*
X180735098Y-73702824D01*
X179730000Y-73702824D01*
X179730000Y-72168347D01*
X181567952Y-72168347D01*
X182880000Y-73480395D01*
X184192048Y-72168347D01*
X184036038Y-71852786D01*
X183661255Y-71661980D01*
X183256449Y-71547956D01*
X182837176Y-71515098D01*
X182419549Y-71564666D01*
X182019617Y-71694757D01*
X181723962Y-71852786D01*
X181567952Y-72168347D01*
X179730000Y-72168347D01*
X179730000Y-70080000D01*
X180741928Y-70080000D01*
X180754188Y-70204482D01*
X180790498Y-70324180D01*
X180849463Y-70434494D01*
X180928815Y-70531185D01*
X181025506Y-70610537D01*
X181135820Y-70669502D01*
X181255518Y-70705812D01*
X181380000Y-70718072D01*
X182594250Y-70715000D01*
X182753000Y-70556250D01*
X182753000Y-68707000D01*
X183007000Y-68707000D01*
X183007000Y-70556250D01*
X183165750Y-70715000D01*
X184380000Y-70718072D01*
X184504482Y-70705812D01*
X184624180Y-70669502D01*
X184734494Y-70610537D01*
X184831185Y-70531185D01*
X184910537Y-70434494D01*
X184969502Y-70324180D01*
X185005812Y-70204482D01*
X185018072Y-70080000D01*
X185015000Y-68865750D01*
X184856250Y-68707000D01*
X183007000Y-68707000D01*
X182753000Y-68707000D01*
X180903750Y-68707000D01*
X180745000Y-68865750D01*
X180741928Y-70080000D01*
X179730000Y-70080000D01*
X179730000Y-67080000D01*
X180741928Y-67080000D01*
X180745000Y-68294250D01*
X180903750Y-68453000D01*
X182753000Y-68453000D01*
X182753000Y-66603750D01*
X183007000Y-66603750D01*
X183007000Y-68453000D01*
X184856250Y-68453000D01*
X185015000Y-68294250D01*
X185018072Y-67080000D01*
X185005812Y-66955518D01*
X184969502Y-66835820D01*
X184910537Y-66725506D01*
X184831185Y-66628815D01*
X184734494Y-66549463D01*
X184624180Y-66490498D01*
X184504482Y-66454188D01*
X184380000Y-66441928D01*
X183165750Y-66445000D01*
X183007000Y-66603750D01*
X182753000Y-66603750D01*
X182594250Y-66445000D01*
X181380000Y-66441928D01*
X181255518Y-66454188D01*
X181135820Y-66490498D01*
X181025506Y-66549463D01*
X180928815Y-66628815D01*
X180849463Y-66725506D01*
X180790498Y-66835820D01*
X180754188Y-66955518D01*
X180741928Y-67080000D01*
X179730000Y-67080000D01*
X179730000Y-64991653D01*
X181567952Y-64991653D01*
X181723962Y-65307214D01*
X182098745Y-65498020D01*
X182503551Y-65612044D01*
X182922824Y-65644902D01*
X183340451Y-65595334D01*
X183740383Y-65465243D01*
X184036038Y-65307214D01*
X184192048Y-64991653D01*
X182880000Y-63679605D01*
X181567952Y-64991653D01*
X179730000Y-64991653D01*
X179730000Y-63542824D01*
X180735098Y-63542824D01*
X180784666Y-63960451D01*
X180914757Y-64360383D01*
X181072786Y-64656038D01*
X181388347Y-64812048D01*
X182700395Y-63500000D01*
X183059605Y-63500000D01*
X184371653Y-64812048D01*
X184687214Y-64656038D01*
X184878020Y-64281255D01*
X184992044Y-63876449D01*
X185024902Y-63457176D01*
X184975334Y-63039549D01*
X184845243Y-62639617D01*
X184687214Y-62343962D01*
X184371653Y-62187952D01*
X183059605Y-63500000D01*
X182700395Y-63500000D01*
X181388347Y-62187952D01*
X181072786Y-62343962D01*
X180881980Y-62718745D01*
X180767956Y-63123551D01*
X180735098Y-63542824D01*
X179730000Y-63542824D01*
X179730000Y-62008347D01*
X181567952Y-62008347D01*
X182880000Y-63320395D01*
X184192048Y-62008347D01*
X184036038Y-61692786D01*
X183661255Y-61501980D01*
X183256449Y-61387956D01*
X182837176Y-61355098D01*
X182419549Y-61404666D01*
X182019617Y-61534757D01*
X181723962Y-61692786D01*
X181567952Y-62008347D01*
X179730000Y-62008347D01*
X179730000Y-59920000D01*
X180741928Y-59920000D01*
X180754188Y-60044482D01*
X180790498Y-60164180D01*
X180849463Y-60274494D01*
X180928815Y-60371185D01*
X181025506Y-60450537D01*
X181135820Y-60509502D01*
X181255518Y-60545812D01*
X181380000Y-60558072D01*
X182594250Y-60555000D01*
X182753000Y-60396250D01*
X182753000Y-58547000D01*
X183007000Y-58547000D01*
X183007000Y-60396250D01*
X183165750Y-60555000D01*
X184380000Y-60558072D01*
X184504482Y-60545812D01*
X184624180Y-60509502D01*
X184734494Y-60450537D01*
X184831185Y-60371185D01*
X184910537Y-60274494D01*
X184969502Y-60164180D01*
X185005812Y-60044482D01*
X185018072Y-59920000D01*
X185015000Y-58705750D01*
X184856250Y-58547000D01*
X183007000Y-58547000D01*
X182753000Y-58547000D01*
X180903750Y-58547000D01*
X180745000Y-58705750D01*
X180741928Y-59920000D01*
X179730000Y-59920000D01*
X179730000Y-56920000D01*
X180741928Y-56920000D01*
X180745000Y-58134250D01*
X180903750Y-58293000D01*
X182753000Y-58293000D01*
X182753000Y-56443750D01*
X183007000Y-56443750D01*
X183007000Y-58293000D01*
X184856250Y-58293000D01*
X185015000Y-58134250D01*
X185018072Y-56920000D01*
X185005812Y-56795518D01*
X184969502Y-56675820D01*
X184910537Y-56565506D01*
X184831185Y-56468815D01*
X184734494Y-56389463D01*
X184624180Y-56330498D01*
X184504482Y-56294188D01*
X184380000Y-56281928D01*
X183165750Y-56285000D01*
X183007000Y-56443750D01*
X182753000Y-56443750D01*
X182594250Y-56285000D01*
X181380000Y-56281928D01*
X181255518Y-56294188D01*
X181135820Y-56330498D01*
X181025506Y-56389463D01*
X180928815Y-56468815D01*
X180849463Y-56565506D01*
X180790498Y-56675820D01*
X180754188Y-56795518D01*
X180741928Y-56920000D01*
X179730000Y-56920000D01*
X179730000Y-56007000D01*
X187153620Y-56007000D01*
X189840001Y-58693382D01*
X189840001Y-58693382D02*
X187153620Y-56007000D01*
G04 #@! TA.AperFunction,Conductor*
G36*
X189840001Y-58693382D02*
G01*
X189840000Y-93706619D01*
X187153620Y-96393000D01*
X179730000Y-96393000D01*
X179730000Y-95471653D01*
X181567952Y-95471653D01*
X181723962Y-95787214D01*
X182098745Y-95978020D01*
X182503551Y-96092044D01*
X182922824Y-96124902D01*
X183340451Y-96075334D01*
X183740383Y-95945243D01*
X184036038Y-95787214D01*
X184192048Y-95471653D01*
X182880000Y-94159605D01*
X181567952Y-95471653D01*
X179730000Y-95471653D01*
X179730000Y-94022824D01*
X180735098Y-94022824D01*
X180784666Y-94440451D01*
X180914757Y-94840383D01*
X181072786Y-95136038D01*
X181388347Y-95292048D01*
X182700395Y-93980000D01*
X183059605Y-93980000D01*
X184371653Y-95292048D01*
X184687214Y-95136038D01*
X184878020Y-94761255D01*
X184992044Y-94356449D01*
X185024902Y-93937176D01*
X184975334Y-93519549D01*
X184845243Y-93119617D01*
X184687214Y-92823962D01*
X184371653Y-92667952D01*
X183059605Y-93980000D01*
X182700395Y-93980000D01*
X181388347Y-92667952D01*
X181072786Y-92823962D01*
X180881980Y-93198745D01*
X180767956Y-93603551D01*
X180735098Y-94022824D01*
X179730000Y-94022824D01*
X179730000Y-92488347D01*
X181567952Y-92488347D01*
X182880000Y-93800395D01*
X184192048Y-92488347D01*
X184036038Y-92172786D01*
X183661255Y-91981980D01*
X183256449Y-91867956D01*
X182837176Y-91835098D01*
X182419549Y-91884666D01*
X182019617Y-92014757D01*
X181723962Y-92172786D01*
X181567952Y-92488347D01*
X179730000Y-92488347D01*
X179730000Y-90400000D01*
X180741928Y-90400000D01*
X180754188Y-90524482D01*
X180790498Y-90644180D01*
X180849463Y-90754494D01*
X180928815Y-90851185D01*
X181025506Y-90930537D01*
X181135820Y-90989502D01*
X181255518Y-91025812D01*
X181380000Y-91038072D01*
X182594250Y-91035000D01*
X182753000Y-90876250D01*
X182753000Y-89027000D01*
X183007000Y-89027000D01*
X183007000Y-90876250D01*
X183165750Y-91035000D01*
X184380000Y-91038072D01*
X184504482Y-91025812D01*
X184624180Y-90989502D01*
X184734494Y-90930537D01*
X184831185Y-90851185D01*
X184910537Y-90754494D01*
X184969502Y-90644180D01*
X185005812Y-90524482D01*
X185018072Y-90400000D01*
X185015000Y-89185750D01*
X184856250Y-89027000D01*
X183007000Y-89027000D01*
X182753000Y-89027000D01*
X180903750Y-89027000D01*
X180745000Y-89185750D01*
X180741928Y-90400000D01*
X179730000Y-90400000D01*
X179730000Y-87400000D01*
X180741928Y-87400000D01*
X180745000Y-88614250D01*
X180903750Y-88773000D01*
X182753000Y-88773000D01*
X182753000Y-86923750D01*
X183007000Y-86923750D01*
X183007000Y-88773000D01*
X184856250Y-88773000D01*
X185015000Y-88614250D01*
X185018072Y-87400000D01*
X185005812Y-87275518D01*
X184969502Y-87155820D01*
X184910537Y-87045506D01*
X184831185Y-86948815D01*
X184734494Y-86869463D01*
X184624180Y-86810498D01*
X184504482Y-86774188D01*
X184380000Y-86761928D01*
X183165750Y-86765000D01*
X183007000Y-86923750D01*
X182753000Y-86923750D01*
X182594250Y-86765000D01*
X181380000Y-86761928D01*
X181255518Y-86774188D01*
X181135820Y-86810498D01*
X181025506Y-86869463D01*
X180928815Y-86948815D01*
X180849463Y-87045506D01*
X180790498Y-87155820D01*
X180754188Y-87275518D01*
X180741928Y-87400000D01*
X179730000Y-87400000D01*
X179730000Y-85311653D01*
X181567952Y-85311653D01*
X181723962Y-85627214D01*
X182098745Y-85818020D01*
X182503551Y-85932044D01*
X182922824Y-85964902D01*
X183340451Y-85915334D01*
X183740383Y-85785243D01*
X184036038Y-85627214D01*
X184192048Y-85311653D01*
X182880000Y-83999605D01*
X181567952Y-85311653D01*
X179730000Y-85311653D01*
X179730000Y-83862824D01*
X180735098Y-83862824D01*
X180784666Y-84280451D01*
X180914757Y-84680383D01*
X181072786Y-84976038D01*
X181388347Y-85132048D01*
X182700395Y-83820000D01*
X183059605Y-83820000D01*
X184371653Y-85132048D01*
X184687214Y-84976038D01*
X184878020Y-84601255D01*
X184992044Y-84196449D01*
X185024902Y-83777176D01*
X184975334Y-83359549D01*
X184845243Y-82959617D01*
X184687214Y-82663962D01*
X184371653Y-82507952D01*
X183059605Y-83820000D01*
X182700395Y-83820000D01*
X181388347Y-82507952D01*
X181072786Y-82663962D01*
X180881980Y-83038745D01*
X180767956Y-83443551D01*
X180735098Y-83862824D01*
X179730000Y-83862824D01*
X179730000Y-82328347D01*
X181567952Y-82328347D01*
X182880000Y-83640395D01*
X184192048Y-82328347D01*
X184036038Y-82012786D01*
X183661255Y-81821980D01*
X183256449Y-81707956D01*
X182837176Y-81675098D01*
X182419549Y-81724666D01*
X182019617Y-81854757D01*
X181723962Y-82012786D01*
X181567952Y-82328347D01*
X179730000Y-82328347D01*
X179730000Y-80240000D01*
X180741928Y-80240000D01*
X180754188Y-80364482D01*
X180790498Y-80484180D01*
X180849463Y-80594494D01*
X180928815Y-80691185D01*
X181025506Y-80770537D01*
X181135820Y-80829502D01*
X181255518Y-80865812D01*
X181380000Y-80878072D01*
X182594250Y-80875000D01*
X182753000Y-80716250D01*
X182753000Y-78867000D01*
X183007000Y-78867000D01*
X183007000Y-80716250D01*
X183165750Y-80875000D01*
X184380000Y-80878072D01*
X184504482Y-80865812D01*
X184624180Y-80829502D01*
X184734494Y-80770537D01*
X184831185Y-80691185D01*
X184910537Y-80594494D01*
X184969502Y-80484180D01*
X185005812Y-80364482D01*
X185018072Y-80240000D01*
X185015000Y-79025750D01*
X184856250Y-78867000D01*
X183007000Y-78867000D01*
X182753000Y-78867000D01*
X180903750Y-78867000D01*
X180745000Y-79025750D01*
X180741928Y-80240000D01*
X179730000Y-80240000D01*
X179730000Y-77240000D01*
X180741928Y-77240000D01*
X180745000Y-78454250D01*
X180903750Y-78613000D01*
X182753000Y-78613000D01*
X182753000Y-76763750D01*
X183007000Y-76763750D01*
X183007000Y-78613000D01*
X184856250Y-78613000D01*
X185015000Y-78454250D01*
X185018072Y-77240000D01*
X185005812Y-77115518D01*
X184969502Y-76995820D01*
X184910537Y-76885506D01*
X184831185Y-76788815D01*
X184734494Y-76709463D01*
X184624180Y-76650498D01*
X184504482Y-76614188D01*
X184380000Y-76601928D01*
X183165750Y-76605000D01*
X183007000Y-76763750D01*
X182753000Y-76763750D01*
X182594250Y-76605000D01*
X181380000Y-76601928D01*
X181255518Y-76614188D01*
X181135820Y-76650498D01*
X181025506Y-76709463D01*
X180928815Y-76788815D01*
X180849463Y-76885506D01*
X180790498Y-76995820D01*
X180754188Y-77115518D01*
X180741928Y-77240000D01*
X179730000Y-77240000D01*
X179730000Y-75151653D01*
X181567952Y-75151653D01*
X181723962Y-75467214D01*
X182098745Y-75658020D01*
X182503551Y-75772044D01*
X182922824Y-75804902D01*
X183340451Y-75755334D01*
X183740383Y-75625243D01*
X184036038Y-75467214D01*
X184192048Y-75151653D01*
X182880000Y-73839605D01*
X181567952Y-75151653D01*
X179730000Y-75151653D01*
X179730000Y-73702824D01*
X180735098Y-73702824D01*
X180784666Y-74120451D01*
X180914757Y-74520383D01*
X181072786Y-74816038D01*
X181388347Y-74972048D01*
X182700395Y-73660000D01*
X183059605Y-73660000D01*
X184371653Y-74972048D01*
X184687214Y-74816038D01*
X184878020Y-74441255D01*
X184992044Y-74036449D01*
X185024902Y-73617176D01*
X184975334Y-73199549D01*
X184845243Y-72799617D01*
X184687214Y-72503962D01*
X184371653Y-72347952D01*
X183059605Y-73660000D01*
X182700395Y-73660000D01*
X181388347Y-72347952D01*
X181072786Y-72503962D01*
X180881980Y-72878745D01*
X180767956Y-73283551D01*
X180735098Y-73702824D01*
X179730000Y-73702824D01*
X179730000Y-72168347D01*
X181567952Y-72168347D01*
X182880000Y-73480395D01*
X184192048Y-72168347D01*
X184036038Y-71852786D01*
X183661255Y-71661980D01*
X183256449Y-71547956D01*
X182837176Y-71515098D01*
X182419549Y-71564666D01*
X182019617Y-71694757D01*
X181723962Y-71852786D01*
X181567952Y-72168347D01*
X179730000Y-72168347D01*
X179730000Y-70080000D01*
X180741928Y-70080000D01*
X180754188Y-70204482D01*
X180790498Y-70324180D01*
X180849463Y-70434494D01*
X180928815Y-70531185D01*
X181025506Y-70610537D01*
X181135820Y-70669502D01*
X181255518Y-70705812D01*
X181380000Y-70718072D01*
X182594250Y-70715000D01*
X182753000Y-70556250D01*
X182753000Y-68707000D01*
X183007000Y-68707000D01*
X183007000Y-70556250D01*
X183165750Y-70715000D01*
X184380000Y-70718072D01*
X184504482Y-70705812D01*
X184624180Y-70669502D01*
X184734494Y-70610537D01*
X184831185Y-70531185D01*
X184910537Y-70434494D01*
X184969502Y-70324180D01*
X185005812Y-70204482D01*
X185018072Y-70080000D01*
X185015000Y-68865750D01*
X184856250Y-68707000D01*
X183007000Y-68707000D01*
X182753000Y-68707000D01*
X180903750Y-68707000D01*
X180745000Y-68865750D01*
X180741928Y-70080000D01*
X179730000Y-70080000D01*
X179730000Y-67080000D01*
X180741928Y-67080000D01*
X180745000Y-68294250D01*
X180903750Y-68453000D01*
X182753000Y-68453000D01*
X182753000Y-66603750D01*
X183007000Y-66603750D01*
X183007000Y-68453000D01*
X184856250Y-68453000D01*
X185015000Y-68294250D01*
X185018072Y-67080000D01*
X185005812Y-66955518D01*
X184969502Y-66835820D01*
X184910537Y-66725506D01*
X184831185Y-66628815D01*
X184734494Y-66549463D01*
X184624180Y-66490498D01*
X184504482Y-66454188D01*
X184380000Y-66441928D01*
X183165750Y-66445000D01*
X183007000Y-66603750D01*
X182753000Y-66603750D01*
X182594250Y-66445000D01*
X181380000Y-66441928D01*
X181255518Y-66454188D01*
X181135820Y-66490498D01*
X181025506Y-66549463D01*
X180928815Y-66628815D01*
X180849463Y-66725506D01*
X180790498Y-66835820D01*
X180754188Y-66955518D01*
X180741928Y-67080000D01*
X179730000Y-67080000D01*
X179730000Y-64991653D01*
X181567952Y-64991653D01*
X181723962Y-65307214D01*
X182098745Y-65498020D01*
X182503551Y-65612044D01*
X182922824Y-65644902D01*
X183340451Y-65595334D01*
X183740383Y-65465243D01*
X184036038Y-65307214D01*
X184192048Y-64991653D01*
X182880000Y-63679605D01*
X181567952Y-64991653D01*
X179730000Y-64991653D01*
X179730000Y-63542824D01*
X180735098Y-63542824D01*
X180784666Y-63960451D01*
X180914757Y-64360383D01*
X181072786Y-64656038D01*
X181388347Y-64812048D01*
X182700395Y-63500000D01*
X183059605Y-63500000D01*
X184371653Y-64812048D01*
X184687214Y-64656038D01*
X184878020Y-64281255D01*
X184992044Y-63876449D01*
X185024902Y-63457176D01*
X184975334Y-63039549D01*
X184845243Y-62639617D01*
X184687214Y-62343962D01*
X184371653Y-62187952D01*
X183059605Y-63500000D01*
X182700395Y-63500000D01*
X181388347Y-62187952D01*
X181072786Y-62343962D01*
X180881980Y-62718745D01*
X180767956Y-63123551D01*
X180735098Y-63542824D01*
X179730000Y-63542824D01*
X179730000Y-62008347D01*
X181567952Y-62008347D01*
X182880000Y-63320395D01*
X184192048Y-62008347D01*
X184036038Y-61692786D01*
X183661255Y-61501980D01*
X183256449Y-61387956D01*
X182837176Y-61355098D01*
X182419549Y-61404666D01*
X182019617Y-61534757D01*
X181723962Y-61692786D01*
X181567952Y-62008347D01*
X179730000Y-62008347D01*
X179730000Y-59920000D01*
X180741928Y-59920000D01*
X180754188Y-60044482D01*
X180790498Y-60164180D01*
X180849463Y-60274494D01*
X180928815Y-60371185D01*
X181025506Y-60450537D01*
X181135820Y-60509502D01*
X181255518Y-60545812D01*
X181380000Y-60558072D01*
X182594250Y-60555000D01*
X182753000Y-60396250D01*
X182753000Y-58547000D01*
X183007000Y-58547000D01*
X183007000Y-60396250D01*
X183165750Y-60555000D01*
X184380000Y-60558072D01*
X184504482Y-60545812D01*
X184624180Y-60509502D01*
X184734494Y-60450537D01*
X184831185Y-60371185D01*
X184910537Y-60274494D01*
X184969502Y-60164180D01*
X185005812Y-60044482D01*
X185018072Y-59920000D01*
X185015000Y-58705750D01*
X184856250Y-58547000D01*
X183007000Y-58547000D01*
X182753000Y-58547000D01*
X180903750Y-58547000D01*
X180745000Y-58705750D01*
X180741928Y-59920000D01*
X179730000Y-59920000D01*
X179730000Y-56920000D01*
X180741928Y-56920000D01*
X180745000Y-58134250D01*
X180903750Y-58293000D01*
X182753000Y-58293000D01*
X182753000Y-56443750D01*
X183007000Y-56443750D01*
X183007000Y-58293000D01*
X184856250Y-58293000D01*
X185015000Y-58134250D01*
X185018072Y-56920000D01*
X185005812Y-56795518D01*
X184969502Y-56675820D01*
X184910537Y-56565506D01*
X184831185Y-56468815D01*
X184734494Y-56389463D01*
X184624180Y-56330498D01*
X184504482Y-56294188D01*
X184380000Y-56281928D01*
X183165750Y-56285000D01*
X183007000Y-56443750D01*
X182753000Y-56443750D01*
X182594250Y-56285000D01*
X181380000Y-56281928D01*
X181255518Y-56294188D01*
X181135820Y-56330498D01*
X181025506Y-56389463D01*
X180928815Y-56468815D01*
X180849463Y-56565506D01*
X180790498Y-56675820D01*
X180754188Y-56795518D01*
X180741928Y-56920000D01*
X179730000Y-56920000D01*
X179730000Y-56007000D01*
X187153620Y-56007000D01*
X189840001Y-58693382D01*
G37*
G04 #@! TD.AperFunction*
G04 #@! TD*
G04 #@! TO.N,/blue*
X206350001Y-96393000D02*
X198926381Y-96393000D01*
X198013381Y-95480000D01*
X201061928Y-95480000D01*
X201074188Y-95604482D01*
X201110498Y-95724180D01*
X201169463Y-95834494D01*
X201248815Y-95931185D01*
X201345506Y-96010537D01*
X201455820Y-96069502D01*
X201575518Y-96105812D01*
X201700000Y-96118072D01*
X202914250Y-96115000D01*
X203073000Y-95956250D01*
X203073000Y-94107000D01*
X203327000Y-94107000D01*
X203327000Y-95956250D01*
X203485750Y-96115000D01*
X204700000Y-96118072D01*
X204824482Y-96105812D01*
X204944180Y-96069502D01*
X205054494Y-96010537D01*
X205151185Y-95931185D01*
X205230537Y-95834494D01*
X205289502Y-95724180D01*
X205325812Y-95604482D01*
X205338072Y-95480000D01*
X205335000Y-94265750D01*
X205176250Y-94107000D01*
X203327000Y-94107000D01*
X203073000Y-94107000D01*
X201223750Y-94107000D01*
X201065000Y-94265750D01*
X201061928Y-95480000D01*
X198013381Y-95480000D01*
X196240000Y-93706620D01*
X196240000Y-92480000D01*
X201061928Y-92480000D01*
X201065000Y-93694250D01*
X201223750Y-93853000D01*
X203073000Y-93853000D01*
X203073000Y-92003750D01*
X203327000Y-92003750D01*
X203327000Y-93853000D01*
X205176250Y-93853000D01*
X205335000Y-93694250D01*
X205338072Y-92480000D01*
X205325812Y-92355518D01*
X205289502Y-92235820D01*
X205230537Y-92125506D01*
X205151185Y-92028815D01*
X205054494Y-91949463D01*
X204944180Y-91890498D01*
X204824482Y-91854188D01*
X204700000Y-91841928D01*
X203485750Y-91845000D01*
X203327000Y-92003750D01*
X203073000Y-92003750D01*
X202914250Y-91845000D01*
X201700000Y-91841928D01*
X201575518Y-91854188D01*
X201455820Y-91890498D01*
X201345506Y-91949463D01*
X201248815Y-92028815D01*
X201169463Y-92125506D01*
X201110498Y-92235820D01*
X201074188Y-92355518D01*
X201061928Y-92480000D01*
X196240000Y-92480000D01*
X196240000Y-90391653D01*
X201887952Y-90391653D01*
X202043962Y-90707214D01*
X202418745Y-90898020D01*
X202823551Y-91012044D01*
X203242824Y-91044902D01*
X203660451Y-90995334D01*
X204060383Y-90865243D01*
X204356038Y-90707214D01*
X204512048Y-90391653D01*
X203200000Y-89079605D01*
X201887952Y-90391653D01*
X196240000Y-90391653D01*
X196240000Y-88942824D01*
X201055098Y-88942824D01*
X201104666Y-89360451D01*
X201234757Y-89760383D01*
X201392786Y-90056038D01*
X201708347Y-90212048D01*
X203020395Y-88900000D01*
X203379605Y-88900000D01*
X204691653Y-90212048D01*
X205007214Y-90056038D01*
X205198020Y-89681255D01*
X205312044Y-89276449D01*
X205344902Y-88857176D01*
X205295334Y-88439549D01*
X205165243Y-88039617D01*
X205007214Y-87743962D01*
X204691653Y-87587952D01*
X203379605Y-88900000D01*
X203020395Y-88900000D01*
X201708347Y-87587952D01*
X201392786Y-87743962D01*
X201201980Y-88118745D01*
X201087956Y-88523551D01*
X201055098Y-88942824D01*
X196240000Y-88942824D01*
X196240000Y-87408347D01*
X201887952Y-87408347D01*
X203200000Y-88720395D01*
X204512048Y-87408347D01*
X204356038Y-87092786D01*
X203981255Y-86901980D01*
X203576449Y-86787956D01*
X203157176Y-86755098D01*
X202739549Y-86804666D01*
X202339617Y-86934757D01*
X202043962Y-87092786D01*
X201887952Y-87408347D01*
X196240000Y-87408347D01*
X196240000Y-85320000D01*
X201061928Y-85320000D01*
X201074188Y-85444482D01*
X201110498Y-85564180D01*
X201169463Y-85674494D01*
X201248815Y-85771185D01*
X201345506Y-85850537D01*
X201455820Y-85909502D01*
X201575518Y-85945812D01*
X201700000Y-85958072D01*
X202914250Y-85955000D01*
X203073000Y-85796250D01*
X203073000Y-83947000D01*
X203327000Y-83947000D01*
X203327000Y-85796250D01*
X203485750Y-85955000D01*
X204700000Y-85958072D01*
X204824482Y-85945812D01*
X204944180Y-85909502D01*
X205054494Y-85850537D01*
X205151185Y-85771185D01*
X205230537Y-85674494D01*
X205289502Y-85564180D01*
X205325812Y-85444482D01*
X205338072Y-85320000D01*
X205335000Y-84105750D01*
X205176250Y-83947000D01*
X203327000Y-83947000D01*
X203073000Y-83947000D01*
X201223750Y-83947000D01*
X201065000Y-84105750D01*
X201061928Y-85320000D01*
X196240000Y-85320000D01*
X196240000Y-82320000D01*
X201061928Y-82320000D01*
X201065000Y-83534250D01*
X201223750Y-83693000D01*
X203073000Y-83693000D01*
X203073000Y-81843750D01*
X203327000Y-81843750D01*
X203327000Y-83693000D01*
X205176250Y-83693000D01*
X205335000Y-83534250D01*
X205338072Y-82320000D01*
X205325812Y-82195518D01*
X205289502Y-82075820D01*
X205230537Y-81965506D01*
X205151185Y-81868815D01*
X205054494Y-81789463D01*
X204944180Y-81730498D01*
X204824482Y-81694188D01*
X204700000Y-81681928D01*
X203485750Y-81685000D01*
X203327000Y-81843750D01*
X203073000Y-81843750D01*
X202914250Y-81685000D01*
X201700000Y-81681928D01*
X201575518Y-81694188D01*
X201455820Y-81730498D01*
X201345506Y-81789463D01*
X201248815Y-81868815D01*
X201169463Y-81965506D01*
X201110498Y-82075820D01*
X201074188Y-82195518D01*
X201061928Y-82320000D01*
X196240000Y-82320000D01*
X196240000Y-80231653D01*
X201887952Y-80231653D01*
X202043962Y-80547214D01*
X202418745Y-80738020D01*
X202823551Y-80852044D01*
X203242824Y-80884902D01*
X203660451Y-80835334D01*
X204060383Y-80705243D01*
X204356038Y-80547214D01*
X204512048Y-80231653D01*
X203200000Y-78919605D01*
X201887952Y-80231653D01*
X196240000Y-80231653D01*
X196240000Y-78782824D01*
X201055098Y-78782824D01*
X201104666Y-79200451D01*
X201234757Y-79600383D01*
X201392786Y-79896038D01*
X201708347Y-80052048D01*
X203020395Y-78740000D01*
X203379605Y-78740000D01*
X204691653Y-80052048D01*
X205007214Y-79896038D01*
X205198020Y-79521255D01*
X205312044Y-79116449D01*
X205344902Y-78697176D01*
X205295334Y-78279549D01*
X205165243Y-77879617D01*
X205007214Y-77583962D01*
X204691653Y-77427952D01*
X203379605Y-78740000D01*
X203020395Y-78740000D01*
X201708347Y-77427952D01*
X201392786Y-77583962D01*
X201201980Y-77958745D01*
X201087956Y-78363551D01*
X201055098Y-78782824D01*
X196240000Y-78782824D01*
X196240000Y-77248347D01*
X201887952Y-77248347D01*
X203200000Y-78560395D01*
X204512048Y-77248347D01*
X204356038Y-76932786D01*
X203981255Y-76741980D01*
X203576449Y-76627956D01*
X203157176Y-76595098D01*
X202739549Y-76644666D01*
X202339617Y-76774757D01*
X202043962Y-76932786D01*
X201887952Y-77248347D01*
X196240000Y-77248347D01*
X196240000Y-75160000D01*
X201061928Y-75160000D01*
X201074188Y-75284482D01*
X201110498Y-75404180D01*
X201169463Y-75514494D01*
X201248815Y-75611185D01*
X201345506Y-75690537D01*
X201455820Y-75749502D01*
X201575518Y-75785812D01*
X201700000Y-75798072D01*
X202914250Y-75795000D01*
X203073000Y-75636250D01*
X203073000Y-73787000D01*
X203327000Y-73787000D01*
X203327000Y-75636250D01*
X203485750Y-75795000D01*
X204700000Y-75798072D01*
X204824482Y-75785812D01*
X204944180Y-75749502D01*
X205054494Y-75690537D01*
X205151185Y-75611185D01*
X205230537Y-75514494D01*
X205289502Y-75404180D01*
X205325812Y-75284482D01*
X205338072Y-75160000D01*
X205335000Y-73945750D01*
X205176250Y-73787000D01*
X203327000Y-73787000D01*
X203073000Y-73787000D01*
X201223750Y-73787000D01*
X201065000Y-73945750D01*
X201061928Y-75160000D01*
X196240000Y-75160000D01*
X196240000Y-72160000D01*
X201061928Y-72160000D01*
X201065000Y-73374250D01*
X201223750Y-73533000D01*
X203073000Y-73533000D01*
X203073000Y-71683750D01*
X203327000Y-71683750D01*
X203327000Y-73533000D01*
X205176250Y-73533000D01*
X205335000Y-73374250D01*
X205338072Y-72160000D01*
X205325812Y-72035518D01*
X205289502Y-71915820D01*
X205230537Y-71805506D01*
X205151185Y-71708815D01*
X205054494Y-71629463D01*
X204944180Y-71570498D01*
X204824482Y-71534188D01*
X204700000Y-71521928D01*
X203485750Y-71525000D01*
X203327000Y-71683750D01*
X203073000Y-71683750D01*
X202914250Y-71525000D01*
X201700000Y-71521928D01*
X201575518Y-71534188D01*
X201455820Y-71570498D01*
X201345506Y-71629463D01*
X201248815Y-71708815D01*
X201169463Y-71805506D01*
X201110498Y-71915820D01*
X201074188Y-72035518D01*
X201061928Y-72160000D01*
X196240000Y-72160000D01*
X196240000Y-70071653D01*
X201887952Y-70071653D01*
X202043962Y-70387214D01*
X202418745Y-70578020D01*
X202823551Y-70692044D01*
X203242824Y-70724902D01*
X203660451Y-70675334D01*
X204060383Y-70545243D01*
X204356038Y-70387214D01*
X204512048Y-70071653D01*
X203200000Y-68759605D01*
X201887952Y-70071653D01*
X196240000Y-70071653D01*
X196240000Y-68622824D01*
X201055098Y-68622824D01*
X201104666Y-69040451D01*
X201234757Y-69440383D01*
X201392786Y-69736038D01*
X201708347Y-69892048D01*
X203020395Y-68580000D01*
X203379605Y-68580000D01*
X204691653Y-69892048D01*
X205007214Y-69736038D01*
X205198020Y-69361255D01*
X205312044Y-68956449D01*
X205344902Y-68537176D01*
X205295334Y-68119549D01*
X205165243Y-67719617D01*
X205007214Y-67423962D01*
X204691653Y-67267952D01*
X203379605Y-68580000D01*
X203020395Y-68580000D01*
X201708347Y-67267952D01*
X201392786Y-67423962D01*
X201201980Y-67798745D01*
X201087956Y-68203551D01*
X201055098Y-68622824D01*
X196240000Y-68622824D01*
X196240000Y-67088347D01*
X201887952Y-67088347D01*
X203200000Y-68400395D01*
X204512048Y-67088347D01*
X204356038Y-66772786D01*
X203981255Y-66581980D01*
X203576449Y-66467956D01*
X203157176Y-66435098D01*
X202739549Y-66484666D01*
X202339617Y-66614757D01*
X202043962Y-66772786D01*
X201887952Y-67088347D01*
X196240000Y-67088347D01*
X196240000Y-65000000D01*
X201061928Y-65000000D01*
X201074188Y-65124482D01*
X201110498Y-65244180D01*
X201169463Y-65354494D01*
X201248815Y-65451185D01*
X201345506Y-65530537D01*
X201455820Y-65589502D01*
X201575518Y-65625812D01*
X201700000Y-65638072D01*
X202914250Y-65635000D01*
X203073000Y-65476250D01*
X203073000Y-63627000D01*
X203327000Y-63627000D01*
X203327000Y-65476250D01*
X203485750Y-65635000D01*
X204700000Y-65638072D01*
X204824482Y-65625812D01*
X204944180Y-65589502D01*
X205054494Y-65530537D01*
X205151185Y-65451185D01*
X205230537Y-65354494D01*
X205289502Y-65244180D01*
X205325812Y-65124482D01*
X205338072Y-65000000D01*
X205335000Y-63785750D01*
X205176250Y-63627000D01*
X203327000Y-63627000D01*
X203073000Y-63627000D01*
X201223750Y-63627000D01*
X201065000Y-63785750D01*
X201061928Y-65000000D01*
X196240000Y-65000000D01*
X196240000Y-62000000D01*
X201061928Y-62000000D01*
X201065000Y-63214250D01*
X201223750Y-63373000D01*
X203073000Y-63373000D01*
X203073000Y-61523750D01*
X203327000Y-61523750D01*
X203327000Y-63373000D01*
X205176250Y-63373000D01*
X205335000Y-63214250D01*
X205338072Y-62000000D01*
X205325812Y-61875518D01*
X205289502Y-61755820D01*
X205230537Y-61645506D01*
X205151185Y-61548815D01*
X205054494Y-61469463D01*
X204944180Y-61410498D01*
X204824482Y-61374188D01*
X204700000Y-61361928D01*
X203485750Y-61365000D01*
X203327000Y-61523750D01*
X203073000Y-61523750D01*
X202914250Y-61365000D01*
X201700000Y-61361928D01*
X201575518Y-61374188D01*
X201455820Y-61410498D01*
X201345506Y-61469463D01*
X201248815Y-61548815D01*
X201169463Y-61645506D01*
X201110498Y-61755820D01*
X201074188Y-61875518D01*
X201061928Y-62000000D01*
X196240000Y-62000000D01*
X196240000Y-59911653D01*
X201887952Y-59911653D01*
X202043962Y-60227214D01*
X202418745Y-60418020D01*
X202823551Y-60532044D01*
X203242824Y-60564902D01*
X203660451Y-60515334D01*
X204060383Y-60385243D01*
X204356038Y-60227214D01*
X204512048Y-59911653D01*
X203200000Y-58599605D01*
X201887952Y-59911653D01*
X196240000Y-59911653D01*
X196240000Y-58693380D01*
X196470556Y-58462824D01*
X201055098Y-58462824D01*
X201104666Y-58880451D01*
X201234757Y-59280383D01*
X201392786Y-59576038D01*
X201708347Y-59732048D01*
X203020395Y-58420000D01*
X203379605Y-58420000D01*
X204691653Y-59732048D01*
X205007214Y-59576038D01*
X205198020Y-59201255D01*
X205312044Y-58796449D01*
X205344902Y-58377176D01*
X205295334Y-57959549D01*
X205165243Y-57559617D01*
X205007214Y-57263962D01*
X204691653Y-57107952D01*
X203379605Y-58420000D01*
X203020395Y-58420000D01*
X201708347Y-57107952D01*
X201392786Y-57263962D01*
X201201980Y-57638745D01*
X201087956Y-58043551D01*
X201055098Y-58462824D01*
X196470556Y-58462824D01*
X198005033Y-56928347D01*
X201887952Y-56928347D01*
X203200000Y-58240395D01*
X204512048Y-56928347D01*
X204356038Y-56612786D01*
X203981255Y-56421980D01*
X203576449Y-56307956D01*
X203157176Y-56275098D01*
X202739549Y-56324666D01*
X202339617Y-56454757D01*
X202043962Y-56612786D01*
X201887952Y-56928347D01*
X198005033Y-56928347D01*
X198926381Y-56007000D01*
X206350000Y-56007000D01*
X206350001Y-96393000D01*
X206350001Y-96393000D02*
X206350000Y-56007000D01*
G04 #@! TA.AperFunction,Conductor*
G36*
X206350001Y-96393000D02*
G01*
X198926381Y-96393000D01*
X198013381Y-95480000D01*
X201061928Y-95480000D01*
X201074188Y-95604482D01*
X201110498Y-95724180D01*
X201169463Y-95834494D01*
X201248815Y-95931185D01*
X201345506Y-96010537D01*
X201455820Y-96069502D01*
X201575518Y-96105812D01*
X201700000Y-96118072D01*
X202914250Y-96115000D01*
X203073000Y-95956250D01*
X203073000Y-94107000D01*
X203327000Y-94107000D01*
X203327000Y-95956250D01*
X203485750Y-96115000D01*
X204700000Y-96118072D01*
X204824482Y-96105812D01*
X204944180Y-96069502D01*
X205054494Y-96010537D01*
X205151185Y-95931185D01*
X205230537Y-95834494D01*
X205289502Y-95724180D01*
X205325812Y-95604482D01*
X205338072Y-95480000D01*
X205335000Y-94265750D01*
X205176250Y-94107000D01*
X203327000Y-94107000D01*
X203073000Y-94107000D01*
X201223750Y-94107000D01*
X201065000Y-94265750D01*
X201061928Y-95480000D01*
X198013381Y-95480000D01*
X196240000Y-93706620D01*
X196240000Y-92480000D01*
X201061928Y-92480000D01*
X201065000Y-93694250D01*
X201223750Y-93853000D01*
X203073000Y-93853000D01*
X203073000Y-92003750D01*
X203327000Y-92003750D01*
X203327000Y-93853000D01*
X205176250Y-93853000D01*
X205335000Y-93694250D01*
X205338072Y-92480000D01*
X205325812Y-92355518D01*
X205289502Y-92235820D01*
X205230537Y-92125506D01*
X205151185Y-92028815D01*
X205054494Y-91949463D01*
X204944180Y-91890498D01*
X204824482Y-91854188D01*
X204700000Y-91841928D01*
X203485750Y-91845000D01*
X203327000Y-92003750D01*
X203073000Y-92003750D01*
X202914250Y-91845000D01*
X201700000Y-91841928D01*
X201575518Y-91854188D01*
X201455820Y-91890498D01*
X201345506Y-91949463D01*
X201248815Y-92028815D01*
X201169463Y-92125506D01*
X201110498Y-92235820D01*
X201074188Y-92355518D01*
X201061928Y-92480000D01*
X196240000Y-92480000D01*
X196240000Y-90391653D01*
X201887952Y-90391653D01*
X202043962Y-90707214D01*
X202418745Y-90898020D01*
X202823551Y-91012044D01*
X203242824Y-91044902D01*
X203660451Y-90995334D01*
X204060383Y-90865243D01*
X204356038Y-90707214D01*
X204512048Y-90391653D01*
X203200000Y-89079605D01*
X201887952Y-90391653D01*
X196240000Y-90391653D01*
X196240000Y-88942824D01*
X201055098Y-88942824D01*
X201104666Y-89360451D01*
X201234757Y-89760383D01*
X201392786Y-90056038D01*
X201708347Y-90212048D01*
X203020395Y-88900000D01*
X203379605Y-88900000D01*
X204691653Y-90212048D01*
X205007214Y-90056038D01*
X205198020Y-89681255D01*
X205312044Y-89276449D01*
X205344902Y-88857176D01*
X205295334Y-88439549D01*
X205165243Y-88039617D01*
X205007214Y-87743962D01*
X204691653Y-87587952D01*
X203379605Y-88900000D01*
X203020395Y-88900000D01*
X201708347Y-87587952D01*
X201392786Y-87743962D01*
X201201980Y-88118745D01*
X201087956Y-88523551D01*
X201055098Y-88942824D01*
X196240000Y-88942824D01*
X196240000Y-87408347D01*
X201887952Y-87408347D01*
X203200000Y-88720395D01*
X204512048Y-87408347D01*
X204356038Y-87092786D01*
X203981255Y-86901980D01*
X203576449Y-86787956D01*
X203157176Y-86755098D01*
X202739549Y-86804666D01*
X202339617Y-86934757D01*
X202043962Y-87092786D01*
X201887952Y-87408347D01*
X196240000Y-87408347D01*
X196240000Y-85320000D01*
X201061928Y-85320000D01*
X201074188Y-85444482D01*
X201110498Y-85564180D01*
X201169463Y-85674494D01*
X201248815Y-85771185D01*
X201345506Y-85850537D01*
X201455820Y-85909502D01*
X201575518Y-85945812D01*
X201700000Y-85958072D01*
X202914250Y-85955000D01*
X203073000Y-85796250D01*
X203073000Y-83947000D01*
X203327000Y-83947000D01*
X203327000Y-85796250D01*
X203485750Y-85955000D01*
X204700000Y-85958072D01*
X204824482Y-85945812D01*
X204944180Y-85909502D01*
X205054494Y-85850537D01*
X205151185Y-85771185D01*
X205230537Y-85674494D01*
X205289502Y-85564180D01*
X205325812Y-85444482D01*
X205338072Y-85320000D01*
X205335000Y-84105750D01*
X205176250Y-83947000D01*
X203327000Y-83947000D01*
X203073000Y-83947000D01*
X201223750Y-83947000D01*
X201065000Y-84105750D01*
X201061928Y-85320000D01*
X196240000Y-85320000D01*
X196240000Y-82320000D01*
X201061928Y-82320000D01*
X201065000Y-83534250D01*
X201223750Y-83693000D01*
X203073000Y-83693000D01*
X203073000Y-81843750D01*
X203327000Y-81843750D01*
X203327000Y-83693000D01*
X205176250Y-83693000D01*
X205335000Y-83534250D01*
X205338072Y-82320000D01*
X205325812Y-82195518D01*
X205289502Y-82075820D01*
X205230537Y-81965506D01*
X205151185Y-81868815D01*
X205054494Y-81789463D01*
X204944180Y-81730498D01*
X204824482Y-81694188D01*
X204700000Y-81681928D01*
X203485750Y-81685000D01*
X203327000Y-81843750D01*
X203073000Y-81843750D01*
X202914250Y-81685000D01*
X201700000Y-81681928D01*
X201575518Y-81694188D01*
X201455820Y-81730498D01*
X201345506Y-81789463D01*
X201248815Y-81868815D01*
X201169463Y-81965506D01*
X201110498Y-82075820D01*
X201074188Y-82195518D01*
X201061928Y-82320000D01*
X196240000Y-82320000D01*
X196240000Y-80231653D01*
X201887952Y-80231653D01*
X202043962Y-80547214D01*
X202418745Y-80738020D01*
X202823551Y-80852044D01*
X203242824Y-80884902D01*
X203660451Y-80835334D01*
X204060383Y-80705243D01*
X204356038Y-80547214D01*
X204512048Y-80231653D01*
X203200000Y-78919605D01*
X201887952Y-80231653D01*
X196240000Y-80231653D01*
X196240000Y-78782824D01*
X201055098Y-78782824D01*
X201104666Y-79200451D01*
X201234757Y-79600383D01*
X201392786Y-79896038D01*
X201708347Y-80052048D01*
X203020395Y-78740000D01*
X203379605Y-78740000D01*
X204691653Y-80052048D01*
X205007214Y-79896038D01*
X205198020Y-79521255D01*
X205312044Y-79116449D01*
X205344902Y-78697176D01*
X205295334Y-78279549D01*
X205165243Y-77879617D01*
X205007214Y-77583962D01*
X204691653Y-77427952D01*
X203379605Y-78740000D01*
X203020395Y-78740000D01*
X201708347Y-77427952D01*
X201392786Y-77583962D01*
X201201980Y-77958745D01*
X201087956Y-78363551D01*
X201055098Y-78782824D01*
X196240000Y-78782824D01*
X196240000Y-77248347D01*
X201887952Y-77248347D01*
X203200000Y-78560395D01*
X204512048Y-77248347D01*
X204356038Y-76932786D01*
X203981255Y-76741980D01*
X203576449Y-76627956D01*
X203157176Y-76595098D01*
X202739549Y-76644666D01*
X202339617Y-76774757D01*
X202043962Y-76932786D01*
X201887952Y-77248347D01*
X196240000Y-77248347D01*
X196240000Y-75160000D01*
X201061928Y-75160000D01*
X201074188Y-75284482D01*
X201110498Y-75404180D01*
X201169463Y-75514494D01*
X201248815Y-75611185D01*
X201345506Y-75690537D01*
X201455820Y-75749502D01*
X201575518Y-75785812D01*
X201700000Y-75798072D01*
X202914250Y-75795000D01*
X203073000Y-75636250D01*
X203073000Y-73787000D01*
X203327000Y-73787000D01*
X203327000Y-75636250D01*
X203485750Y-75795000D01*
X204700000Y-75798072D01*
X204824482Y-75785812D01*
X204944180Y-75749502D01*
X205054494Y-75690537D01*
X205151185Y-75611185D01*
X205230537Y-75514494D01*
X205289502Y-75404180D01*
X205325812Y-75284482D01*
X205338072Y-75160000D01*
X205335000Y-73945750D01*
X205176250Y-73787000D01*
X203327000Y-73787000D01*
X203073000Y-73787000D01*
X201223750Y-73787000D01*
X201065000Y-73945750D01*
X201061928Y-75160000D01*
X196240000Y-75160000D01*
X196240000Y-72160000D01*
X201061928Y-72160000D01*
X201065000Y-73374250D01*
X201223750Y-73533000D01*
X203073000Y-73533000D01*
X203073000Y-71683750D01*
X203327000Y-71683750D01*
X203327000Y-73533000D01*
X205176250Y-73533000D01*
X205335000Y-73374250D01*
X205338072Y-72160000D01*
X205325812Y-72035518D01*
X205289502Y-71915820D01*
X205230537Y-71805506D01*
X205151185Y-71708815D01*
X205054494Y-71629463D01*
X204944180Y-71570498D01*
X204824482Y-71534188D01*
X204700000Y-71521928D01*
X203485750Y-71525000D01*
X203327000Y-71683750D01*
X203073000Y-71683750D01*
X202914250Y-71525000D01*
X201700000Y-71521928D01*
X201575518Y-71534188D01*
X201455820Y-71570498D01*
X201345506Y-71629463D01*
X201248815Y-71708815D01*
X201169463Y-71805506D01*
X201110498Y-71915820D01*
X201074188Y-72035518D01*
X201061928Y-72160000D01*
X196240000Y-72160000D01*
X196240000Y-70071653D01*
X201887952Y-70071653D01*
X202043962Y-70387214D01*
X202418745Y-70578020D01*
X202823551Y-70692044D01*
X203242824Y-70724902D01*
X203660451Y-70675334D01*
X204060383Y-70545243D01*
X204356038Y-70387214D01*
X204512048Y-70071653D01*
X203200000Y-68759605D01*
X201887952Y-70071653D01*
X196240000Y-70071653D01*
X196240000Y-68622824D01*
X201055098Y-68622824D01*
X201104666Y-69040451D01*
X201234757Y-69440383D01*
X201392786Y-69736038D01*
X201708347Y-69892048D01*
X203020395Y-68580000D01*
X203379605Y-68580000D01*
X204691653Y-69892048D01*
X205007214Y-69736038D01*
X205198020Y-69361255D01*
X205312044Y-68956449D01*
X205344902Y-68537176D01*
X205295334Y-68119549D01*
X205165243Y-67719617D01*
X205007214Y-67423962D01*
X204691653Y-67267952D01*
X203379605Y-68580000D01*
X203020395Y-68580000D01*
X201708347Y-67267952D01*
X201392786Y-67423962D01*
X201201980Y-67798745D01*
X201087956Y-68203551D01*
X201055098Y-68622824D01*
X196240000Y-68622824D01*
X196240000Y-67088347D01*
X201887952Y-67088347D01*
X203200000Y-68400395D01*
X204512048Y-67088347D01*
X204356038Y-66772786D01*
X203981255Y-66581980D01*
X203576449Y-66467956D01*
X203157176Y-66435098D01*
X202739549Y-66484666D01*
X202339617Y-66614757D01*
X202043962Y-66772786D01*
X201887952Y-67088347D01*
X196240000Y-67088347D01*
X196240000Y-65000000D01*
X201061928Y-65000000D01*
X201074188Y-65124482D01*
X201110498Y-65244180D01*
X201169463Y-65354494D01*
X201248815Y-65451185D01*
X201345506Y-65530537D01*
X201455820Y-65589502D01*
X201575518Y-65625812D01*
X201700000Y-65638072D01*
X202914250Y-65635000D01*
X203073000Y-65476250D01*
X203073000Y-63627000D01*
X203327000Y-63627000D01*
X203327000Y-65476250D01*
X203485750Y-65635000D01*
X204700000Y-65638072D01*
X204824482Y-65625812D01*
X204944180Y-65589502D01*
X205054494Y-65530537D01*
X205151185Y-65451185D01*
X205230537Y-65354494D01*
X205289502Y-65244180D01*
X205325812Y-65124482D01*
X205338072Y-65000000D01*
X205335000Y-63785750D01*
X205176250Y-63627000D01*
X203327000Y-63627000D01*
X203073000Y-63627000D01*
X201223750Y-63627000D01*
X201065000Y-63785750D01*
X201061928Y-65000000D01*
X196240000Y-65000000D01*
X196240000Y-62000000D01*
X201061928Y-62000000D01*
X201065000Y-63214250D01*
X201223750Y-63373000D01*
X203073000Y-63373000D01*
X203073000Y-61523750D01*
X203327000Y-61523750D01*
X203327000Y-63373000D01*
X205176250Y-63373000D01*
X205335000Y-63214250D01*
X205338072Y-62000000D01*
X205325812Y-61875518D01*
X205289502Y-61755820D01*
X205230537Y-61645506D01*
X205151185Y-61548815D01*
X205054494Y-61469463D01*
X204944180Y-61410498D01*
X204824482Y-61374188D01*
X204700000Y-61361928D01*
X203485750Y-61365000D01*
X203327000Y-61523750D01*
X203073000Y-61523750D01*
X202914250Y-61365000D01*
X201700000Y-61361928D01*
X201575518Y-61374188D01*
X201455820Y-61410498D01*
X201345506Y-61469463D01*
X201248815Y-61548815D01*
X201169463Y-61645506D01*
X201110498Y-61755820D01*
X201074188Y-61875518D01*
X201061928Y-62000000D01*
X196240000Y-62000000D01*
X196240000Y-59911653D01*
X201887952Y-59911653D01*
X202043962Y-60227214D01*
X202418745Y-60418020D01*
X202823551Y-60532044D01*
X203242824Y-60564902D01*
X203660451Y-60515334D01*
X204060383Y-60385243D01*
X204356038Y-60227214D01*
X204512048Y-59911653D01*
X203200000Y-58599605D01*
X201887952Y-59911653D01*
X196240000Y-59911653D01*
X196240000Y-58693380D01*
X196470556Y-58462824D01*
X201055098Y-58462824D01*
X201104666Y-58880451D01*
X201234757Y-59280383D01*
X201392786Y-59576038D01*
X201708347Y-59732048D01*
X203020395Y-58420000D01*
X203379605Y-58420000D01*
X204691653Y-59732048D01*
X205007214Y-59576038D01*
X205198020Y-59201255D01*
X205312044Y-58796449D01*
X205344902Y-58377176D01*
X205295334Y-57959549D01*
X205165243Y-57559617D01*
X205007214Y-57263962D01*
X204691653Y-57107952D01*
X203379605Y-58420000D01*
X203020395Y-58420000D01*
X201708347Y-57107952D01*
X201392786Y-57263962D01*
X201201980Y-57638745D01*
X201087956Y-58043551D01*
X201055098Y-58462824D01*
X196470556Y-58462824D01*
X198005033Y-56928347D01*
X201887952Y-56928347D01*
X203200000Y-58240395D01*
X204512048Y-56928347D01*
X204356038Y-56612786D01*
X203981255Y-56421980D01*
X203576449Y-56307956D01*
X203157176Y-56275098D01*
X202739549Y-56324666D01*
X202339617Y-56454757D01*
X202043962Y-56612786D01*
X201887952Y-56928347D01*
X198005033Y-56928347D01*
X198926381Y-56007000D01*
X206350000Y-56007000D01*
X206350001Y-96393000D01*
G37*
G04 #@! TD.AperFunction*
G04 #@! TD*
M02*
