G04 #@! TF.GenerationSoftware,KiCad,Pcbnew,6.0.9-8da3e8f707~116~ubuntu20.04.1*
G04 #@! TF.CreationDate,2023-04-19T17:37:20+00:00*
G04 #@! TF.ProjectId,LEC030001,4c454330-3330-4303-9031-2e6b69636164,rev?*
G04 #@! TF.SameCoordinates,Original*
G04 #@! TF.FileFunction,Legend,Top*
G04 #@! TF.FilePolarity,Positive*
%FSLAX46Y46*%
G04 Gerber Fmt 4.6, Leading zero omitted, Abs format (unit mm)*
G04 Created by KiCad (PCBNEW 6.0.9-8da3e8f707~116~ubuntu20.04.1) date 2023-04-19 17:37:20*
%MOMM*%
%LPD*%
G01*
G04 APERTURE LIST*
%ADD10C,0.800000*%
%ADD11C,0.120000*%
%ADD12C,0.100000*%
%ADD13C,0.150000*%
%ADD14C,0.010000*%
G04 APERTURE END LIST*
D10*
X187960000Y-58420000D02*
X185420000Y-58420000D01*
X189230000Y-59690000D02*
X187960000Y-58420000D01*
X189230000Y-83820000D02*
X185420000Y-83820000D01*
X189230000Y-88900000D02*
X185420000Y-88900000D01*
X189230000Y-73660000D02*
X185420000Y-73660000D01*
X189230000Y-63500000D02*
X185420000Y-63500000D01*
X189230000Y-78740000D02*
X185420000Y-78740000D01*
X189230000Y-68580000D02*
X185420000Y-68580000D01*
X185420000Y-93980000D02*
X186690000Y-93980000D01*
X187960000Y-93980000D02*
X189230000Y-92710000D01*
X186690000Y-93980000D02*
X187960000Y-93980000D01*
X189230000Y-92710000D02*
X189230000Y-59690000D01*
D11*
X198120000Y-100830000D02*
X187960000Y-100830000D01*
X186690000Y-48260000D02*
X186690000Y-48895000D01*
D12*
G36*
X198120000Y-52070000D02*
G01*
X187960000Y-52070000D01*
X187960000Y-46990000D01*
X198120000Y-46990000D01*
X198120000Y-52070000D01*
G37*
X198120000Y-52070000D02*
X187960000Y-52070000D01*
X187960000Y-46990000D01*
X198120000Y-46990000D01*
X198120000Y-52070000D01*
D10*
X196850000Y-88900000D02*
X200660000Y-88900000D01*
D11*
X186690000Y-100965000D02*
X186690000Y-101600000D01*
D10*
X200660000Y-63500000D02*
X196850000Y-63500000D01*
D11*
X199390000Y-102870000D02*
X199390000Y-102235000D01*
D10*
X196850000Y-78740000D02*
X200660000Y-78740000D01*
D11*
X198120000Y-104910000D02*
X198120000Y-100830000D01*
D10*
X196850000Y-92710000D02*
X196850000Y-59690000D01*
X196850000Y-59690000D02*
X198120000Y-58420000D01*
D11*
X186690000Y-49530000D02*
X186690000Y-50165000D01*
X199390000Y-101600000D02*
X199390000Y-100965000D01*
D10*
X198120000Y-58420000D02*
X200660000Y-58420000D01*
D11*
X187960000Y-104910000D02*
X198120000Y-104910000D01*
X199390000Y-104140000D02*
X199390000Y-103505000D01*
X199390000Y-49530000D02*
X199390000Y-50165000D01*
D10*
X200660000Y-93980000D02*
X198120000Y-93980000D01*
X200660000Y-83820000D02*
X196850000Y-83820000D01*
D11*
X199390000Y-48260000D02*
X199390000Y-48895000D01*
X187960000Y-100830000D02*
X187960000Y-104910000D01*
X186690000Y-103505000D02*
X186690000Y-104140000D01*
X186690000Y-50800000D02*
X186690000Y-51435000D01*
X199390000Y-50800000D02*
X199390000Y-51435000D01*
D10*
X200660000Y-73660000D02*
X196850000Y-73660000D01*
X196850000Y-68580000D02*
X200660000Y-68580000D01*
D11*
X186690000Y-102235000D02*
X186690000Y-102870000D01*
D10*
X198120000Y-93980000D02*
X196850000Y-92710000D01*
D13*
G04 #@! TO.C,J5*
X200112380Y-79073333D02*
X200826666Y-79073333D01*
X200969523Y-79120952D01*
X201064761Y-79216190D01*
X201112380Y-79359047D01*
X201112380Y-79454285D01*
X200112380Y-78120952D02*
X200112380Y-78597142D01*
X200588571Y-78644761D01*
X200540952Y-78597142D01*
X200493333Y-78501904D01*
X200493333Y-78263809D01*
X200540952Y-78168571D01*
X200588571Y-78120952D01*
X200683809Y-78073333D01*
X200921904Y-78073333D01*
X201017142Y-78120952D01*
X201064761Y-78168571D01*
X201112380Y-78263809D01*
X201112380Y-78501904D01*
X201064761Y-78597142D01*
X201017142Y-78644761D01*
G04 #@! TO.C,J6*
X200112380Y-58753333D02*
X200826666Y-58753333D01*
X200969523Y-58800952D01*
X201064761Y-58896190D01*
X201112380Y-59039047D01*
X201112380Y-59134285D01*
X200112380Y-57848571D02*
X200112380Y-58039047D01*
X200160000Y-58134285D01*
X200207619Y-58181904D01*
X200350476Y-58277142D01*
X200540952Y-58324761D01*
X200921904Y-58324761D01*
X201017142Y-58277142D01*
X201064761Y-58229523D01*
X201112380Y-58134285D01*
X201112380Y-57943809D01*
X201064761Y-57848571D01*
X201017142Y-57800952D01*
X200921904Y-57753333D01*
X200683809Y-57753333D01*
X200588571Y-57800952D01*
X200540952Y-57848571D01*
X200493333Y-57943809D01*
X200493333Y-58134285D01*
X200540952Y-58229523D01*
X200588571Y-58277142D01*
X200683809Y-58324761D01*
G04 #@! TO.C,J7*
X200112380Y-89233333D02*
X200826666Y-89233333D01*
X200969523Y-89280952D01*
X201064761Y-89376190D01*
X201112380Y-89519047D01*
X201112380Y-89614285D01*
X200112380Y-88852380D02*
X200112380Y-88185714D01*
X201112380Y-88614285D01*
G04 #@! TO.C,J8*
X200112380Y-68913333D02*
X200826666Y-68913333D01*
X200969523Y-68960952D01*
X201064761Y-69056190D01*
X201112380Y-69199047D01*
X201112380Y-69294285D01*
X200540952Y-68294285D02*
X200493333Y-68389523D01*
X200445714Y-68437142D01*
X200350476Y-68484761D01*
X200302857Y-68484761D01*
X200207619Y-68437142D01*
X200160000Y-68389523D01*
X200112380Y-68294285D01*
X200112380Y-68103809D01*
X200160000Y-68008571D01*
X200207619Y-67960952D01*
X200302857Y-67913333D01*
X200350476Y-67913333D01*
X200445714Y-67960952D01*
X200493333Y-68008571D01*
X200540952Y-68103809D01*
X200540952Y-68294285D01*
X200588571Y-68389523D01*
X200636190Y-68437142D01*
X200731428Y-68484761D01*
X200921904Y-68484761D01*
X201017142Y-68437142D01*
X201064761Y-68389523D01*
X201112380Y-68294285D01*
X201112380Y-68103809D01*
X201064761Y-68008571D01*
X201017142Y-67960952D01*
X200921904Y-67913333D01*
X200731428Y-67913333D01*
X200636190Y-67960952D01*
X200588571Y-68008571D01*
X200540952Y-68103809D01*
G04 #@! TO.C,J2*
X184872380Y-84153333D02*
X185586666Y-84153333D01*
X185729523Y-84200952D01*
X185824761Y-84296190D01*
X185872380Y-84439047D01*
X185872380Y-84534285D01*
X184967619Y-83724761D02*
X184920000Y-83677142D01*
X184872380Y-83581904D01*
X184872380Y-83343809D01*
X184920000Y-83248571D01*
X184967619Y-83200952D01*
X185062857Y-83153333D01*
X185158095Y-83153333D01*
X185300952Y-83200952D01*
X185872380Y-83772380D01*
X185872380Y-83153333D01*
G04 #@! TO.C,J1*
X184872380Y-73993333D02*
X185586666Y-73993333D01*
X185729523Y-74040952D01*
X185824761Y-74136190D01*
X185872380Y-74279047D01*
X185872380Y-74374285D01*
X185872380Y-72993333D02*
X185872380Y-73564761D01*
X185872380Y-73279047D02*
X184872380Y-73279047D01*
X185015238Y-73374285D01*
X185110476Y-73469523D01*
X185158095Y-73564761D01*
G04 #@! TO.C,J4*
X184872380Y-94313333D02*
X185586666Y-94313333D01*
X185729523Y-94360952D01*
X185824761Y-94456190D01*
X185872380Y-94599047D01*
X185872380Y-94694285D01*
X185205714Y-93408571D02*
X185872380Y-93408571D01*
X184824761Y-93646666D02*
X185539047Y-93884761D01*
X185539047Y-93265714D01*
G04 #@! TO.C,J3*
X184872380Y-63833333D02*
X185586666Y-63833333D01*
X185729523Y-63880952D01*
X185824761Y-63976190D01*
X185872380Y-64119047D01*
X185872380Y-64214285D01*
X184872380Y-63452380D02*
X184872380Y-62833333D01*
X185253333Y-63166666D01*
X185253333Y-63023809D01*
X185300952Y-62928571D01*
X185348571Y-62880952D01*
X185443809Y-62833333D01*
X185681904Y-62833333D01*
X185777142Y-62880952D01*
X185824761Y-62928571D01*
X185872380Y-63023809D01*
X185872380Y-63309523D01*
X185824761Y-63404761D01*
X185777142Y-63452380D01*
D11*
G04 #@! TO.C,H3*
X206424903Y-101600000D02*
G75*
G03*
X206424903Y-101600000I-3224903J0D01*
G01*
G36*
X201600000Y-101700000D02*
G01*
X201700000Y-102100000D01*
X201900000Y-102500000D01*
X202300000Y-102900000D01*
X202700000Y-103100000D01*
X203100000Y-103200000D01*
X203200000Y-103200000D01*
X203200000Y-104824903D01*
X202700000Y-104800000D01*
X201700000Y-104500000D01*
X200900000Y-103900000D01*
X200400000Y-103200000D01*
X200100000Y-102500000D01*
X200000000Y-102100000D01*
X200000000Y-101600000D01*
X201600000Y-101600000D01*
X201600000Y-101700000D01*
G37*
D14*
X201600000Y-101700000D02*
X201700000Y-102100000D01*
X201900000Y-102500000D01*
X202300000Y-102900000D01*
X202700000Y-103100000D01*
X203100000Y-103200000D01*
X203200000Y-103200000D01*
X203200000Y-104824903D01*
X202700000Y-104800000D01*
X201700000Y-104500000D01*
X200900000Y-103900000D01*
X200400000Y-103200000D01*
X200100000Y-102500000D01*
X200000000Y-102100000D01*
X200000000Y-101600000D01*
X201600000Y-101600000D01*
X201600000Y-101700000D01*
G36*
X203700000Y-98400000D02*
G01*
X204700000Y-98700000D01*
X205500000Y-99300000D01*
X206000000Y-100000000D01*
X206300000Y-100700000D01*
X206400000Y-101100000D01*
X206400000Y-101600000D01*
X204800000Y-101600000D01*
X204800000Y-101500000D01*
X204700000Y-101100000D01*
X204500000Y-100700000D01*
X204100000Y-100300000D01*
X203700000Y-100100000D01*
X203300000Y-100000000D01*
X203200000Y-100000000D01*
X203200000Y-98375097D01*
X203700000Y-98400000D01*
G37*
X203700000Y-98400000D02*
X204700000Y-98700000D01*
X205500000Y-99300000D01*
X206000000Y-100000000D01*
X206300000Y-100700000D01*
X206400000Y-101100000D01*
X206400000Y-101600000D01*
X204800000Y-101600000D01*
X204800000Y-101500000D01*
X204700000Y-101100000D01*
X204500000Y-100700000D01*
X204100000Y-100300000D01*
X203700000Y-100100000D01*
X203300000Y-100000000D01*
X203200000Y-100000000D01*
X203200000Y-98375097D01*
X203700000Y-98400000D01*
D11*
G04 #@! TO.C,H4*
X206424903Y-50800000D02*
G75*
G03*
X206424903Y-50800000I-3224903J0D01*
G01*
G36*
X201600000Y-50900000D02*
G01*
X201700000Y-51300000D01*
X201900000Y-51700000D01*
X202300000Y-52100000D01*
X202700000Y-52300000D01*
X203100000Y-52400000D01*
X203200000Y-52400000D01*
X203200000Y-54024903D01*
X202700000Y-54000000D01*
X201700000Y-53700000D01*
X200900000Y-53100000D01*
X200400000Y-52400000D01*
X200100000Y-51700000D01*
X200000000Y-51300000D01*
X200000000Y-50800000D01*
X201600000Y-50800000D01*
X201600000Y-50900000D01*
G37*
D14*
X201600000Y-50900000D02*
X201700000Y-51300000D01*
X201900000Y-51700000D01*
X202300000Y-52100000D01*
X202700000Y-52300000D01*
X203100000Y-52400000D01*
X203200000Y-52400000D01*
X203200000Y-54024903D01*
X202700000Y-54000000D01*
X201700000Y-53700000D01*
X200900000Y-53100000D01*
X200400000Y-52400000D01*
X200100000Y-51700000D01*
X200000000Y-51300000D01*
X200000000Y-50800000D01*
X201600000Y-50800000D01*
X201600000Y-50900000D01*
G36*
X203700000Y-47600000D02*
G01*
X204700000Y-47900000D01*
X205500000Y-48500000D01*
X206000000Y-49200000D01*
X206300000Y-49900000D01*
X206400000Y-50300000D01*
X206400000Y-50800000D01*
X204800000Y-50800000D01*
X204800000Y-50700000D01*
X204700000Y-50300000D01*
X204500000Y-49900000D01*
X204100000Y-49500000D01*
X203700000Y-49300000D01*
X203300000Y-49200000D01*
X203200000Y-49200000D01*
X203200000Y-47575097D01*
X203700000Y-47600000D01*
G37*
X203700000Y-47600000D02*
X204700000Y-47900000D01*
X205500000Y-48500000D01*
X206000000Y-49200000D01*
X206300000Y-49900000D01*
X206400000Y-50300000D01*
X206400000Y-50800000D01*
X204800000Y-50800000D01*
X204800000Y-50700000D01*
X204700000Y-50300000D01*
X204500000Y-49900000D01*
X204100000Y-49500000D01*
X203700000Y-49300000D01*
X203300000Y-49200000D01*
X203200000Y-49200000D01*
X203200000Y-47575097D01*
X203700000Y-47600000D01*
D11*
G04 #@! TO.C,J5*
X207010000Y-86360000D02*
X207010000Y-76200000D01*
X207010000Y-76200000D02*
X198890000Y-76200000D01*
X198890000Y-76200000D02*
X198890000Y-86360000D01*
X198890000Y-86360000D02*
X207010000Y-86360000D01*
X205740000Y-76200000D02*
X205740000Y-86360000D01*
G04 #@! TO.C,J6*
X207010000Y-66040000D02*
X207010000Y-55880000D01*
X205740000Y-55880000D02*
X205740000Y-66040000D01*
X198890000Y-66040000D02*
X207010000Y-66040000D01*
X207010000Y-55880000D02*
X198890000Y-55880000D01*
X198890000Y-55880000D02*
X198890000Y-66040000D01*
G04 #@! TO.C,J7*
X207010000Y-96520000D02*
X207010000Y-86360000D01*
X207010000Y-86360000D02*
X198890000Y-86360000D01*
X205740000Y-86360000D02*
X205740000Y-96520000D01*
X198890000Y-96520000D02*
X207010000Y-96520000D01*
X198890000Y-86360000D02*
X198890000Y-96520000D01*
G04 #@! TO.C,J8*
X207010000Y-76200000D02*
X207010000Y-66040000D01*
X207010000Y-66040000D02*
X198890000Y-66040000D01*
X198890000Y-66040000D02*
X198890000Y-76200000D01*
X205740000Y-66040000D02*
X205740000Y-76200000D01*
X198890000Y-76200000D02*
X207010000Y-76200000D01*
G04 #@! TO.C,J2*
X187180000Y-76180000D02*
X179070000Y-76200000D01*
X179070000Y-86360000D02*
X187180000Y-86360000D01*
X180340000Y-86360000D02*
X180340000Y-76200000D01*
X179070000Y-76200000D02*
X179070000Y-86360000D01*
X187180000Y-86360000D02*
X187180000Y-76200000D01*
G04 #@! TO.C,H2*
X186104903Y-50800000D02*
G75*
G03*
X186104903Y-50800000I-3224903J0D01*
G01*
G36*
X183380000Y-47600000D02*
G01*
X184380000Y-47900000D01*
X185180000Y-48500000D01*
X185680000Y-49200000D01*
X185980000Y-49900000D01*
X186080000Y-50300000D01*
X186080000Y-50800000D01*
X184480000Y-50800000D01*
X184480000Y-50700000D01*
X184380000Y-50300000D01*
X184180000Y-49900000D01*
X183780000Y-49500000D01*
X183380000Y-49300000D01*
X182980000Y-49200000D01*
X182880000Y-49200000D01*
X182880000Y-47575097D01*
X183380000Y-47600000D01*
G37*
D14*
X183380000Y-47600000D02*
X184380000Y-47900000D01*
X185180000Y-48500000D01*
X185680000Y-49200000D01*
X185980000Y-49900000D01*
X186080000Y-50300000D01*
X186080000Y-50800000D01*
X184480000Y-50800000D01*
X184480000Y-50700000D01*
X184380000Y-50300000D01*
X184180000Y-49900000D01*
X183780000Y-49500000D01*
X183380000Y-49300000D01*
X182980000Y-49200000D01*
X182880000Y-49200000D01*
X182880000Y-47575097D01*
X183380000Y-47600000D01*
G36*
X181280000Y-50900000D02*
G01*
X181380000Y-51300000D01*
X181580000Y-51700000D01*
X181980000Y-52100000D01*
X182380000Y-52300000D01*
X182780000Y-52400000D01*
X182880000Y-52400000D01*
X182880000Y-54024903D01*
X182380000Y-54000000D01*
X181380000Y-53700000D01*
X180580000Y-53100000D01*
X180080000Y-52400000D01*
X179780000Y-51700000D01*
X179680000Y-51300000D01*
X179680000Y-50800000D01*
X181280000Y-50800000D01*
X181280000Y-50900000D01*
G37*
X181280000Y-50900000D02*
X181380000Y-51300000D01*
X181580000Y-51700000D01*
X181980000Y-52100000D01*
X182380000Y-52300000D01*
X182780000Y-52400000D01*
X182880000Y-52400000D01*
X182880000Y-54024903D01*
X182380000Y-54000000D01*
X181380000Y-53700000D01*
X180580000Y-53100000D01*
X180080000Y-52400000D01*
X179780000Y-51700000D01*
X179680000Y-51300000D01*
X179680000Y-50800000D01*
X181280000Y-50800000D01*
X181280000Y-50900000D01*
D11*
G04 #@! TO.C,H1*
X186104903Y-101600000D02*
G75*
G03*
X186104903Y-101600000I-3224903J0D01*
G01*
G36*
X181280000Y-101700000D02*
G01*
X181380000Y-102100000D01*
X181580000Y-102500000D01*
X181980000Y-102900000D01*
X182380000Y-103100000D01*
X182780000Y-103200000D01*
X182880000Y-103200000D01*
X182880000Y-104824903D01*
X182380000Y-104800000D01*
X181380000Y-104500000D01*
X180580000Y-103900000D01*
X180080000Y-103200000D01*
X179780000Y-102500000D01*
X179680000Y-102100000D01*
X179680000Y-101600000D01*
X181280000Y-101600000D01*
X181280000Y-101700000D01*
G37*
D14*
X181280000Y-101700000D02*
X181380000Y-102100000D01*
X181580000Y-102500000D01*
X181980000Y-102900000D01*
X182380000Y-103100000D01*
X182780000Y-103200000D01*
X182880000Y-103200000D01*
X182880000Y-104824903D01*
X182380000Y-104800000D01*
X181380000Y-104500000D01*
X180580000Y-103900000D01*
X180080000Y-103200000D01*
X179780000Y-102500000D01*
X179680000Y-102100000D01*
X179680000Y-101600000D01*
X181280000Y-101600000D01*
X181280000Y-101700000D01*
G36*
X183380000Y-98400000D02*
G01*
X184380000Y-98700000D01*
X185180000Y-99300000D01*
X185680000Y-100000000D01*
X185980000Y-100700000D01*
X186080000Y-101100000D01*
X186080000Y-101600000D01*
X184480000Y-101600000D01*
X184480000Y-101500000D01*
X184380000Y-101100000D01*
X184180000Y-100700000D01*
X183780000Y-100300000D01*
X183380000Y-100100000D01*
X182980000Y-100000000D01*
X182880000Y-100000000D01*
X182880000Y-98375097D01*
X183380000Y-98400000D01*
G37*
X183380000Y-98400000D02*
X184380000Y-98700000D01*
X185180000Y-99300000D01*
X185680000Y-100000000D01*
X185980000Y-100700000D01*
X186080000Y-101100000D01*
X186080000Y-101600000D01*
X184480000Y-101600000D01*
X184480000Y-101500000D01*
X184380000Y-101100000D01*
X184180000Y-100700000D01*
X183780000Y-100300000D01*
X183380000Y-100100000D01*
X182980000Y-100000000D01*
X182880000Y-100000000D01*
X182880000Y-98375097D01*
X183380000Y-98400000D01*
D11*
G04 #@! TO.C,J1*
X179070000Y-66040000D02*
X179070000Y-76200000D01*
X187180000Y-66020000D02*
X179070000Y-66040000D01*
X180340000Y-76200000D02*
X180340000Y-66040000D01*
X179070000Y-76200000D02*
X187180000Y-76200000D01*
X187180000Y-76200000D02*
X187180000Y-66040000D01*
G04 #@! TO.C,J4*
X187180000Y-86340000D02*
X179070000Y-86360000D01*
X187180000Y-96520000D02*
X187180000Y-86360000D01*
X179070000Y-96520000D02*
X187180000Y-96520000D01*
X179070000Y-86360000D02*
X179070000Y-96520000D01*
X180340000Y-96520000D02*
X180340000Y-86360000D01*
G04 #@! TO.C,J3*
X187180000Y-66040000D02*
X187180000Y-55880000D01*
X187180000Y-55860000D02*
X179070000Y-55880000D01*
X179070000Y-55880000D02*
X179070000Y-66040000D01*
X179070000Y-66040000D02*
X187180000Y-66040000D01*
X180340000Y-66040000D02*
X180340000Y-55880000D01*
G04 #@! TO.C,kibuzzard-627E86E4*
G36*
X198176302Y-105212190D02*
G01*
X187923698Y-105212190D01*
X187923698Y-104790550D01*
X188870430Y-104790550D01*
X189611475Y-104790550D01*
X189807690Y-104790550D01*
X190563975Y-104790550D01*
X190563975Y-104596240D01*
X190042005Y-104596240D01*
X190042005Y-104264770D01*
X190459200Y-104264770D01*
X190459200Y-104200000D01*
X190691610Y-104200000D01*
X190699825Y-104339184D01*
X190724471Y-104461461D01*
X190765548Y-104566832D01*
X190823055Y-104655295D01*
X190923808Y-104744195D01*
X191050808Y-104797535D01*
X191204055Y-104815315D01*
X191308116Y-104808886D01*
X191399317Y-104789598D01*
X191533620Y-104733400D01*
X191474565Y-104548615D01*
X191378362Y-104590525D01*
X191226915Y-104611480D01*
X191090946Y-104584572D01*
X190999267Y-104503848D01*
X190960638Y-104421615D01*
X190937461Y-104318428D01*
X190929972Y-104198095D01*
X191659350Y-104198095D01*
X191665898Y-104344304D01*
X191685544Y-104470510D01*
X191718286Y-104576714D01*
X191764125Y-104662915D01*
X191844558Y-104747582D01*
X191946158Y-104798382D01*
X192068925Y-104815315D01*
X192191692Y-104798382D01*
X192287366Y-104750545D01*
X192623280Y-104750545D01*
X192682335Y-104771500D01*
X192765202Y-104792455D01*
X192858547Y-104808648D01*
X192950940Y-104815315D01*
X193060954Y-104808409D01*
X193154775Y-104787693D01*
X193232880Y-104754355D01*
X193295745Y-104709588D01*
X193377660Y-104590525D01*
X193404330Y-104440030D01*
X193391709Y-104344304D01*
X193353848Y-104262865D01*
X193293569Y-104198095D01*
X193564350Y-104198095D01*
X193570898Y-104344304D01*
X193590544Y-104470510D01*
X193623286Y-104576714D01*
X193669125Y-104662915D01*
X193749558Y-104747582D01*
X193851158Y-104798382D01*
X193973925Y-104815315D01*
X194096692Y-104798382D01*
X194198292Y-104747582D01*
X194278725Y-104662915D01*
X194324564Y-104576714D01*
X194357306Y-104470510D01*
X194376952Y-104344304D01*
X194383500Y-104198095D01*
X194516850Y-104198095D01*
X194523398Y-104344304D01*
X194543044Y-104470510D01*
X194575786Y-104576714D01*
X194621625Y-104662915D01*
X194702058Y-104747582D01*
X194803658Y-104798382D01*
X194926425Y-104815315D01*
X195049192Y-104798382D01*
X195150792Y-104747582D01*
X195231225Y-104662915D01*
X195277064Y-104576714D01*
X195309806Y-104470510D01*
X195329452Y-104344304D01*
X195336000Y-104198095D01*
X195469350Y-104198095D01*
X195475898Y-104344304D01*
X195495544Y-104470510D01*
X195528286Y-104576714D01*
X195574125Y-104662915D01*
X195654558Y-104747582D01*
X195756158Y-104798382D01*
X195878925Y-104815315D01*
X196001692Y-104798382D01*
X196103292Y-104747582D01*
X196183725Y-104662915D01*
X196229564Y-104576714D01*
X196262306Y-104470510D01*
X196281952Y-104344304D01*
X196288500Y-104198095D01*
X196281952Y-104052779D01*
X196262306Y-103927347D01*
X196240515Y-103857100D01*
X196446615Y-103857100D01*
X196522815Y-104051410D01*
X196639020Y-104004737D01*
X196760940Y-103937110D01*
X196760940Y-104596240D01*
X196513290Y-104596240D01*
X196513290Y-104790550D01*
X197229570Y-104790550D01*
X197229570Y-104596240D01*
X196995255Y-104596240D01*
X196995255Y-103611355D01*
X196835235Y-103611355D01*
X196753320Y-103685650D01*
X196652355Y-103754230D01*
X196545675Y-103813285D01*
X196446615Y-103857100D01*
X196240515Y-103857100D01*
X196229564Y-103821798D01*
X196183725Y-103736132D01*
X196103292Y-103651995D01*
X196001692Y-103601512D01*
X195878925Y-103584685D01*
X195758063Y-103601618D01*
X195657098Y-103652418D01*
X195576030Y-103737085D01*
X195529358Y-103823048D01*
X195496020Y-103928537D01*
X195476018Y-104053553D01*
X195469350Y-104198095D01*
X195336000Y-104198095D01*
X195329452Y-104052779D01*
X195309806Y-103927347D01*
X195277064Y-103821798D01*
X195231225Y-103736132D01*
X195150792Y-103651995D01*
X195049192Y-103601512D01*
X194926425Y-103584685D01*
X194805563Y-103601618D01*
X194704598Y-103652418D01*
X194623530Y-103737085D01*
X194576858Y-103823048D01*
X194543520Y-103928537D01*
X194523518Y-104053553D01*
X194516850Y-104198095D01*
X194383500Y-104198095D01*
X194376952Y-104052779D01*
X194357306Y-103927347D01*
X194324564Y-103821798D01*
X194278725Y-103736132D01*
X194198292Y-103651995D01*
X194096692Y-103601512D01*
X193973925Y-103584685D01*
X193853063Y-103601618D01*
X193752098Y-103652418D01*
X193671030Y-103737085D01*
X193624358Y-103823048D01*
X193591020Y-103928537D01*
X193571018Y-104053553D01*
X193564350Y-104198095D01*
X193293569Y-104198095D01*
X193293126Y-104197619D01*
X193211925Y-104150470D01*
X193318605Y-104051410D01*
X193358610Y-103916155D01*
X193335750Y-103784710D01*
X193265265Y-103678982D01*
X193144298Y-103609450D01*
X193064526Y-103590876D01*
X192971895Y-103584685D01*
X192870692Y-103593496D01*
X192780442Y-103619927D01*
X192644235Y-103689460D01*
X192728055Y-103860910D01*
X192841402Y-103806617D01*
X192973800Y-103784710D01*
X193081433Y-103821857D01*
X193120485Y-103923775D01*
X193102388Y-103996165D01*
X193055715Y-104041885D01*
X192990945Y-104066650D01*
X192918555Y-104074270D01*
X192830925Y-104074270D01*
X192830925Y-104268580D01*
X192903315Y-104268580D01*
X193007614Y-104277867D01*
X193091910Y-104305728D01*
X193147631Y-104356924D01*
X193166205Y-104436220D01*
X193117628Y-104563855D01*
X193051191Y-104602431D01*
X192949035Y-104615290D01*
X192858786Y-104610051D01*
X192782347Y-104594335D01*
X192669000Y-104554330D01*
X192623280Y-104750545D01*
X192287366Y-104750545D01*
X192293292Y-104747582D01*
X192373725Y-104662915D01*
X192419564Y-104576714D01*
X192452306Y-104470510D01*
X192471952Y-104344304D01*
X192478500Y-104198095D01*
X192471952Y-104052779D01*
X192452306Y-103927347D01*
X192419564Y-103821798D01*
X192373725Y-103736132D01*
X192293292Y-103651995D01*
X192191692Y-103601512D01*
X192068925Y-103584685D01*
X191948063Y-103601618D01*
X191847098Y-103652418D01*
X191766030Y-103737085D01*
X191719357Y-103823048D01*
X191686020Y-103928537D01*
X191666017Y-104053553D01*
X191659350Y-104198095D01*
X190929972Y-104198095D01*
X190929735Y-104194285D01*
X190936164Y-104087605D01*
X190955452Y-103999975D01*
X191022127Y-103875197D01*
X191115472Y-103808522D01*
X191223105Y-103788520D01*
X191365027Y-103808522D01*
X191470755Y-103857100D01*
X191531715Y-103670410D01*
X191492662Y-103647550D01*
X191428845Y-103618975D01*
X191340262Y-103595162D01*
X191226915Y-103584685D01*
X191115234Y-103594924D01*
X191012602Y-103625642D01*
X190921162Y-103676125D01*
X190843057Y-103745657D01*
X190779478Y-103833526D01*
X190731615Y-103939015D01*
X190701611Y-104061411D01*
X190691610Y-104200000D01*
X190459200Y-104200000D01*
X190459200Y-104070460D01*
X190042005Y-104070460D01*
X190042005Y-103805665D01*
X190522065Y-103805665D01*
X190522065Y-103611355D01*
X189807690Y-103611355D01*
X189807690Y-104790550D01*
X189611475Y-104790550D01*
X189611475Y-104596240D01*
X189106650Y-104596240D01*
X189106650Y-103611355D01*
X188870430Y-103611355D01*
X188870430Y-104790550D01*
X187923698Y-104790550D01*
X187923698Y-103187810D01*
X198176302Y-103187810D01*
X198176302Y-105212190D01*
G37*
G36*
X196071436Y-104323084D02*
G01*
X196054608Y-104426272D01*
X196026563Y-104507658D01*
X195964412Y-104586953D01*
X195878925Y-104613385D01*
X195794629Y-104586953D01*
X195732240Y-104507658D01*
X195703665Y-104426272D01*
X195686520Y-104323084D01*
X195680805Y-104198095D01*
X195681683Y-104179045D01*
X195774150Y-104179045D01*
X195802725Y-104267628D01*
X195880830Y-104304775D01*
X195956078Y-104267628D01*
X195985605Y-104179045D01*
X195956078Y-104089510D01*
X195880830Y-104051410D01*
X195802725Y-104089510D01*
X195774150Y-104179045D01*
X195681683Y-104179045D01*
X195686520Y-104074164D01*
X195703665Y-103971612D01*
X195732240Y-103890437D01*
X195794629Y-103811142D01*
X195878925Y-103784710D01*
X195964412Y-103811142D01*
X196026563Y-103890437D01*
X196054608Y-103971612D01*
X196071436Y-104074164D01*
X196077045Y-104198095D01*
X196071436Y-104323084D01*
G37*
G36*
X195118936Y-104323084D02*
G01*
X195102108Y-104426272D01*
X195074062Y-104507658D01*
X195011912Y-104586953D01*
X194926425Y-104613385D01*
X194842129Y-104586953D01*
X194779740Y-104507658D01*
X194751165Y-104426272D01*
X194734020Y-104323084D01*
X194728305Y-104198095D01*
X194729183Y-104179045D01*
X194821650Y-104179045D01*
X194850225Y-104267628D01*
X194928330Y-104304775D01*
X195003578Y-104267628D01*
X195033105Y-104179045D01*
X195003578Y-104089510D01*
X194928330Y-104051410D01*
X194850225Y-104089510D01*
X194821650Y-104179045D01*
X194729183Y-104179045D01*
X194734020Y-104074164D01*
X194751165Y-103971612D01*
X194779740Y-103890437D01*
X194842129Y-103811142D01*
X194926425Y-103784710D01*
X195011912Y-103811142D01*
X195074062Y-103890437D01*
X195102108Y-103971612D01*
X195118936Y-104074164D01*
X195124545Y-104198095D01*
X195118936Y-104323084D01*
G37*
G36*
X194166436Y-104323084D02*
G01*
X194149608Y-104426272D01*
X194121563Y-104507658D01*
X194059412Y-104586953D01*
X193973925Y-104613385D01*
X193889629Y-104586953D01*
X193827240Y-104507658D01*
X193798665Y-104426272D01*
X193781520Y-104323084D01*
X193775805Y-104198095D01*
X193776683Y-104179045D01*
X193869150Y-104179045D01*
X193897725Y-104267628D01*
X193975830Y-104304775D01*
X194051078Y-104267628D01*
X194080605Y-104179045D01*
X194051078Y-104089510D01*
X193975830Y-104051410D01*
X193897725Y-104089510D01*
X193869150Y-104179045D01*
X193776683Y-104179045D01*
X193781520Y-104074164D01*
X193798665Y-103971612D01*
X193827240Y-103890437D01*
X193889629Y-103811142D01*
X193973925Y-103784710D01*
X194059412Y-103811142D01*
X194121563Y-103890437D01*
X194149608Y-103971612D01*
X194166436Y-104074164D01*
X194172045Y-104198095D01*
X194166436Y-104323084D01*
G37*
G36*
X192261436Y-104323084D02*
G01*
X192244608Y-104426272D01*
X192216562Y-104507658D01*
X192154412Y-104586953D01*
X192068925Y-104613385D01*
X191984629Y-104586953D01*
X191922240Y-104507658D01*
X191893665Y-104426272D01*
X191876520Y-104323084D01*
X191870805Y-104198095D01*
X191871683Y-104179045D01*
X191964150Y-104179045D01*
X191992725Y-104267628D01*
X192070830Y-104304775D01*
X192146077Y-104267628D01*
X192175605Y-104179045D01*
X192146077Y-104089510D01*
X192070830Y-104051410D01*
X191992725Y-104089510D01*
X191964150Y-104179045D01*
X191871683Y-104179045D01*
X191876520Y-104074164D01*
X191893665Y-103971612D01*
X191922240Y-103890437D01*
X191984629Y-103811142D01*
X192068925Y-103784710D01*
X192154412Y-103811142D01*
X192216562Y-103890437D01*
X192244608Y-103971612D01*
X192261436Y-104074164D01*
X192267045Y-104198095D01*
X192261436Y-104323084D01*
G37*
G04 #@! TD*
M02*
