G04 #@! TF.GenerationSoftware,KiCad,Pcbnew,6.0.9-8da3e8f707~116~ubuntu20.04.1*
G04 #@! TF.CreationDate,2023-04-19T17:37:20+00:00*
G04 #@! TF.ProjectId,LEC030001,4c454330-3330-4303-9031-2e6b69636164,rev?*
G04 #@! TF.SameCoordinates,Original*
G04 #@! TF.FileFunction,Soldermask,Top*
G04 #@! TF.FilePolarity,Negative*
%FSLAX46Y46*%
G04 Gerber Fmt 4.6, Leading zero omitted, Abs format (unit mm)*
G04 Created by KiCad (PCBNEW 6.0.9-8da3e8f707~116~ubuntu20.04.1) date 2023-04-19 17:37:20*
%MOMM*%
%LPD*%
G01*
G04 APERTURE LIST*
%ADD10C,0.010000*%
%ADD11C,3.200000*%
%ADD12R,3.000000X3.000000*%
%ADD13C,3.000000*%
G04 APERTURE END LIST*
G04 #@! TO.C,LOGO1*
G36*
X194990720Y-101495480D02*
G01*
X193621660Y-101495480D01*
X193621660Y-101274500D01*
X194990720Y-101274500D01*
X194990720Y-101495480D01*
G37*
D10*
X194990720Y-101495480D02*
X193621660Y-101495480D01*
X193621660Y-101274500D01*
X194990720Y-101274500D01*
X194990720Y-101495480D01*
G36*
X191358520Y-102209220D02*
G01*
X190599060Y-102209220D01*
X190599060Y-102552120D01*
X190378080Y-102552120D01*
X190378080Y-101985700D01*
X191358520Y-101985700D01*
X191358520Y-102209220D01*
G37*
X191358520Y-102209220D02*
X190599060Y-102209220D01*
X190599060Y-102552120D01*
X190378080Y-102552120D01*
X190378080Y-101985700D01*
X191358520Y-101985700D01*
X191358520Y-102209220D01*
G36*
X195658740Y-102945820D02*
G01*
X195437760Y-102945820D01*
X195437760Y-101274500D01*
X195658740Y-101274500D01*
X195658740Y-102945820D01*
G37*
X195658740Y-102945820D02*
X195437760Y-102945820D01*
X195437760Y-101274500D01*
X195658740Y-101274500D01*
X195658740Y-102945820D01*
G36*
X196300968Y-101274500D02*
G01*
X196506269Y-101557044D01*
X196530799Y-101590835D01*
X196554493Y-101623537D01*
X196577180Y-101654909D01*
X196598689Y-101684714D01*
X196618848Y-101712711D01*
X196637487Y-101738663D01*
X196654435Y-101762329D01*
X196669520Y-101783470D01*
X196682571Y-101801848D01*
X196693418Y-101817223D01*
X196701889Y-101829356D01*
X196707814Y-101838009D01*
X196711021Y-101842942D01*
X196711570Y-101844021D01*
X196710129Y-101847001D01*
X196706077Y-101853439D01*
X196699817Y-101862779D01*
X196691755Y-101874461D01*
X196682293Y-101887928D01*
X196671838Y-101902622D01*
X196660793Y-101917984D01*
X196649562Y-101933457D01*
X196638551Y-101948483D01*
X196628162Y-101962504D01*
X196618801Y-101974962D01*
X196610872Y-101985298D01*
X196604779Y-101992955D01*
X196600927Y-101997375D01*
X196599810Y-101998247D01*
X196598071Y-101996223D01*
X196593504Y-101990295D01*
X196586264Y-101980671D01*
X196576502Y-101967561D01*
X196564373Y-101951174D01*
X196550029Y-101931719D01*
X196533625Y-101909405D01*
X196515313Y-101884442D01*
X196495247Y-101857037D01*
X196473579Y-101827402D01*
X196450465Y-101795743D01*
X196426056Y-101762272D01*
X196400506Y-101727196D01*
X196373968Y-101690724D01*
X196346596Y-101653067D01*
X196338190Y-101641493D01*
X196310558Y-101603445D01*
X196283707Y-101566468D01*
X196257789Y-101530772D01*
X196232960Y-101496572D01*
X196209374Y-101464081D01*
X196187186Y-101433511D01*
X196166549Y-101405075D01*
X196147618Y-101378985D01*
X196130548Y-101355456D01*
X196115493Y-101334699D01*
X196102608Y-101316927D01*
X196092047Y-101302354D01*
X196083964Y-101291192D01*
X196078514Y-101283654D01*
X196075851Y-101279952D01*
X196075625Y-101279630D01*
X196074877Y-101278417D01*
X196074715Y-101277412D01*
X196075563Y-101276595D01*
X196077844Y-101275947D01*
X196081981Y-101275449D01*
X196088399Y-101275081D01*
X196097522Y-101274823D01*
X196109772Y-101274655D01*
X196125573Y-101274559D01*
X196145349Y-101274514D01*
X196169525Y-101274500D01*
X196186554Y-101274499D01*
X196300968Y-101274500D01*
G37*
X196300968Y-101274500D02*
X196506269Y-101557044D01*
X196530799Y-101590835D01*
X196554493Y-101623537D01*
X196577180Y-101654909D01*
X196598689Y-101684714D01*
X196618848Y-101712711D01*
X196637487Y-101738663D01*
X196654435Y-101762329D01*
X196669520Y-101783470D01*
X196682571Y-101801848D01*
X196693418Y-101817223D01*
X196701889Y-101829356D01*
X196707814Y-101838009D01*
X196711021Y-101842942D01*
X196711570Y-101844021D01*
X196710129Y-101847001D01*
X196706077Y-101853439D01*
X196699817Y-101862779D01*
X196691755Y-101874461D01*
X196682293Y-101887928D01*
X196671838Y-101902622D01*
X196660793Y-101917984D01*
X196649562Y-101933457D01*
X196638551Y-101948483D01*
X196628162Y-101962504D01*
X196618801Y-101974962D01*
X196610872Y-101985298D01*
X196604779Y-101992955D01*
X196600927Y-101997375D01*
X196599810Y-101998247D01*
X196598071Y-101996223D01*
X196593504Y-101990295D01*
X196586264Y-101980671D01*
X196576502Y-101967561D01*
X196564373Y-101951174D01*
X196550029Y-101931719D01*
X196533625Y-101909405D01*
X196515313Y-101884442D01*
X196495247Y-101857037D01*
X196473579Y-101827402D01*
X196450465Y-101795743D01*
X196426056Y-101762272D01*
X196400506Y-101727196D01*
X196373968Y-101690724D01*
X196346596Y-101653067D01*
X196338190Y-101641493D01*
X196310558Y-101603445D01*
X196283707Y-101566468D01*
X196257789Y-101530772D01*
X196232960Y-101496572D01*
X196209374Y-101464081D01*
X196187186Y-101433511D01*
X196166549Y-101405075D01*
X196147618Y-101378985D01*
X196130548Y-101355456D01*
X196115493Y-101334699D01*
X196102608Y-101316927D01*
X196092047Y-101302354D01*
X196083964Y-101291192D01*
X196078514Y-101283654D01*
X196075851Y-101279952D01*
X196075625Y-101279630D01*
X196074877Y-101278417D01*
X196074715Y-101277412D01*
X196075563Y-101276595D01*
X196077844Y-101275947D01*
X196081981Y-101275449D01*
X196088399Y-101275081D01*
X196097522Y-101274823D01*
X196109772Y-101274655D01*
X196125573Y-101274559D01*
X196145349Y-101274514D01*
X196169525Y-101274500D01*
X196186554Y-101274499D01*
X196300968Y-101274500D01*
G36*
X192098402Y-102235255D02*
G01*
X192103120Y-102284642D01*
X192112714Y-102333391D01*
X192126988Y-102381126D01*
X192145743Y-102427472D01*
X192168784Y-102472055D01*
X192195913Y-102514500D01*
X192226933Y-102554432D01*
X192261648Y-102591476D01*
X192299860Y-102625258D01*
X192305940Y-102630066D01*
X192346038Y-102658193D01*
X192389345Y-102682754D01*
X192435214Y-102703491D01*
X192482999Y-102720147D01*
X192532054Y-102732466D01*
X192581733Y-102740191D01*
X192583061Y-102740331D01*
X192604417Y-102741812D01*
X192629012Y-102742277D01*
X192655170Y-102741784D01*
X192681216Y-102740393D01*
X192705475Y-102738161D01*
X192725040Y-102735369D01*
X192775420Y-102723968D01*
X192824171Y-102708011D01*
X192870973Y-102687722D01*
X192915506Y-102663326D01*
X192957447Y-102635050D01*
X192996477Y-102603119D01*
X193032275Y-102567757D01*
X193064521Y-102529189D01*
X193092893Y-102487642D01*
X193103459Y-102469570D01*
X193107764Y-102461866D01*
X193110977Y-102456162D01*
X193112419Y-102453660D01*
X193112428Y-102453648D01*
X193114718Y-102454589D01*
X193120966Y-102457586D01*
X193130622Y-102462356D01*
X193143134Y-102468617D01*
X193157950Y-102476087D01*
X193174518Y-102484484D01*
X193192288Y-102493526D01*
X193210709Y-102502930D01*
X193229227Y-102512414D01*
X193247292Y-102521697D01*
X193264353Y-102530496D01*
X193279857Y-102538530D01*
X193293254Y-102545515D01*
X193303992Y-102551170D01*
X193311519Y-102555212D01*
X193315284Y-102557360D01*
X193315579Y-102557574D01*
X193316342Y-102559476D01*
X193315650Y-102562864D01*
X193313236Y-102568246D01*
X193308829Y-102576130D01*
X193302161Y-102587022D01*
X193292963Y-102601432D01*
X193289532Y-102606730D01*
X193253745Y-102657247D01*
X193214233Y-102704456D01*
X193171253Y-102748181D01*
X193125061Y-102788245D01*
X193075915Y-102824473D01*
X193024071Y-102856690D01*
X192969786Y-102884719D01*
X192913317Y-102908386D01*
X192854922Y-102927513D01*
X192801386Y-102940608D01*
X192780451Y-102944715D01*
X192761307Y-102947937D01*
X192742786Y-102950387D01*
X192723721Y-102952177D01*
X192702944Y-102953419D01*
X192679286Y-102954226D01*
X192655190Y-102954665D01*
X192636965Y-102954860D01*
X192620071Y-102954960D01*
X192605281Y-102954966D01*
X192593367Y-102954880D01*
X192585103Y-102954704D01*
X192581530Y-102954485D01*
X192575642Y-102953741D01*
X192566310Y-102952630D01*
X192555138Y-102951341D01*
X192549780Y-102950735D01*
X192494003Y-102942047D01*
X192438007Y-102928574D01*
X192382401Y-102910545D01*
X192327794Y-102888188D01*
X192274797Y-102861731D01*
X192224019Y-102831401D01*
X192215770Y-102825955D01*
X192185798Y-102805098D01*
X192159044Y-102784653D01*
X192133942Y-102763317D01*
X192108927Y-102739790D01*
X192093718Y-102724501D01*
X192051520Y-102677656D01*
X192013616Y-102628179D01*
X191980086Y-102576236D01*
X191951014Y-102521994D01*
X191926482Y-102465618D01*
X191906574Y-102407274D01*
X191891371Y-102347129D01*
X191883187Y-102301477D01*
X191881980Y-102292261D01*
X191880577Y-102279810D01*
X191879087Y-102265307D01*
X191877618Y-102249937D01*
X191876281Y-102234885D01*
X191875185Y-102221334D01*
X191874438Y-102210470D01*
X191874150Y-102203505D01*
X191876602Y-102203107D01*
X191883621Y-102202738D01*
X191894692Y-102202405D01*
X191909304Y-102202119D01*
X191926941Y-102201886D01*
X191947091Y-102201717D01*
X191969241Y-102201620D01*
X191985519Y-102201600D01*
X192096899Y-102201600D01*
X192098402Y-102235255D01*
G37*
X192098402Y-102235255D02*
X192103120Y-102284642D01*
X192112714Y-102333391D01*
X192126988Y-102381126D01*
X192145743Y-102427472D01*
X192168784Y-102472055D01*
X192195913Y-102514500D01*
X192226933Y-102554432D01*
X192261648Y-102591476D01*
X192299860Y-102625258D01*
X192305940Y-102630066D01*
X192346038Y-102658193D01*
X192389345Y-102682754D01*
X192435214Y-102703491D01*
X192482999Y-102720147D01*
X192532054Y-102732466D01*
X192581733Y-102740191D01*
X192583061Y-102740331D01*
X192604417Y-102741812D01*
X192629012Y-102742277D01*
X192655170Y-102741784D01*
X192681216Y-102740393D01*
X192705475Y-102738161D01*
X192725040Y-102735369D01*
X192775420Y-102723968D01*
X192824171Y-102708011D01*
X192870973Y-102687722D01*
X192915506Y-102663326D01*
X192957447Y-102635050D01*
X192996477Y-102603119D01*
X193032275Y-102567757D01*
X193064521Y-102529189D01*
X193092893Y-102487642D01*
X193103459Y-102469570D01*
X193107764Y-102461866D01*
X193110977Y-102456162D01*
X193112419Y-102453660D01*
X193112428Y-102453648D01*
X193114718Y-102454589D01*
X193120966Y-102457586D01*
X193130622Y-102462356D01*
X193143134Y-102468617D01*
X193157950Y-102476087D01*
X193174518Y-102484484D01*
X193192288Y-102493526D01*
X193210709Y-102502930D01*
X193229227Y-102512414D01*
X193247292Y-102521697D01*
X193264353Y-102530496D01*
X193279857Y-102538530D01*
X193293254Y-102545515D01*
X193303992Y-102551170D01*
X193311519Y-102555212D01*
X193315284Y-102557360D01*
X193315579Y-102557574D01*
X193316342Y-102559476D01*
X193315650Y-102562864D01*
X193313236Y-102568246D01*
X193308829Y-102576130D01*
X193302161Y-102587022D01*
X193292963Y-102601432D01*
X193289532Y-102606730D01*
X193253745Y-102657247D01*
X193214233Y-102704456D01*
X193171253Y-102748181D01*
X193125061Y-102788245D01*
X193075915Y-102824473D01*
X193024071Y-102856690D01*
X192969786Y-102884719D01*
X192913317Y-102908386D01*
X192854922Y-102927513D01*
X192801386Y-102940608D01*
X192780451Y-102944715D01*
X192761307Y-102947937D01*
X192742786Y-102950387D01*
X192723721Y-102952177D01*
X192702944Y-102953419D01*
X192679286Y-102954226D01*
X192655190Y-102954665D01*
X192636965Y-102954860D01*
X192620071Y-102954960D01*
X192605281Y-102954966D01*
X192593367Y-102954880D01*
X192585103Y-102954704D01*
X192581530Y-102954485D01*
X192575642Y-102953741D01*
X192566310Y-102952630D01*
X192555138Y-102951341D01*
X192549780Y-102950735D01*
X192494003Y-102942047D01*
X192438007Y-102928574D01*
X192382401Y-102910545D01*
X192327794Y-102888188D01*
X192274797Y-102861731D01*
X192224019Y-102831401D01*
X192215770Y-102825955D01*
X192185798Y-102805098D01*
X192159044Y-102784653D01*
X192133942Y-102763317D01*
X192108927Y-102739790D01*
X192093718Y-102724501D01*
X192051520Y-102677656D01*
X192013616Y-102628179D01*
X191980086Y-102576236D01*
X191951014Y-102521994D01*
X191926482Y-102465618D01*
X191906574Y-102407274D01*
X191891371Y-102347129D01*
X191883187Y-102301477D01*
X191881980Y-102292261D01*
X191880577Y-102279810D01*
X191879087Y-102265307D01*
X191877618Y-102249937D01*
X191876281Y-102234885D01*
X191875185Y-102221334D01*
X191874438Y-102210470D01*
X191874150Y-102203505D01*
X191876602Y-102203107D01*
X191883621Y-102202738D01*
X191894692Y-102202405D01*
X191909304Y-102202119D01*
X191926941Y-102201886D01*
X191947091Y-102201717D01*
X191969241Y-102201620D01*
X191985519Y-102201600D01*
X192096899Y-102201600D01*
X192098402Y-102235255D01*
G36*
X191472820Y-102953440D02*
G01*
X190380620Y-102953440D01*
X190380620Y-102729920D01*
X191472820Y-102729920D01*
X191472820Y-102953440D01*
G37*
X191472820Y-102953440D02*
X190380620Y-102953440D01*
X190380620Y-102729920D01*
X191472820Y-102729920D01*
X191472820Y-102953440D01*
G36*
X192666209Y-101271115D02*
G01*
X192687949Y-101271898D01*
X192706476Y-101273135D01*
X192714880Y-101274013D01*
X192776536Y-101284111D01*
X192836482Y-101298858D01*
X192894502Y-101318120D01*
X192950380Y-101341760D01*
X193003901Y-101369642D01*
X193054850Y-101401632D01*
X193103012Y-101437592D01*
X193148171Y-101477388D01*
X193190111Y-101520884D01*
X193228617Y-101567944D01*
X193263475Y-101618433D01*
X193264753Y-101620462D01*
X193270950Y-101630604D01*
X193275873Y-101639176D01*
X193279032Y-101645284D01*
X193279933Y-101648034D01*
X193279927Y-101648046D01*
X193277616Y-101649794D01*
X193271584Y-101653936D01*
X193262376Y-101660116D01*
X193250541Y-101667976D01*
X193236627Y-101677159D01*
X193221181Y-101687308D01*
X193204750Y-101698066D01*
X193187883Y-101709075D01*
X193171127Y-101719979D01*
X193155029Y-101730419D01*
X193140138Y-101740039D01*
X193127000Y-101748482D01*
X193116165Y-101755390D01*
X193108178Y-101760407D01*
X193103588Y-101763174D01*
X193102794Y-101763584D01*
X193099968Y-101762718D01*
X193095905Y-101758095D01*
X193090305Y-101749339D01*
X193087184Y-101743914D01*
X193070089Y-101716428D01*
X193049427Y-101688002D01*
X193026229Y-101659852D01*
X193001528Y-101633197D01*
X192976356Y-101609254D01*
X192964480Y-101599140D01*
X192923846Y-101569172D01*
X192880247Y-101543127D01*
X192834196Y-101521226D01*
X192786208Y-101503690D01*
X192736797Y-101490740D01*
X192696452Y-101483813D01*
X192674946Y-101481768D01*
X192650221Y-101480722D01*
X192623760Y-101480637D01*
X192597045Y-101481480D01*
X192571557Y-101483214D01*
X192548779Y-101485804D01*
X192537826Y-101487603D01*
X192487286Y-101499608D01*
X192438775Y-101516099D01*
X192392534Y-101536857D01*
X192348804Y-101561666D01*
X192307826Y-101590308D01*
X192269841Y-101622566D01*
X192235090Y-101658223D01*
X192203814Y-101697062D01*
X192176252Y-101738864D01*
X192152648Y-101783413D01*
X192133240Y-101830492D01*
X192123199Y-101861621D01*
X192112556Y-101906052D01*
X192105928Y-101952105D01*
X192103432Y-101990145D01*
X192102028Y-102031420D01*
X191881031Y-102031420D01*
X191882507Y-101986335D01*
X191886951Y-101926765D01*
X191896239Y-101868219D01*
X191910196Y-101810945D01*
X191928643Y-101755192D01*
X191951405Y-101701206D01*
X191978306Y-101649239D01*
X192009168Y-101599537D01*
X192043816Y-101552349D01*
X192082073Y-101507923D01*
X192123762Y-101466510D01*
X192168708Y-101428355D01*
X192216733Y-101393709D01*
X192267661Y-101362820D01*
X192321316Y-101335936D01*
X192354200Y-101322046D01*
X192407077Y-101303465D01*
X192461789Y-101288763D01*
X192519205Y-101277716D01*
X192534540Y-101275434D01*
X192550719Y-101273688D01*
X192570782Y-101272339D01*
X192593544Y-101271399D01*
X192617825Y-101270875D01*
X192642441Y-101270777D01*
X192666209Y-101271115D01*
G37*
X192666209Y-101271115D02*
X192687949Y-101271898D01*
X192706476Y-101273135D01*
X192714880Y-101274013D01*
X192776536Y-101284111D01*
X192836482Y-101298858D01*
X192894502Y-101318120D01*
X192950380Y-101341760D01*
X193003901Y-101369642D01*
X193054850Y-101401632D01*
X193103012Y-101437592D01*
X193148171Y-101477388D01*
X193190111Y-101520884D01*
X193228617Y-101567944D01*
X193263475Y-101618433D01*
X193264753Y-101620462D01*
X193270950Y-101630604D01*
X193275873Y-101639176D01*
X193279032Y-101645284D01*
X193279933Y-101648034D01*
X193279927Y-101648046D01*
X193277616Y-101649794D01*
X193271584Y-101653936D01*
X193262376Y-101660116D01*
X193250541Y-101667976D01*
X193236627Y-101677159D01*
X193221181Y-101687308D01*
X193204750Y-101698066D01*
X193187883Y-101709075D01*
X193171127Y-101719979D01*
X193155029Y-101730419D01*
X193140138Y-101740039D01*
X193127000Y-101748482D01*
X193116165Y-101755390D01*
X193108178Y-101760407D01*
X193103588Y-101763174D01*
X193102794Y-101763584D01*
X193099968Y-101762718D01*
X193095905Y-101758095D01*
X193090305Y-101749339D01*
X193087184Y-101743914D01*
X193070089Y-101716428D01*
X193049427Y-101688002D01*
X193026229Y-101659852D01*
X193001528Y-101633197D01*
X192976356Y-101609254D01*
X192964480Y-101599140D01*
X192923846Y-101569172D01*
X192880247Y-101543127D01*
X192834196Y-101521226D01*
X192786208Y-101503690D01*
X192736797Y-101490740D01*
X192696452Y-101483813D01*
X192674946Y-101481768D01*
X192650221Y-101480722D01*
X192623760Y-101480637D01*
X192597045Y-101481480D01*
X192571557Y-101483214D01*
X192548779Y-101485804D01*
X192537826Y-101487603D01*
X192487286Y-101499608D01*
X192438775Y-101516099D01*
X192392534Y-101536857D01*
X192348804Y-101561666D01*
X192307826Y-101590308D01*
X192269841Y-101622566D01*
X192235090Y-101658223D01*
X192203814Y-101697062D01*
X192176252Y-101738864D01*
X192152648Y-101783413D01*
X192133240Y-101830492D01*
X192123199Y-101861621D01*
X192112556Y-101906052D01*
X192105928Y-101952105D01*
X192103432Y-101990145D01*
X192102028Y-102031420D01*
X191881031Y-102031420D01*
X191882507Y-101986335D01*
X191886951Y-101926765D01*
X191896239Y-101868219D01*
X191910196Y-101810945D01*
X191928643Y-101755192D01*
X191951405Y-101701206D01*
X191978306Y-101649239D01*
X192009168Y-101599537D01*
X192043816Y-101552349D01*
X192082073Y-101507923D01*
X192123762Y-101466510D01*
X192168708Y-101428355D01*
X192216733Y-101393709D01*
X192267661Y-101362820D01*
X192321316Y-101335936D01*
X192354200Y-101322046D01*
X192407077Y-101303465D01*
X192461789Y-101288763D01*
X192519205Y-101277716D01*
X192534540Y-101275434D01*
X192550719Y-101273688D01*
X192570782Y-101272339D01*
X192593544Y-101271399D01*
X192617825Y-101270875D01*
X192642441Y-101270777D01*
X192666209Y-101271115D01*
G36*
X189928500Y-102953440D02*
G01*
X188780420Y-102953440D01*
X188780420Y-102729920D01*
X189928500Y-102729920D01*
X189928500Y-102953440D01*
G37*
X189928500Y-102953440D02*
X188780420Y-102953440D01*
X188780420Y-102729920D01*
X189928500Y-102729920D01*
X189928500Y-102953440D01*
G36*
X194411600Y-102945820D02*
G01*
X194190620Y-102945820D01*
X194190620Y-101663120D01*
X194411600Y-101663120D01*
X194411600Y-102945820D01*
G37*
X194411600Y-102945820D02*
X194190620Y-102945820D01*
X194190620Y-101663120D01*
X194411600Y-101663120D01*
X194411600Y-102945820D01*
G36*
X197416304Y-101280092D02*
G01*
X197434850Y-101280188D01*
X197548296Y-101280850D01*
X197242148Y-101699183D01*
X197212064Y-101740298D01*
X197182787Y-101780325D01*
X197154458Y-101819069D01*
X197127217Y-101856338D01*
X197101206Y-101891940D01*
X197076566Y-101925680D01*
X197053436Y-101957366D01*
X197031957Y-101986806D01*
X197012271Y-102013806D01*
X196994518Y-102038172D01*
X196978839Y-102059713D01*
X196965374Y-102078236D01*
X196954265Y-102093546D01*
X196945651Y-102105452D01*
X196939674Y-102113760D01*
X196936474Y-102118277D01*
X196935946Y-102119087D01*
X196937407Y-102121269D01*
X196941707Y-102127370D01*
X196948703Y-102137192D01*
X196958256Y-102150541D01*
X196970224Y-102167220D01*
X196984465Y-102187032D01*
X197000838Y-102209783D01*
X197019202Y-102235275D01*
X197039416Y-102263314D01*
X197061337Y-102293701D01*
X197084825Y-102326243D01*
X197109739Y-102360742D01*
X197135938Y-102397003D01*
X197163279Y-102434829D01*
X197191622Y-102474025D01*
X197220825Y-102514395D01*
X197232671Y-102530766D01*
X197262190Y-102571564D01*
X197290913Y-102611274D01*
X197318699Y-102649701D01*
X197345405Y-102686647D01*
X197370889Y-102721916D01*
X197395010Y-102755310D01*
X197417626Y-102786635D01*
X197438595Y-102815692D01*
X197457775Y-102842285D01*
X197475025Y-102866218D01*
X197490202Y-102887293D01*
X197503164Y-102905315D01*
X197513770Y-102920086D01*
X197521878Y-102931411D01*
X197527346Y-102939091D01*
X197530033Y-102942932D01*
X197530296Y-102943347D01*
X197528016Y-102943981D01*
X197520822Y-102944522D01*
X197508878Y-102944969D01*
X197492349Y-102945317D01*
X197471400Y-102945563D01*
X197446196Y-102945703D01*
X197417266Y-102945734D01*
X197303390Y-102945649D01*
X197062090Y-102611780D01*
X197035526Y-102575037D01*
X197009765Y-102539426D01*
X196984965Y-102505163D01*
X196961283Y-102472466D01*
X196938876Y-102441550D01*
X196917902Y-102412632D01*
X196898517Y-102385929D01*
X196880880Y-102361658D01*
X196865147Y-102340034D01*
X196851475Y-102321274D01*
X196840023Y-102305596D01*
X196830948Y-102293215D01*
X196824406Y-102284347D01*
X196820556Y-102279211D01*
X196819520Y-102277933D01*
X196817906Y-102279950D01*
X196813455Y-102285854D01*
X196806324Y-102295427D01*
X196796674Y-102308455D01*
X196784661Y-102324722D01*
X196770447Y-102344010D01*
X196754188Y-102366106D01*
X196736044Y-102390791D01*
X196716173Y-102417851D01*
X196694734Y-102447070D01*
X196671887Y-102478231D01*
X196647789Y-102511119D01*
X196622600Y-102545518D01*
X196596477Y-102581211D01*
X196575680Y-102609644D01*
X196548925Y-102646214D01*
X196522965Y-102681667D01*
X196497961Y-102715786D01*
X196474072Y-102748355D01*
X196451458Y-102779156D01*
X196430279Y-102807973D01*
X196410693Y-102834589D01*
X196392863Y-102858787D01*
X196376946Y-102880350D01*
X196363102Y-102899061D01*
X196351493Y-102914704D01*
X196342276Y-102927061D01*
X196335613Y-102935916D01*
X196331662Y-102941051D01*
X196330570Y-102942335D01*
X196327574Y-102942529D01*
X196320025Y-102942680D01*
X196308450Y-102942789D01*
X196293375Y-102942853D01*
X196275327Y-102942870D01*
X196254833Y-102942839D01*
X196232419Y-102942759D01*
X196215648Y-102942672D01*
X196103267Y-102942010D01*
X196709225Y-102113970D01*
X196751717Y-102055907D01*
X196793457Y-101998878D01*
X196834343Y-101943019D01*
X196874276Y-101888469D01*
X196913154Y-101835363D01*
X196950878Y-101783839D01*
X196987347Y-101734036D01*
X197022459Y-101686089D01*
X197056115Y-101640136D01*
X197088214Y-101596314D01*
X197118655Y-101554761D01*
X197147338Y-101515614D01*
X197174162Y-101479011D01*
X197199027Y-101445087D01*
X197221832Y-101413981D01*
X197242477Y-101385831D01*
X197260860Y-101360772D01*
X197276882Y-101338943D01*
X197290441Y-101320481D01*
X197301437Y-101305522D01*
X197309771Y-101294205D01*
X197315340Y-101286667D01*
X197318045Y-101283044D01*
X197318294Y-101282728D01*
X197320129Y-101281936D01*
X197324193Y-101281292D01*
X197330860Y-101280789D01*
X197340504Y-101280418D01*
X197353497Y-101280171D01*
X197370212Y-101280039D01*
X197391024Y-101280016D01*
X197416304Y-101280092D01*
G37*
X197416304Y-101280092D02*
X197434850Y-101280188D01*
X197548296Y-101280850D01*
X197242148Y-101699183D01*
X197212064Y-101740298D01*
X197182787Y-101780325D01*
X197154458Y-101819069D01*
X197127217Y-101856338D01*
X197101206Y-101891940D01*
X197076566Y-101925680D01*
X197053436Y-101957366D01*
X197031957Y-101986806D01*
X197012271Y-102013806D01*
X196994518Y-102038172D01*
X196978839Y-102059713D01*
X196965374Y-102078236D01*
X196954265Y-102093546D01*
X196945651Y-102105452D01*
X196939674Y-102113760D01*
X196936474Y-102118277D01*
X196935946Y-102119087D01*
X196937407Y-102121269D01*
X196941707Y-102127370D01*
X196948703Y-102137192D01*
X196958256Y-102150541D01*
X196970224Y-102167220D01*
X196984465Y-102187032D01*
X197000838Y-102209783D01*
X197019202Y-102235275D01*
X197039416Y-102263314D01*
X197061337Y-102293701D01*
X197084825Y-102326243D01*
X197109739Y-102360742D01*
X197135938Y-102397003D01*
X197163279Y-102434829D01*
X197191622Y-102474025D01*
X197220825Y-102514395D01*
X197232671Y-102530766D01*
X197262190Y-102571564D01*
X197290913Y-102611274D01*
X197318699Y-102649701D01*
X197345405Y-102686647D01*
X197370889Y-102721916D01*
X197395010Y-102755310D01*
X197417626Y-102786635D01*
X197438595Y-102815692D01*
X197457775Y-102842285D01*
X197475025Y-102866218D01*
X197490202Y-102887293D01*
X197503164Y-102905315D01*
X197513770Y-102920086D01*
X197521878Y-102931411D01*
X197527346Y-102939091D01*
X197530033Y-102942932D01*
X197530296Y-102943347D01*
X197528016Y-102943981D01*
X197520822Y-102944522D01*
X197508878Y-102944969D01*
X197492349Y-102945317D01*
X197471400Y-102945563D01*
X197446196Y-102945703D01*
X197417266Y-102945734D01*
X197303390Y-102945649D01*
X197062090Y-102611780D01*
X197035526Y-102575037D01*
X197009765Y-102539426D01*
X196984965Y-102505163D01*
X196961283Y-102472466D01*
X196938876Y-102441550D01*
X196917902Y-102412632D01*
X196898517Y-102385929D01*
X196880880Y-102361658D01*
X196865147Y-102340034D01*
X196851475Y-102321274D01*
X196840023Y-102305596D01*
X196830948Y-102293215D01*
X196824406Y-102284347D01*
X196820556Y-102279211D01*
X196819520Y-102277933D01*
X196817906Y-102279950D01*
X196813455Y-102285854D01*
X196806324Y-102295427D01*
X196796674Y-102308455D01*
X196784661Y-102324722D01*
X196770447Y-102344010D01*
X196754188Y-102366106D01*
X196736044Y-102390791D01*
X196716173Y-102417851D01*
X196694734Y-102447070D01*
X196671887Y-102478231D01*
X196647789Y-102511119D01*
X196622600Y-102545518D01*
X196596477Y-102581211D01*
X196575680Y-102609644D01*
X196548925Y-102646214D01*
X196522965Y-102681667D01*
X196497961Y-102715786D01*
X196474072Y-102748355D01*
X196451458Y-102779156D01*
X196430279Y-102807973D01*
X196410693Y-102834589D01*
X196392863Y-102858787D01*
X196376946Y-102880350D01*
X196363102Y-102899061D01*
X196351493Y-102914704D01*
X196342276Y-102927061D01*
X196335613Y-102935916D01*
X196331662Y-102941051D01*
X196330570Y-102942335D01*
X196327574Y-102942529D01*
X196320025Y-102942680D01*
X196308450Y-102942789D01*
X196293375Y-102942853D01*
X196275327Y-102942870D01*
X196254833Y-102942839D01*
X196232419Y-102942759D01*
X196215648Y-102942672D01*
X196103267Y-102942010D01*
X196709225Y-102113970D01*
X196751717Y-102055907D01*
X196793457Y-101998878D01*
X196834343Y-101943019D01*
X196874276Y-101888469D01*
X196913154Y-101835363D01*
X196950878Y-101783839D01*
X196987347Y-101734036D01*
X197022459Y-101686089D01*
X197056115Y-101640136D01*
X197088214Y-101596314D01*
X197118655Y-101554761D01*
X197147338Y-101515614D01*
X197174162Y-101479011D01*
X197199027Y-101445087D01*
X197221832Y-101413981D01*
X197242477Y-101385831D01*
X197260860Y-101360772D01*
X197276882Y-101338943D01*
X197290441Y-101320481D01*
X197301437Y-101305522D01*
X197309771Y-101294205D01*
X197315340Y-101286667D01*
X197318045Y-101283044D01*
X197318294Y-101282728D01*
X197320129Y-101281936D01*
X197324193Y-101281292D01*
X197330860Y-101280789D01*
X197340504Y-101280418D01*
X197353497Y-101280171D01*
X197370212Y-101280039D01*
X197391024Y-101280016D01*
X197416304Y-101280092D01*
G36*
X191472820Y-101487860D02*
G01*
X190599060Y-101487860D01*
X190599060Y-101800280D01*
X190375540Y-101800280D01*
X190375540Y-101266880D01*
X191472820Y-101266880D01*
X191472820Y-101487860D01*
G37*
X191472820Y-101487860D02*
X190599060Y-101487860D01*
X190599060Y-101800280D01*
X190375540Y-101800280D01*
X190375540Y-101266880D01*
X191472820Y-101266880D01*
X191472820Y-101487860D01*
G36*
X189001400Y-102552120D02*
G01*
X188780420Y-102552120D01*
X188780420Y-101277040D01*
X189001400Y-101277040D01*
X189001400Y-102552120D01*
G37*
X189001400Y-102552120D02*
X188780420Y-102552120D01*
X188780420Y-101277040D01*
X189001400Y-101277040D01*
X189001400Y-102552120D01*
G04 #@! TD*
D11*
G04 #@! TO.C,H3*
X203200000Y-101600000D03*
G04 #@! TD*
G04 #@! TO.C,H4*
X203200000Y-50800000D03*
G04 #@! TD*
D12*
G04 #@! TO.C,J5*
X203200000Y-83820000D03*
D13*
X203200000Y-78740000D03*
G04 #@! TD*
D12*
G04 #@! TO.C,J6*
X203200000Y-63500000D03*
D13*
X203200000Y-58420000D03*
G04 #@! TD*
D12*
G04 #@! TO.C,J7*
X203200000Y-93980000D03*
D13*
X203200000Y-88900000D03*
G04 #@! TD*
D12*
G04 #@! TO.C,J8*
X203200000Y-73660000D03*
D13*
X203200000Y-68580000D03*
G04 #@! TD*
D12*
G04 #@! TO.C,J2*
X182880000Y-78740000D03*
D13*
X182880000Y-83820000D03*
G04 #@! TD*
D11*
G04 #@! TO.C,H2*
X182880000Y-50800000D03*
G04 #@! TD*
G04 #@! TO.C,H1*
X182880000Y-101600000D03*
G04 #@! TD*
D12*
G04 #@! TO.C,J1*
X182880000Y-68580000D03*
D13*
X182880000Y-73660000D03*
G04 #@! TD*
D12*
G04 #@! TO.C,J4*
X182880000Y-88900000D03*
D13*
X182880000Y-93980000D03*
G04 #@! TD*
D12*
G04 #@! TO.C,J3*
X182880000Y-58420000D03*
D13*
X182880000Y-63500000D03*
G04 #@! TD*
M02*
