M48
; DRILL file {KiCad 6.0.9-8da3e8f707~116~ubuntu20.04.1} date Wed Apr 19 17:37:20 2023
; FORMAT={-:-/ absolute / metric / decimal}
; #@! TF.CreationDate,2023-04-19T17:37:20+00:00
; #@! TF.GenerationSoftware,Kicad,Pcbnew,6.0.9-8da3e8f707~116~ubuntu20.04.1
; #@! TF.FileFunction,MixedPlating,1,2
FMAT,2
METRIC
; #@! TA.AperFunction,Plated,PTH,ComponentDrill
T1C1.520
; #@! TA.AperFunction,NonPlated,NPTH,ComponentDrill
T2C3.200
%
G90
G05
T1
X182.88Y-58.42
X182.88Y-63.5
X182.88Y-68.58
X182.88Y-73.66
X182.88Y-78.74
X182.88Y-83.82
X182.88Y-88.9
X182.88Y-93.98
X203.2Y-58.42
X203.2Y-63.5
X203.2Y-68.58
X203.2Y-73.66
X203.2Y-78.74
X203.2Y-83.82
X203.2Y-88.9
X203.2Y-93.98
T2
X182.88Y-50.8
X182.88Y-101.6
X203.2Y-50.8
X203.2Y-101.6
T0
M30
