G04 #@! TF.GenerationSoftware,KiCad,Pcbnew,6.0.9-8da3e8f707~116~ubuntu20.04.1*
G04 #@! TF.CreationDate,2023-04-19T17:37:20+00:00*
G04 #@! TF.ProjectId,LEC030001,4c454330-3330-4303-9031-2e6b69636164,rev?*
G04 #@! TF.SameCoordinates,Original*
G04 #@! TF.FileFunction,Copper,L2,Bot*
G04 #@! TF.FilePolarity,Positive*
%FSLAX46Y46*%
G04 Gerber Fmt 4.6, Leading zero omitted, Abs format (unit mm)*
G04 Created by KiCad (PCBNEW 6.0.9-8da3e8f707~116~ubuntu20.04.1) date 2023-04-19 17:37:20*
%MOMM*%
%LPD*%
G01*
G04 APERTURE LIST*
G04 #@! TA.AperFunction,ComponentPad*
%ADD10R,3.000000X3.000000*%
G04 #@! TD*
G04 #@! TA.AperFunction,ComponentPad*
%ADD11C,3.000000*%
G04 #@! TD*
G04 #@! TA.AperFunction,Conductor*
%ADD12C,0.254000*%
G04 #@! TD*
G04 APERTURE END LIST*
D10*
G04 #@! TO.P,J5,1*
G04 #@! TO.N,/blue*
X203200000Y-83820000D03*
D11*
G04 #@! TO.P,J5,2*
X203200000Y-78740000D03*
G04 #@! TD*
D10*
G04 #@! TO.P,J6,1*
G04 #@! TO.N,/blue*
X203200000Y-63500000D03*
D11*
G04 #@! TO.P,J6,2*
X203200000Y-58420000D03*
G04 #@! TD*
D10*
G04 #@! TO.P,J7,1*
G04 #@! TO.N,/blue*
X203200000Y-93980000D03*
D11*
G04 #@! TO.P,J7,2*
X203200000Y-88900000D03*
G04 #@! TD*
D10*
G04 #@! TO.P,J8,1*
G04 #@! TO.N,/blue*
X203200000Y-73660000D03*
D11*
G04 #@! TO.P,J8,2*
X203200000Y-68580000D03*
G04 #@! TD*
D10*
G04 #@! TO.P,J2,1*
G04 #@! TO.N,/green*
X182880000Y-78740000D03*
D11*
G04 #@! TO.P,J2,2*
X182880000Y-83820000D03*
G04 #@! TD*
D10*
G04 #@! TO.P,J1,1*
G04 #@! TO.N,/green*
X182880000Y-68580000D03*
D11*
G04 #@! TO.P,J1,2*
X182880000Y-73660000D03*
G04 #@! TD*
D10*
G04 #@! TO.P,J4,1*
G04 #@! TO.N,/green*
X182880000Y-88900000D03*
D11*
G04 #@! TO.P,J4,2*
X182880000Y-93980000D03*
G04 #@! TD*
D10*
G04 #@! TO.P,J3,1*
G04 #@! TO.N,/green*
X182880000Y-58420000D03*
D11*
G04 #@! TO.P,J3,2*
X182880000Y-63500000D03*
G04 #@! TD*
G04 #@! TO.N,/blue*
D12*
X206350001Y-96393000D02*
X198926381Y-96393000D01*
X198013381Y-95480000D01*
X201061928Y-95480000D01*
X201074188Y-95604482D01*
X201110498Y-95724180D01*
X201169463Y-95834494D01*
X201248815Y-95931185D01*
X201345506Y-96010537D01*
X201455820Y-96069502D01*
X201575518Y-96105812D01*
X201700000Y-96118072D01*
X202914250Y-96115000D01*
X203073000Y-95956250D01*
X203073000Y-94107000D01*
X203327000Y-94107000D01*
X203327000Y-95956250D01*
X203485750Y-96115000D01*
X204700000Y-96118072D01*
X204824482Y-96105812D01*
X204944180Y-96069502D01*
X205054494Y-96010537D01*
X205151185Y-95931185D01*
X205230537Y-95834494D01*
X205289502Y-95724180D01*
X205325812Y-95604482D01*
X205338072Y-95480000D01*
X205335000Y-94265750D01*
X205176250Y-94107000D01*
X203327000Y-94107000D01*
X203073000Y-94107000D01*
X201223750Y-94107000D01*
X201065000Y-94265750D01*
X201061928Y-95480000D01*
X198013381Y-95480000D01*
X196240000Y-93706620D01*
X196240000Y-92480000D01*
X201061928Y-92480000D01*
X201065000Y-93694250D01*
X201223750Y-93853000D01*
X203073000Y-93853000D01*
X203073000Y-92003750D01*
X203327000Y-92003750D01*
X203327000Y-93853000D01*
X205176250Y-93853000D01*
X205335000Y-93694250D01*
X205338072Y-92480000D01*
X205325812Y-92355518D01*
X205289502Y-92235820D01*
X205230537Y-92125506D01*
X205151185Y-92028815D01*
X205054494Y-91949463D01*
X204944180Y-91890498D01*
X204824482Y-91854188D01*
X204700000Y-91841928D01*
X203485750Y-91845000D01*
X203327000Y-92003750D01*
X203073000Y-92003750D01*
X202914250Y-91845000D01*
X201700000Y-91841928D01*
X201575518Y-91854188D01*
X201455820Y-91890498D01*
X201345506Y-91949463D01*
X201248815Y-92028815D01*
X201169463Y-92125506D01*
X201110498Y-92235820D01*
X201074188Y-92355518D01*
X201061928Y-92480000D01*
X196240000Y-92480000D01*
X196240000Y-90391653D01*
X201887952Y-90391653D01*
X202043962Y-90707214D01*
X202418745Y-90898020D01*
X202823551Y-91012044D01*
X203242824Y-91044902D01*
X203660451Y-90995334D01*
X204060383Y-90865243D01*
X204356038Y-90707214D01*
X204512048Y-90391653D01*
X203200000Y-89079605D01*
X201887952Y-90391653D01*
X196240000Y-90391653D01*
X196240000Y-88942824D01*
X201055098Y-88942824D01*
X201104666Y-89360451D01*
X201234757Y-89760383D01*
X201392786Y-90056038D01*
X201708347Y-90212048D01*
X203020395Y-88900000D01*
X203379605Y-88900000D01*
X204691653Y-90212048D01*
X205007214Y-90056038D01*
X205198020Y-89681255D01*
X205312044Y-89276449D01*
X205344902Y-88857176D01*
X205295334Y-88439549D01*
X205165243Y-88039617D01*
X205007214Y-87743962D01*
X204691653Y-87587952D01*
X203379605Y-88900000D01*
X203020395Y-88900000D01*
X201708347Y-87587952D01*
X201392786Y-87743962D01*
X201201980Y-88118745D01*
X201087956Y-88523551D01*
X201055098Y-88942824D01*
X196240000Y-88942824D01*
X196240000Y-87408347D01*
X201887952Y-87408347D01*
X203200000Y-88720395D01*
X204512048Y-87408347D01*
X204356038Y-87092786D01*
X203981255Y-86901980D01*
X203576449Y-86787956D01*
X203157176Y-86755098D01*
X202739549Y-86804666D01*
X202339617Y-86934757D01*
X202043962Y-87092786D01*
X201887952Y-87408347D01*
X196240000Y-87408347D01*
X196240000Y-85320000D01*
X201061928Y-85320000D01*
X201074188Y-85444482D01*
X201110498Y-85564180D01*
X201169463Y-85674494D01*
X201248815Y-85771185D01*
X201345506Y-85850537D01*
X201455820Y-85909502D01*
X201575518Y-85945812D01*
X201700000Y-85958072D01*
X202914250Y-85955000D01*
X203073000Y-85796250D01*
X203073000Y-83947000D01*
X203327000Y-83947000D01*
X203327000Y-85796250D01*
X203485750Y-85955000D01*
X204700000Y-85958072D01*
X204824482Y-85945812D01*
X204944180Y-85909502D01*
X205054494Y-85850537D01*
X205151185Y-85771185D01*
X205230537Y-85674494D01*
X205289502Y-85564180D01*
X205325812Y-85444482D01*
X205338072Y-85320000D01*
X205335000Y-84105750D01*
X205176250Y-83947000D01*
X203327000Y-83947000D01*
X203073000Y-83947000D01*
X201223750Y-83947000D01*
X201065000Y-84105750D01*
X201061928Y-85320000D01*
X196240000Y-85320000D01*
X196240000Y-82320000D01*
X201061928Y-82320000D01*
X201065000Y-83534250D01*
X201223750Y-83693000D01*
X203073000Y-83693000D01*
X203073000Y-81843750D01*
X203327000Y-81843750D01*
X203327000Y-83693000D01*
X205176250Y-83693000D01*
X205335000Y-83534250D01*
X205338072Y-82320000D01*
X205325812Y-82195518D01*
X205289502Y-82075820D01*
X205230537Y-81965506D01*
X205151185Y-81868815D01*
X205054494Y-81789463D01*
X204944180Y-81730498D01*
X204824482Y-81694188D01*
X204700000Y-81681928D01*
X203485750Y-81685000D01*
X203327000Y-81843750D01*
X203073000Y-81843750D01*
X202914250Y-81685000D01*
X201700000Y-81681928D01*
X201575518Y-81694188D01*
X201455820Y-81730498D01*
X201345506Y-81789463D01*
X201248815Y-81868815D01*
X201169463Y-81965506D01*
X201110498Y-82075820D01*
X201074188Y-82195518D01*
X201061928Y-82320000D01*
X196240000Y-82320000D01*
X196240000Y-80231653D01*
X201887952Y-80231653D01*
X202043962Y-80547214D01*
X202418745Y-80738020D01*
X202823551Y-80852044D01*
X203242824Y-80884902D01*
X203660451Y-80835334D01*
X204060383Y-80705243D01*
X204356038Y-80547214D01*
X204512048Y-80231653D01*
X203200000Y-78919605D01*
X201887952Y-80231653D01*
X196240000Y-80231653D01*
X196240000Y-78782824D01*
X201055098Y-78782824D01*
X201104666Y-79200451D01*
X201234757Y-79600383D01*
X201392786Y-79896038D01*
X201708347Y-80052048D01*
X203020395Y-78740000D01*
X203379605Y-78740000D01*
X204691653Y-80052048D01*
X205007214Y-79896038D01*
X205198020Y-79521255D01*
X205312044Y-79116449D01*
X205344902Y-78697176D01*
X205295334Y-78279549D01*
X205165243Y-77879617D01*
X205007214Y-77583962D01*
X204691653Y-77427952D01*
X203379605Y-78740000D01*
X203020395Y-78740000D01*
X201708347Y-77427952D01*
X201392786Y-77583962D01*
X201201980Y-77958745D01*
X201087956Y-78363551D01*
X201055098Y-78782824D01*
X196240000Y-78782824D01*
X196240000Y-77248347D01*
X201887952Y-77248347D01*
X203200000Y-78560395D01*
X204512048Y-77248347D01*
X204356038Y-76932786D01*
X203981255Y-76741980D01*
X203576449Y-76627956D01*
X203157176Y-76595098D01*
X202739549Y-76644666D01*
X202339617Y-76774757D01*
X202043962Y-76932786D01*
X201887952Y-77248347D01*
X196240000Y-77248347D01*
X196240000Y-75160000D01*
X201061928Y-75160000D01*
X201074188Y-75284482D01*
X201110498Y-75404180D01*
X201169463Y-75514494D01*
X201248815Y-75611185D01*
X201345506Y-75690537D01*
X201455820Y-75749502D01*
X201575518Y-75785812D01*
X201700000Y-75798072D01*
X202914250Y-75795000D01*
X203073000Y-75636250D01*
X203073000Y-73787000D01*
X203327000Y-73787000D01*
X203327000Y-75636250D01*
X203485750Y-75795000D01*
X204700000Y-75798072D01*
X204824482Y-75785812D01*
X204944180Y-75749502D01*
X205054494Y-75690537D01*
X205151185Y-75611185D01*
X205230537Y-75514494D01*
X205289502Y-75404180D01*
X205325812Y-75284482D01*
X205338072Y-75160000D01*
X205335000Y-73945750D01*
X205176250Y-73787000D01*
X203327000Y-73787000D01*
X203073000Y-73787000D01*
X201223750Y-73787000D01*
X201065000Y-73945750D01*
X201061928Y-75160000D01*
X196240000Y-75160000D01*
X196240000Y-72160000D01*
X201061928Y-72160000D01*
X201065000Y-73374250D01*
X201223750Y-73533000D01*
X203073000Y-73533000D01*
X203073000Y-71683750D01*
X203327000Y-71683750D01*
X203327000Y-73533000D01*
X205176250Y-73533000D01*
X205335000Y-73374250D01*
X205338072Y-72160000D01*
X205325812Y-72035518D01*
X205289502Y-71915820D01*
X205230537Y-71805506D01*
X205151185Y-71708815D01*
X205054494Y-71629463D01*
X204944180Y-71570498D01*
X204824482Y-71534188D01*
X204700000Y-71521928D01*
X203485750Y-71525000D01*
X203327000Y-71683750D01*
X203073000Y-71683750D01*
X202914250Y-71525000D01*
X201700000Y-71521928D01*
X201575518Y-71534188D01*
X201455820Y-71570498D01*
X201345506Y-71629463D01*
X201248815Y-71708815D01*
X201169463Y-71805506D01*
X201110498Y-71915820D01*
X201074188Y-72035518D01*
X201061928Y-72160000D01*
X196240000Y-72160000D01*
X196240000Y-70071653D01*
X201887952Y-70071653D01*
X202043962Y-70387214D01*
X202418745Y-70578020D01*
X202823551Y-70692044D01*
X203242824Y-70724902D01*
X203660451Y-70675334D01*
X204060383Y-70545243D01*
X204356038Y-70387214D01*
X204512048Y-70071653D01*
X203200000Y-68759605D01*
X201887952Y-70071653D01*
X196240000Y-70071653D01*
X196240000Y-68622824D01*
X201055098Y-68622824D01*
X201104666Y-69040451D01*
X201234757Y-69440383D01*
X201392786Y-69736038D01*
X201708347Y-69892048D01*
X203020395Y-68580000D01*
X203379605Y-68580000D01*
X204691653Y-69892048D01*
X205007214Y-69736038D01*
X205198020Y-69361255D01*
X205312044Y-68956449D01*
X205344902Y-68537176D01*
X205295334Y-68119549D01*
X205165243Y-67719617D01*
X205007214Y-67423962D01*
X204691653Y-67267952D01*
X203379605Y-68580000D01*
X203020395Y-68580000D01*
X201708347Y-67267952D01*
X201392786Y-67423962D01*
X201201980Y-67798745D01*
X201087956Y-68203551D01*
X201055098Y-68622824D01*
X196240000Y-68622824D01*
X196240000Y-67088347D01*
X201887952Y-67088347D01*
X203200000Y-68400395D01*
X204512048Y-67088347D01*
X204356038Y-66772786D01*
X203981255Y-66581980D01*
X203576449Y-66467956D01*
X203157176Y-66435098D01*
X202739549Y-66484666D01*
X202339617Y-66614757D01*
X202043962Y-66772786D01*
X201887952Y-67088347D01*
X196240000Y-67088347D01*
X196240000Y-65000000D01*
X201061928Y-65000000D01*
X201074188Y-65124482D01*
X201110498Y-65244180D01*
X201169463Y-65354494D01*
X201248815Y-65451185D01*
X201345506Y-65530537D01*
X201455820Y-65589502D01*
X201575518Y-65625812D01*
X201700000Y-65638072D01*
X202914250Y-65635000D01*
X203073000Y-65476250D01*
X203073000Y-63627000D01*
X203327000Y-63627000D01*
X203327000Y-65476250D01*
X203485750Y-65635000D01*
X204700000Y-65638072D01*
X204824482Y-65625812D01*
X204944180Y-65589502D01*
X205054494Y-65530537D01*
X205151185Y-65451185D01*
X205230537Y-65354494D01*
X205289502Y-65244180D01*
X205325812Y-65124482D01*
X205338072Y-65000000D01*
X205335000Y-63785750D01*
X205176250Y-63627000D01*
X203327000Y-63627000D01*
X203073000Y-63627000D01*
X201223750Y-63627000D01*
X201065000Y-63785750D01*
X201061928Y-65000000D01*
X196240000Y-65000000D01*
X196240000Y-62000000D01*
X201061928Y-62000000D01*
X201065000Y-63214250D01*
X201223750Y-63373000D01*
X203073000Y-63373000D01*
X203073000Y-61523750D01*
X203327000Y-61523750D01*
X203327000Y-63373000D01*
X205176250Y-63373000D01*
X205335000Y-63214250D01*
X205338072Y-62000000D01*
X205325812Y-61875518D01*
X205289502Y-61755820D01*
X205230537Y-61645506D01*
X205151185Y-61548815D01*
X205054494Y-61469463D01*
X204944180Y-61410498D01*
X204824482Y-61374188D01*
X204700000Y-61361928D01*
X203485750Y-61365000D01*
X203327000Y-61523750D01*
X203073000Y-61523750D01*
X202914250Y-61365000D01*
X201700000Y-61361928D01*
X201575518Y-61374188D01*
X201455820Y-61410498D01*
X201345506Y-61469463D01*
X201248815Y-61548815D01*
X201169463Y-61645506D01*
X201110498Y-61755820D01*
X201074188Y-61875518D01*
X201061928Y-62000000D01*
X196240000Y-62000000D01*
X196240000Y-59911653D01*
X201887952Y-59911653D01*
X202043962Y-60227214D01*
X202418745Y-60418020D01*
X202823551Y-60532044D01*
X203242824Y-60564902D01*
X203660451Y-60515334D01*
X204060383Y-60385243D01*
X204356038Y-60227214D01*
X204512048Y-59911653D01*
X203200000Y-58599605D01*
X201887952Y-59911653D01*
X196240000Y-59911653D01*
X196240000Y-58693380D01*
X196470556Y-58462824D01*
X201055098Y-58462824D01*
X201104666Y-58880451D01*
X201234757Y-59280383D01*
X201392786Y-59576038D01*
X201708347Y-59732048D01*
X203020395Y-58420000D01*
X203379605Y-58420000D01*
X204691653Y-59732048D01*
X205007214Y-59576038D01*
X205198020Y-59201255D01*
X205312044Y-58796449D01*
X205344902Y-58377176D01*
X205295334Y-57959549D01*
X205165243Y-57559617D01*
X205007214Y-57263962D01*
X204691653Y-57107952D01*
X203379605Y-58420000D01*
X203020395Y-58420000D01*
X201708347Y-57107952D01*
X201392786Y-57263962D01*
X201201980Y-57638745D01*
X201087956Y-58043551D01*
X201055098Y-58462824D01*
X196470556Y-58462824D01*
X198005033Y-56928347D01*
X201887952Y-56928347D01*
X203200000Y-58240395D01*
X204512048Y-56928347D01*
X204356038Y-56612786D01*
X203981255Y-56421980D01*
X203576449Y-56307956D01*
X203157176Y-56275098D01*
X202739549Y-56324666D01*
X202339617Y-56454757D01*
X202043962Y-56612786D01*
X201887952Y-56928347D01*
X198005033Y-56928347D01*
X198926381Y-56007000D01*
X206350000Y-56007000D01*
X206350001Y-96393000D01*
X206350001Y-96393000D02*
X206350000Y-56007000D01*
G04 #@! TA.AperFunction,Conductor*
G36*
X206350001Y-96393000D02*
G01*
X198926381Y-96393000D01*
X198013381Y-95480000D01*
X201061928Y-95480000D01*
X201074188Y-95604482D01*
X201110498Y-95724180D01*
X201169463Y-95834494D01*
X201248815Y-95931185D01*
X201345506Y-96010537D01*
X201455820Y-96069502D01*
X201575518Y-96105812D01*
X201700000Y-96118072D01*
X202914250Y-96115000D01*
X203073000Y-95956250D01*
X203073000Y-94107000D01*
X203327000Y-94107000D01*
X203327000Y-95956250D01*
X203485750Y-96115000D01*
X204700000Y-96118072D01*
X204824482Y-96105812D01*
X204944180Y-96069502D01*
X205054494Y-96010537D01*
X205151185Y-95931185D01*
X205230537Y-95834494D01*
X205289502Y-95724180D01*
X205325812Y-95604482D01*
X205338072Y-95480000D01*
X205335000Y-94265750D01*
X205176250Y-94107000D01*
X203327000Y-94107000D01*
X203073000Y-94107000D01*
X201223750Y-94107000D01*
X201065000Y-94265750D01*
X201061928Y-95480000D01*
X198013381Y-95480000D01*
X196240000Y-93706620D01*
X196240000Y-92480000D01*
X201061928Y-92480000D01*
X201065000Y-93694250D01*
X201223750Y-93853000D01*
X203073000Y-93853000D01*
X203073000Y-92003750D01*
X203327000Y-92003750D01*
X203327000Y-93853000D01*
X205176250Y-93853000D01*
X205335000Y-93694250D01*
X205338072Y-92480000D01*
X205325812Y-92355518D01*
X205289502Y-92235820D01*
X205230537Y-92125506D01*
X205151185Y-92028815D01*
X205054494Y-91949463D01*
X204944180Y-91890498D01*
X204824482Y-91854188D01*
X204700000Y-91841928D01*
X203485750Y-91845000D01*
X203327000Y-92003750D01*
X203073000Y-92003750D01*
X202914250Y-91845000D01*
X201700000Y-91841928D01*
X201575518Y-91854188D01*
X201455820Y-91890498D01*
X201345506Y-91949463D01*
X201248815Y-92028815D01*
X201169463Y-92125506D01*
X201110498Y-92235820D01*
X201074188Y-92355518D01*
X201061928Y-92480000D01*
X196240000Y-92480000D01*
X196240000Y-90391653D01*
X201887952Y-90391653D01*
X202043962Y-90707214D01*
X202418745Y-90898020D01*
X202823551Y-91012044D01*
X203242824Y-91044902D01*
X203660451Y-90995334D01*
X204060383Y-90865243D01*
X204356038Y-90707214D01*
X204512048Y-90391653D01*
X203200000Y-89079605D01*
X201887952Y-90391653D01*
X196240000Y-90391653D01*
X196240000Y-88942824D01*
X201055098Y-88942824D01*
X201104666Y-89360451D01*
X201234757Y-89760383D01*
X201392786Y-90056038D01*
X201708347Y-90212048D01*
X203020395Y-88900000D01*
X203379605Y-88900000D01*
X204691653Y-90212048D01*
X205007214Y-90056038D01*
X205198020Y-89681255D01*
X205312044Y-89276449D01*
X205344902Y-88857176D01*
X205295334Y-88439549D01*
X205165243Y-88039617D01*
X205007214Y-87743962D01*
X204691653Y-87587952D01*
X203379605Y-88900000D01*
X203020395Y-88900000D01*
X201708347Y-87587952D01*
X201392786Y-87743962D01*
X201201980Y-88118745D01*
X201087956Y-88523551D01*
X201055098Y-88942824D01*
X196240000Y-88942824D01*
X196240000Y-87408347D01*
X201887952Y-87408347D01*
X203200000Y-88720395D01*
X204512048Y-87408347D01*
X204356038Y-87092786D01*
X203981255Y-86901980D01*
X203576449Y-86787956D01*
X203157176Y-86755098D01*
X202739549Y-86804666D01*
X202339617Y-86934757D01*
X202043962Y-87092786D01*
X201887952Y-87408347D01*
X196240000Y-87408347D01*
X196240000Y-85320000D01*
X201061928Y-85320000D01*
X201074188Y-85444482D01*
X201110498Y-85564180D01*
X201169463Y-85674494D01*
X201248815Y-85771185D01*
X201345506Y-85850537D01*
X201455820Y-85909502D01*
X201575518Y-85945812D01*
X201700000Y-85958072D01*
X202914250Y-85955000D01*
X203073000Y-85796250D01*
X203073000Y-83947000D01*
X203327000Y-83947000D01*
X203327000Y-85796250D01*
X203485750Y-85955000D01*
X204700000Y-85958072D01*
X204824482Y-85945812D01*
X204944180Y-85909502D01*
X205054494Y-85850537D01*
X205151185Y-85771185D01*
X205230537Y-85674494D01*
X205289502Y-85564180D01*
X205325812Y-85444482D01*
X205338072Y-85320000D01*
X205335000Y-84105750D01*
X205176250Y-83947000D01*
X203327000Y-83947000D01*
X203073000Y-83947000D01*
X201223750Y-83947000D01*
X201065000Y-84105750D01*
X201061928Y-85320000D01*
X196240000Y-85320000D01*
X196240000Y-82320000D01*
X201061928Y-82320000D01*
X201065000Y-83534250D01*
X201223750Y-83693000D01*
X203073000Y-83693000D01*
X203073000Y-81843750D01*
X203327000Y-81843750D01*
X203327000Y-83693000D01*
X205176250Y-83693000D01*
X205335000Y-83534250D01*
X205338072Y-82320000D01*
X205325812Y-82195518D01*
X205289502Y-82075820D01*
X205230537Y-81965506D01*
X205151185Y-81868815D01*
X205054494Y-81789463D01*
X204944180Y-81730498D01*
X204824482Y-81694188D01*
X204700000Y-81681928D01*
X203485750Y-81685000D01*
X203327000Y-81843750D01*
X203073000Y-81843750D01*
X202914250Y-81685000D01*
X201700000Y-81681928D01*
X201575518Y-81694188D01*
X201455820Y-81730498D01*
X201345506Y-81789463D01*
X201248815Y-81868815D01*
X201169463Y-81965506D01*
X201110498Y-82075820D01*
X201074188Y-82195518D01*
X201061928Y-82320000D01*
X196240000Y-82320000D01*
X196240000Y-80231653D01*
X201887952Y-80231653D01*
X202043962Y-80547214D01*
X202418745Y-80738020D01*
X202823551Y-80852044D01*
X203242824Y-80884902D01*
X203660451Y-80835334D01*
X204060383Y-80705243D01*
X204356038Y-80547214D01*
X204512048Y-80231653D01*
X203200000Y-78919605D01*
X201887952Y-80231653D01*
X196240000Y-80231653D01*
X196240000Y-78782824D01*
X201055098Y-78782824D01*
X201104666Y-79200451D01*
X201234757Y-79600383D01*
X201392786Y-79896038D01*
X201708347Y-80052048D01*
X203020395Y-78740000D01*
X203379605Y-78740000D01*
X204691653Y-80052048D01*
X205007214Y-79896038D01*
X205198020Y-79521255D01*
X205312044Y-79116449D01*
X205344902Y-78697176D01*
X205295334Y-78279549D01*
X205165243Y-77879617D01*
X205007214Y-77583962D01*
X204691653Y-77427952D01*
X203379605Y-78740000D01*
X203020395Y-78740000D01*
X201708347Y-77427952D01*
X201392786Y-77583962D01*
X201201980Y-77958745D01*
X201087956Y-78363551D01*
X201055098Y-78782824D01*
X196240000Y-78782824D01*
X196240000Y-77248347D01*
X201887952Y-77248347D01*
X203200000Y-78560395D01*
X204512048Y-77248347D01*
X204356038Y-76932786D01*
X203981255Y-76741980D01*
X203576449Y-76627956D01*
X203157176Y-76595098D01*
X202739549Y-76644666D01*
X202339617Y-76774757D01*
X202043962Y-76932786D01*
X201887952Y-77248347D01*
X196240000Y-77248347D01*
X196240000Y-75160000D01*
X201061928Y-75160000D01*
X201074188Y-75284482D01*
X201110498Y-75404180D01*
X201169463Y-75514494D01*
X201248815Y-75611185D01*
X201345506Y-75690537D01*
X201455820Y-75749502D01*
X201575518Y-75785812D01*
X201700000Y-75798072D01*
X202914250Y-75795000D01*
X203073000Y-75636250D01*
X203073000Y-73787000D01*
X203327000Y-73787000D01*
X203327000Y-75636250D01*
X203485750Y-75795000D01*
X204700000Y-75798072D01*
X204824482Y-75785812D01*
X204944180Y-75749502D01*
X205054494Y-75690537D01*
X205151185Y-75611185D01*
X205230537Y-75514494D01*
X205289502Y-75404180D01*
X205325812Y-75284482D01*
X205338072Y-75160000D01*
X205335000Y-73945750D01*
X205176250Y-73787000D01*
X203327000Y-73787000D01*
X203073000Y-73787000D01*
X201223750Y-73787000D01*
X201065000Y-73945750D01*
X201061928Y-75160000D01*
X196240000Y-75160000D01*
X196240000Y-72160000D01*
X201061928Y-72160000D01*
X201065000Y-73374250D01*
X201223750Y-73533000D01*
X203073000Y-73533000D01*
X203073000Y-71683750D01*
X203327000Y-71683750D01*
X203327000Y-73533000D01*
X205176250Y-73533000D01*
X205335000Y-73374250D01*
X205338072Y-72160000D01*
X205325812Y-72035518D01*
X205289502Y-71915820D01*
X205230537Y-71805506D01*
X205151185Y-71708815D01*
X205054494Y-71629463D01*
X204944180Y-71570498D01*
X204824482Y-71534188D01*
X204700000Y-71521928D01*
X203485750Y-71525000D01*
X203327000Y-71683750D01*
X203073000Y-71683750D01*
X202914250Y-71525000D01*
X201700000Y-71521928D01*
X201575518Y-71534188D01*
X201455820Y-71570498D01*
X201345506Y-71629463D01*
X201248815Y-71708815D01*
X201169463Y-71805506D01*
X201110498Y-71915820D01*
X201074188Y-72035518D01*
X201061928Y-72160000D01*
X196240000Y-72160000D01*
X196240000Y-70071653D01*
X201887952Y-70071653D01*
X202043962Y-70387214D01*
X202418745Y-70578020D01*
X202823551Y-70692044D01*
X203242824Y-70724902D01*
X203660451Y-70675334D01*
X204060383Y-70545243D01*
X204356038Y-70387214D01*
X204512048Y-70071653D01*
X203200000Y-68759605D01*
X201887952Y-70071653D01*
X196240000Y-70071653D01*
X196240000Y-68622824D01*
X201055098Y-68622824D01*
X201104666Y-69040451D01*
X201234757Y-69440383D01*
X201392786Y-69736038D01*
X201708347Y-69892048D01*
X203020395Y-68580000D01*
X203379605Y-68580000D01*
X204691653Y-69892048D01*
X205007214Y-69736038D01*
X205198020Y-69361255D01*
X205312044Y-68956449D01*
X205344902Y-68537176D01*
X205295334Y-68119549D01*
X205165243Y-67719617D01*
X205007214Y-67423962D01*
X204691653Y-67267952D01*
X203379605Y-68580000D01*
X203020395Y-68580000D01*
X201708347Y-67267952D01*
X201392786Y-67423962D01*
X201201980Y-67798745D01*
X201087956Y-68203551D01*
X201055098Y-68622824D01*
X196240000Y-68622824D01*
X196240000Y-67088347D01*
X201887952Y-67088347D01*
X203200000Y-68400395D01*
X204512048Y-67088347D01*
X204356038Y-66772786D01*
X203981255Y-66581980D01*
X203576449Y-66467956D01*
X203157176Y-66435098D01*
X202739549Y-66484666D01*
X202339617Y-66614757D01*
X202043962Y-66772786D01*
X201887952Y-67088347D01*
X196240000Y-67088347D01*
X196240000Y-65000000D01*
X201061928Y-65000000D01*
X201074188Y-65124482D01*
X201110498Y-65244180D01*
X201169463Y-65354494D01*
X201248815Y-65451185D01*
X201345506Y-65530537D01*
X201455820Y-65589502D01*
X201575518Y-65625812D01*
X201700000Y-65638072D01*
X202914250Y-65635000D01*
X203073000Y-65476250D01*
X203073000Y-63627000D01*
X203327000Y-63627000D01*
X203327000Y-65476250D01*
X203485750Y-65635000D01*
X204700000Y-65638072D01*
X204824482Y-65625812D01*
X204944180Y-65589502D01*
X205054494Y-65530537D01*
X205151185Y-65451185D01*
X205230537Y-65354494D01*
X205289502Y-65244180D01*
X205325812Y-65124482D01*
X205338072Y-65000000D01*
X205335000Y-63785750D01*
X205176250Y-63627000D01*
X203327000Y-63627000D01*
X203073000Y-63627000D01*
X201223750Y-63627000D01*
X201065000Y-63785750D01*
X201061928Y-65000000D01*
X196240000Y-65000000D01*
X196240000Y-62000000D01*
X201061928Y-62000000D01*
X201065000Y-63214250D01*
X201223750Y-63373000D01*
X203073000Y-63373000D01*
X203073000Y-61523750D01*
X203327000Y-61523750D01*
X203327000Y-63373000D01*
X205176250Y-63373000D01*
X205335000Y-63214250D01*
X205338072Y-62000000D01*
X205325812Y-61875518D01*
X205289502Y-61755820D01*
X205230537Y-61645506D01*
X205151185Y-61548815D01*
X205054494Y-61469463D01*
X204944180Y-61410498D01*
X204824482Y-61374188D01*
X204700000Y-61361928D01*
X203485750Y-61365000D01*
X203327000Y-61523750D01*
X203073000Y-61523750D01*
X202914250Y-61365000D01*
X201700000Y-61361928D01*
X201575518Y-61374188D01*
X201455820Y-61410498D01*
X201345506Y-61469463D01*
X201248815Y-61548815D01*
X201169463Y-61645506D01*
X201110498Y-61755820D01*
X201074188Y-61875518D01*
X201061928Y-62000000D01*
X196240000Y-62000000D01*
X196240000Y-59911653D01*
X201887952Y-59911653D01*
X202043962Y-60227214D01*
X202418745Y-60418020D01*
X202823551Y-60532044D01*
X203242824Y-60564902D01*
X203660451Y-60515334D01*
X204060383Y-60385243D01*
X204356038Y-60227214D01*
X204512048Y-59911653D01*
X203200000Y-58599605D01*
X201887952Y-59911653D01*
X196240000Y-59911653D01*
X196240000Y-58693380D01*
X196470556Y-58462824D01*
X201055098Y-58462824D01*
X201104666Y-58880451D01*
X201234757Y-59280383D01*
X201392786Y-59576038D01*
X201708347Y-59732048D01*
X203020395Y-58420000D01*
X203379605Y-58420000D01*
X204691653Y-59732048D01*
X205007214Y-59576038D01*
X205198020Y-59201255D01*
X205312044Y-58796449D01*
X205344902Y-58377176D01*
X205295334Y-57959549D01*
X205165243Y-57559617D01*
X205007214Y-57263962D01*
X204691653Y-57107952D01*
X203379605Y-58420000D01*
X203020395Y-58420000D01*
X201708347Y-57107952D01*
X201392786Y-57263962D01*
X201201980Y-57638745D01*
X201087956Y-58043551D01*
X201055098Y-58462824D01*
X196470556Y-58462824D01*
X198005033Y-56928347D01*
X201887952Y-56928347D01*
X203200000Y-58240395D01*
X204512048Y-56928347D01*
X204356038Y-56612786D01*
X203981255Y-56421980D01*
X203576449Y-56307956D01*
X203157176Y-56275098D01*
X202739549Y-56324666D01*
X202339617Y-56454757D01*
X202043962Y-56612786D01*
X201887952Y-56928347D01*
X198005033Y-56928347D01*
X198926381Y-56007000D01*
X206350000Y-56007000D01*
X206350001Y-96393000D01*
G37*
G04 #@! TD.AperFunction*
G04 #@! TD*
G04 #@! TO.N,/green*
X189840001Y-58693382D02*
X189840000Y-93706619D01*
X187153620Y-96393000D01*
X179730000Y-96393000D01*
X179730000Y-95471653D01*
X181567952Y-95471653D01*
X181723962Y-95787214D01*
X182098745Y-95978020D01*
X182503551Y-96092044D01*
X182922824Y-96124902D01*
X183340451Y-96075334D01*
X183740383Y-95945243D01*
X184036038Y-95787214D01*
X184192048Y-95471653D01*
X182880000Y-94159605D01*
X181567952Y-95471653D01*
X179730000Y-95471653D01*
X179730000Y-94022824D01*
X180735098Y-94022824D01*
X180784666Y-94440451D01*
X180914757Y-94840383D01*
X181072786Y-95136038D01*
X181388347Y-95292048D01*
X182700395Y-93980000D01*
X183059605Y-93980000D01*
X184371653Y-95292048D01*
X184687214Y-95136038D01*
X184878020Y-94761255D01*
X184992044Y-94356449D01*
X185024902Y-93937176D01*
X184975334Y-93519549D01*
X184845243Y-93119617D01*
X184687214Y-92823962D01*
X184371653Y-92667952D01*
X183059605Y-93980000D01*
X182700395Y-93980000D01*
X181388347Y-92667952D01*
X181072786Y-92823962D01*
X180881980Y-93198745D01*
X180767956Y-93603551D01*
X180735098Y-94022824D01*
X179730000Y-94022824D01*
X179730000Y-92488347D01*
X181567952Y-92488347D01*
X182880000Y-93800395D01*
X184192048Y-92488347D01*
X184036038Y-92172786D01*
X183661255Y-91981980D01*
X183256449Y-91867956D01*
X182837176Y-91835098D01*
X182419549Y-91884666D01*
X182019617Y-92014757D01*
X181723962Y-92172786D01*
X181567952Y-92488347D01*
X179730000Y-92488347D01*
X179730000Y-90400000D01*
X180741928Y-90400000D01*
X180754188Y-90524482D01*
X180790498Y-90644180D01*
X180849463Y-90754494D01*
X180928815Y-90851185D01*
X181025506Y-90930537D01*
X181135820Y-90989502D01*
X181255518Y-91025812D01*
X181380000Y-91038072D01*
X182594250Y-91035000D01*
X182753000Y-90876250D01*
X182753000Y-89027000D01*
X183007000Y-89027000D01*
X183007000Y-90876250D01*
X183165750Y-91035000D01*
X184380000Y-91038072D01*
X184504482Y-91025812D01*
X184624180Y-90989502D01*
X184734494Y-90930537D01*
X184831185Y-90851185D01*
X184910537Y-90754494D01*
X184969502Y-90644180D01*
X185005812Y-90524482D01*
X185018072Y-90400000D01*
X185015000Y-89185750D01*
X184856250Y-89027000D01*
X183007000Y-89027000D01*
X182753000Y-89027000D01*
X180903750Y-89027000D01*
X180745000Y-89185750D01*
X180741928Y-90400000D01*
X179730000Y-90400000D01*
X179730000Y-87400000D01*
X180741928Y-87400000D01*
X180745000Y-88614250D01*
X180903750Y-88773000D01*
X182753000Y-88773000D01*
X182753000Y-86923750D01*
X183007000Y-86923750D01*
X183007000Y-88773000D01*
X184856250Y-88773000D01*
X185015000Y-88614250D01*
X185018072Y-87400000D01*
X185005812Y-87275518D01*
X184969502Y-87155820D01*
X184910537Y-87045506D01*
X184831185Y-86948815D01*
X184734494Y-86869463D01*
X184624180Y-86810498D01*
X184504482Y-86774188D01*
X184380000Y-86761928D01*
X183165750Y-86765000D01*
X183007000Y-86923750D01*
X182753000Y-86923750D01*
X182594250Y-86765000D01*
X181380000Y-86761928D01*
X181255518Y-86774188D01*
X181135820Y-86810498D01*
X181025506Y-86869463D01*
X180928815Y-86948815D01*
X180849463Y-87045506D01*
X180790498Y-87155820D01*
X180754188Y-87275518D01*
X180741928Y-87400000D01*
X179730000Y-87400000D01*
X179730000Y-85311653D01*
X181567952Y-85311653D01*
X181723962Y-85627214D01*
X182098745Y-85818020D01*
X182503551Y-85932044D01*
X182922824Y-85964902D01*
X183340451Y-85915334D01*
X183740383Y-85785243D01*
X184036038Y-85627214D01*
X184192048Y-85311653D01*
X182880000Y-83999605D01*
X181567952Y-85311653D01*
X179730000Y-85311653D01*
X179730000Y-83862824D01*
X180735098Y-83862824D01*
X180784666Y-84280451D01*
X180914757Y-84680383D01*
X181072786Y-84976038D01*
X181388347Y-85132048D01*
X182700395Y-83820000D01*
X183059605Y-83820000D01*
X184371653Y-85132048D01*
X184687214Y-84976038D01*
X184878020Y-84601255D01*
X184992044Y-84196449D01*
X185024902Y-83777176D01*
X184975334Y-83359549D01*
X184845243Y-82959617D01*
X184687214Y-82663962D01*
X184371653Y-82507952D01*
X183059605Y-83820000D01*
X182700395Y-83820000D01*
X181388347Y-82507952D01*
X181072786Y-82663962D01*
X180881980Y-83038745D01*
X180767956Y-83443551D01*
X180735098Y-83862824D01*
X179730000Y-83862824D01*
X179730000Y-82328347D01*
X181567952Y-82328347D01*
X182880000Y-83640395D01*
X184192048Y-82328347D01*
X184036038Y-82012786D01*
X183661255Y-81821980D01*
X183256449Y-81707956D01*
X182837176Y-81675098D01*
X182419549Y-81724666D01*
X182019617Y-81854757D01*
X181723962Y-82012786D01*
X181567952Y-82328347D01*
X179730000Y-82328347D01*
X179730000Y-80240000D01*
X180741928Y-80240000D01*
X180754188Y-80364482D01*
X180790498Y-80484180D01*
X180849463Y-80594494D01*
X180928815Y-80691185D01*
X181025506Y-80770537D01*
X181135820Y-80829502D01*
X181255518Y-80865812D01*
X181380000Y-80878072D01*
X182594250Y-80875000D01*
X182753000Y-80716250D01*
X182753000Y-78867000D01*
X183007000Y-78867000D01*
X183007000Y-80716250D01*
X183165750Y-80875000D01*
X184380000Y-80878072D01*
X184504482Y-80865812D01*
X184624180Y-80829502D01*
X184734494Y-80770537D01*
X184831185Y-80691185D01*
X184910537Y-80594494D01*
X184969502Y-80484180D01*
X185005812Y-80364482D01*
X185018072Y-80240000D01*
X185015000Y-79025750D01*
X184856250Y-78867000D01*
X183007000Y-78867000D01*
X182753000Y-78867000D01*
X180903750Y-78867000D01*
X180745000Y-79025750D01*
X180741928Y-80240000D01*
X179730000Y-80240000D01*
X179730000Y-77240000D01*
X180741928Y-77240000D01*
X180745000Y-78454250D01*
X180903750Y-78613000D01*
X182753000Y-78613000D01*
X182753000Y-76763750D01*
X183007000Y-76763750D01*
X183007000Y-78613000D01*
X184856250Y-78613000D01*
X185015000Y-78454250D01*
X185018072Y-77240000D01*
X185005812Y-77115518D01*
X184969502Y-76995820D01*
X184910537Y-76885506D01*
X184831185Y-76788815D01*
X184734494Y-76709463D01*
X184624180Y-76650498D01*
X184504482Y-76614188D01*
X184380000Y-76601928D01*
X183165750Y-76605000D01*
X183007000Y-76763750D01*
X182753000Y-76763750D01*
X182594250Y-76605000D01*
X181380000Y-76601928D01*
X181255518Y-76614188D01*
X181135820Y-76650498D01*
X181025506Y-76709463D01*
X180928815Y-76788815D01*
X180849463Y-76885506D01*
X180790498Y-76995820D01*
X180754188Y-77115518D01*
X180741928Y-77240000D01*
X179730000Y-77240000D01*
X179730000Y-75151653D01*
X181567952Y-75151653D01*
X181723962Y-75467214D01*
X182098745Y-75658020D01*
X182503551Y-75772044D01*
X182922824Y-75804902D01*
X183340451Y-75755334D01*
X183740383Y-75625243D01*
X184036038Y-75467214D01*
X184192048Y-75151653D01*
X182880000Y-73839605D01*
X181567952Y-75151653D01*
X179730000Y-75151653D01*
X179730000Y-73702824D01*
X180735098Y-73702824D01*
X180784666Y-74120451D01*
X180914757Y-74520383D01*
X181072786Y-74816038D01*
X181388347Y-74972048D01*
X182700395Y-73660000D01*
X183059605Y-73660000D01*
X184371653Y-74972048D01*
X184687214Y-74816038D01*
X184878020Y-74441255D01*
X184992044Y-74036449D01*
X185024902Y-73617176D01*
X184975334Y-73199549D01*
X184845243Y-72799617D01*
X184687214Y-72503962D01*
X184371653Y-72347952D01*
X183059605Y-73660000D01*
X182700395Y-73660000D01*
X181388347Y-72347952D01*
X181072786Y-72503962D01*
X180881980Y-72878745D01*
X180767956Y-73283551D01*
X180735098Y-73702824D01*
X179730000Y-73702824D01*
X179730000Y-72168347D01*
X181567952Y-72168347D01*
X182880000Y-73480395D01*
X184192048Y-72168347D01*
X184036038Y-71852786D01*
X183661255Y-71661980D01*
X183256449Y-71547956D01*
X182837176Y-71515098D01*
X182419549Y-71564666D01*
X182019617Y-71694757D01*
X181723962Y-71852786D01*
X181567952Y-72168347D01*
X179730000Y-72168347D01*
X179730000Y-70080000D01*
X180741928Y-70080000D01*
X180754188Y-70204482D01*
X180790498Y-70324180D01*
X180849463Y-70434494D01*
X180928815Y-70531185D01*
X181025506Y-70610537D01*
X181135820Y-70669502D01*
X181255518Y-70705812D01*
X181380000Y-70718072D01*
X182594250Y-70715000D01*
X182753000Y-70556250D01*
X182753000Y-68707000D01*
X183007000Y-68707000D01*
X183007000Y-70556250D01*
X183165750Y-70715000D01*
X184380000Y-70718072D01*
X184504482Y-70705812D01*
X184624180Y-70669502D01*
X184734494Y-70610537D01*
X184831185Y-70531185D01*
X184910537Y-70434494D01*
X184969502Y-70324180D01*
X185005812Y-70204482D01*
X185018072Y-70080000D01*
X185015000Y-68865750D01*
X184856250Y-68707000D01*
X183007000Y-68707000D01*
X182753000Y-68707000D01*
X180903750Y-68707000D01*
X180745000Y-68865750D01*
X180741928Y-70080000D01*
X179730000Y-70080000D01*
X179730000Y-67080000D01*
X180741928Y-67080000D01*
X180745000Y-68294250D01*
X180903750Y-68453000D01*
X182753000Y-68453000D01*
X182753000Y-66603750D01*
X183007000Y-66603750D01*
X183007000Y-68453000D01*
X184856250Y-68453000D01*
X185015000Y-68294250D01*
X185018072Y-67080000D01*
X185005812Y-66955518D01*
X184969502Y-66835820D01*
X184910537Y-66725506D01*
X184831185Y-66628815D01*
X184734494Y-66549463D01*
X184624180Y-66490498D01*
X184504482Y-66454188D01*
X184380000Y-66441928D01*
X183165750Y-66445000D01*
X183007000Y-66603750D01*
X182753000Y-66603750D01*
X182594250Y-66445000D01*
X181380000Y-66441928D01*
X181255518Y-66454188D01*
X181135820Y-66490498D01*
X181025506Y-66549463D01*
X180928815Y-66628815D01*
X180849463Y-66725506D01*
X180790498Y-66835820D01*
X180754188Y-66955518D01*
X180741928Y-67080000D01*
X179730000Y-67080000D01*
X179730000Y-64991653D01*
X181567952Y-64991653D01*
X181723962Y-65307214D01*
X182098745Y-65498020D01*
X182503551Y-65612044D01*
X182922824Y-65644902D01*
X183340451Y-65595334D01*
X183740383Y-65465243D01*
X184036038Y-65307214D01*
X184192048Y-64991653D01*
X182880000Y-63679605D01*
X181567952Y-64991653D01*
X179730000Y-64991653D01*
X179730000Y-63542824D01*
X180735098Y-63542824D01*
X180784666Y-63960451D01*
X180914757Y-64360383D01*
X181072786Y-64656038D01*
X181388347Y-64812048D01*
X182700395Y-63500000D01*
X183059605Y-63500000D01*
X184371653Y-64812048D01*
X184687214Y-64656038D01*
X184878020Y-64281255D01*
X184992044Y-63876449D01*
X185024902Y-63457176D01*
X184975334Y-63039549D01*
X184845243Y-62639617D01*
X184687214Y-62343962D01*
X184371653Y-62187952D01*
X183059605Y-63500000D01*
X182700395Y-63500000D01*
X181388347Y-62187952D01*
X181072786Y-62343962D01*
X180881980Y-62718745D01*
X180767956Y-63123551D01*
X180735098Y-63542824D01*
X179730000Y-63542824D01*
X179730000Y-62008347D01*
X181567952Y-62008347D01*
X182880000Y-63320395D01*
X184192048Y-62008347D01*
X184036038Y-61692786D01*
X183661255Y-61501980D01*
X183256449Y-61387956D01*
X182837176Y-61355098D01*
X182419549Y-61404666D01*
X182019617Y-61534757D01*
X181723962Y-61692786D01*
X181567952Y-62008347D01*
X179730000Y-62008347D01*
X179730000Y-59920000D01*
X180741928Y-59920000D01*
X180754188Y-60044482D01*
X180790498Y-60164180D01*
X180849463Y-60274494D01*
X180928815Y-60371185D01*
X181025506Y-60450537D01*
X181135820Y-60509502D01*
X181255518Y-60545812D01*
X181380000Y-60558072D01*
X182594250Y-60555000D01*
X182753000Y-60396250D01*
X182753000Y-58547000D01*
X183007000Y-58547000D01*
X183007000Y-60396250D01*
X183165750Y-60555000D01*
X184380000Y-60558072D01*
X184504482Y-60545812D01*
X184624180Y-60509502D01*
X184734494Y-60450537D01*
X184831185Y-60371185D01*
X184910537Y-60274494D01*
X184969502Y-60164180D01*
X185005812Y-60044482D01*
X185018072Y-59920000D01*
X185015000Y-58705750D01*
X184856250Y-58547000D01*
X183007000Y-58547000D01*
X182753000Y-58547000D01*
X180903750Y-58547000D01*
X180745000Y-58705750D01*
X180741928Y-59920000D01*
X179730000Y-59920000D01*
X179730000Y-56920000D01*
X180741928Y-56920000D01*
X180745000Y-58134250D01*
X180903750Y-58293000D01*
X182753000Y-58293000D01*
X182753000Y-56443750D01*
X183007000Y-56443750D01*
X183007000Y-58293000D01*
X184856250Y-58293000D01*
X185015000Y-58134250D01*
X185018072Y-56920000D01*
X185005812Y-56795518D01*
X184969502Y-56675820D01*
X184910537Y-56565506D01*
X184831185Y-56468815D01*
X184734494Y-56389463D01*
X184624180Y-56330498D01*
X184504482Y-56294188D01*
X184380000Y-56281928D01*
X183165750Y-56285000D01*
X183007000Y-56443750D01*
X182753000Y-56443750D01*
X182594250Y-56285000D01*
X181380000Y-56281928D01*
X181255518Y-56294188D01*
X181135820Y-56330498D01*
X181025506Y-56389463D01*
X180928815Y-56468815D01*
X180849463Y-56565506D01*
X180790498Y-56675820D01*
X180754188Y-56795518D01*
X180741928Y-56920000D01*
X179730000Y-56920000D01*
X179730000Y-56007000D01*
X187153620Y-56007000D01*
X189840001Y-58693382D01*
X189840001Y-58693382D02*
X187153620Y-56007000D01*
G04 #@! TA.AperFunction,Conductor*
G36*
X189840001Y-58693382D02*
G01*
X189840000Y-93706619D01*
X187153620Y-96393000D01*
X179730000Y-96393000D01*
X179730000Y-95471653D01*
X181567952Y-95471653D01*
X181723962Y-95787214D01*
X182098745Y-95978020D01*
X182503551Y-96092044D01*
X182922824Y-96124902D01*
X183340451Y-96075334D01*
X183740383Y-95945243D01*
X184036038Y-95787214D01*
X184192048Y-95471653D01*
X182880000Y-94159605D01*
X181567952Y-95471653D01*
X179730000Y-95471653D01*
X179730000Y-94022824D01*
X180735098Y-94022824D01*
X180784666Y-94440451D01*
X180914757Y-94840383D01*
X181072786Y-95136038D01*
X181388347Y-95292048D01*
X182700395Y-93980000D01*
X183059605Y-93980000D01*
X184371653Y-95292048D01*
X184687214Y-95136038D01*
X184878020Y-94761255D01*
X184992044Y-94356449D01*
X185024902Y-93937176D01*
X184975334Y-93519549D01*
X184845243Y-93119617D01*
X184687214Y-92823962D01*
X184371653Y-92667952D01*
X183059605Y-93980000D01*
X182700395Y-93980000D01*
X181388347Y-92667952D01*
X181072786Y-92823962D01*
X180881980Y-93198745D01*
X180767956Y-93603551D01*
X180735098Y-94022824D01*
X179730000Y-94022824D01*
X179730000Y-92488347D01*
X181567952Y-92488347D01*
X182880000Y-93800395D01*
X184192048Y-92488347D01*
X184036038Y-92172786D01*
X183661255Y-91981980D01*
X183256449Y-91867956D01*
X182837176Y-91835098D01*
X182419549Y-91884666D01*
X182019617Y-92014757D01*
X181723962Y-92172786D01*
X181567952Y-92488347D01*
X179730000Y-92488347D01*
X179730000Y-90400000D01*
X180741928Y-90400000D01*
X180754188Y-90524482D01*
X180790498Y-90644180D01*
X180849463Y-90754494D01*
X180928815Y-90851185D01*
X181025506Y-90930537D01*
X181135820Y-90989502D01*
X181255518Y-91025812D01*
X181380000Y-91038072D01*
X182594250Y-91035000D01*
X182753000Y-90876250D01*
X182753000Y-89027000D01*
X183007000Y-89027000D01*
X183007000Y-90876250D01*
X183165750Y-91035000D01*
X184380000Y-91038072D01*
X184504482Y-91025812D01*
X184624180Y-90989502D01*
X184734494Y-90930537D01*
X184831185Y-90851185D01*
X184910537Y-90754494D01*
X184969502Y-90644180D01*
X185005812Y-90524482D01*
X185018072Y-90400000D01*
X185015000Y-89185750D01*
X184856250Y-89027000D01*
X183007000Y-89027000D01*
X182753000Y-89027000D01*
X180903750Y-89027000D01*
X180745000Y-89185750D01*
X180741928Y-90400000D01*
X179730000Y-90400000D01*
X179730000Y-87400000D01*
X180741928Y-87400000D01*
X180745000Y-88614250D01*
X180903750Y-88773000D01*
X182753000Y-88773000D01*
X182753000Y-86923750D01*
X183007000Y-86923750D01*
X183007000Y-88773000D01*
X184856250Y-88773000D01*
X185015000Y-88614250D01*
X185018072Y-87400000D01*
X185005812Y-87275518D01*
X184969502Y-87155820D01*
X184910537Y-87045506D01*
X184831185Y-86948815D01*
X184734494Y-86869463D01*
X184624180Y-86810498D01*
X184504482Y-86774188D01*
X184380000Y-86761928D01*
X183165750Y-86765000D01*
X183007000Y-86923750D01*
X182753000Y-86923750D01*
X182594250Y-86765000D01*
X181380000Y-86761928D01*
X181255518Y-86774188D01*
X181135820Y-86810498D01*
X181025506Y-86869463D01*
X180928815Y-86948815D01*
X180849463Y-87045506D01*
X180790498Y-87155820D01*
X180754188Y-87275518D01*
X180741928Y-87400000D01*
X179730000Y-87400000D01*
X179730000Y-85311653D01*
X181567952Y-85311653D01*
X181723962Y-85627214D01*
X182098745Y-85818020D01*
X182503551Y-85932044D01*
X182922824Y-85964902D01*
X183340451Y-85915334D01*
X183740383Y-85785243D01*
X184036038Y-85627214D01*
X184192048Y-85311653D01*
X182880000Y-83999605D01*
X181567952Y-85311653D01*
X179730000Y-85311653D01*
X179730000Y-83862824D01*
X180735098Y-83862824D01*
X180784666Y-84280451D01*
X180914757Y-84680383D01*
X181072786Y-84976038D01*
X181388347Y-85132048D01*
X182700395Y-83820000D01*
X183059605Y-83820000D01*
X184371653Y-85132048D01*
X184687214Y-84976038D01*
X184878020Y-84601255D01*
X184992044Y-84196449D01*
X185024902Y-83777176D01*
X184975334Y-83359549D01*
X184845243Y-82959617D01*
X184687214Y-82663962D01*
X184371653Y-82507952D01*
X183059605Y-83820000D01*
X182700395Y-83820000D01*
X181388347Y-82507952D01*
X181072786Y-82663962D01*
X180881980Y-83038745D01*
X180767956Y-83443551D01*
X180735098Y-83862824D01*
X179730000Y-83862824D01*
X179730000Y-82328347D01*
X181567952Y-82328347D01*
X182880000Y-83640395D01*
X184192048Y-82328347D01*
X184036038Y-82012786D01*
X183661255Y-81821980D01*
X183256449Y-81707956D01*
X182837176Y-81675098D01*
X182419549Y-81724666D01*
X182019617Y-81854757D01*
X181723962Y-82012786D01*
X181567952Y-82328347D01*
X179730000Y-82328347D01*
X179730000Y-80240000D01*
X180741928Y-80240000D01*
X180754188Y-80364482D01*
X180790498Y-80484180D01*
X180849463Y-80594494D01*
X180928815Y-80691185D01*
X181025506Y-80770537D01*
X181135820Y-80829502D01*
X181255518Y-80865812D01*
X181380000Y-80878072D01*
X182594250Y-80875000D01*
X182753000Y-80716250D01*
X182753000Y-78867000D01*
X183007000Y-78867000D01*
X183007000Y-80716250D01*
X183165750Y-80875000D01*
X184380000Y-80878072D01*
X184504482Y-80865812D01*
X184624180Y-80829502D01*
X184734494Y-80770537D01*
X184831185Y-80691185D01*
X184910537Y-80594494D01*
X184969502Y-80484180D01*
X185005812Y-80364482D01*
X185018072Y-80240000D01*
X185015000Y-79025750D01*
X184856250Y-78867000D01*
X183007000Y-78867000D01*
X182753000Y-78867000D01*
X180903750Y-78867000D01*
X180745000Y-79025750D01*
X180741928Y-80240000D01*
X179730000Y-80240000D01*
X179730000Y-77240000D01*
X180741928Y-77240000D01*
X180745000Y-78454250D01*
X180903750Y-78613000D01*
X182753000Y-78613000D01*
X182753000Y-76763750D01*
X183007000Y-76763750D01*
X183007000Y-78613000D01*
X184856250Y-78613000D01*
X185015000Y-78454250D01*
X185018072Y-77240000D01*
X185005812Y-77115518D01*
X184969502Y-76995820D01*
X184910537Y-76885506D01*
X184831185Y-76788815D01*
X184734494Y-76709463D01*
X184624180Y-76650498D01*
X184504482Y-76614188D01*
X184380000Y-76601928D01*
X183165750Y-76605000D01*
X183007000Y-76763750D01*
X182753000Y-76763750D01*
X182594250Y-76605000D01*
X181380000Y-76601928D01*
X181255518Y-76614188D01*
X181135820Y-76650498D01*
X181025506Y-76709463D01*
X180928815Y-76788815D01*
X180849463Y-76885506D01*
X180790498Y-76995820D01*
X180754188Y-77115518D01*
X180741928Y-77240000D01*
X179730000Y-77240000D01*
X179730000Y-75151653D01*
X181567952Y-75151653D01*
X181723962Y-75467214D01*
X182098745Y-75658020D01*
X182503551Y-75772044D01*
X182922824Y-75804902D01*
X183340451Y-75755334D01*
X183740383Y-75625243D01*
X184036038Y-75467214D01*
X184192048Y-75151653D01*
X182880000Y-73839605D01*
X181567952Y-75151653D01*
X179730000Y-75151653D01*
X179730000Y-73702824D01*
X180735098Y-73702824D01*
X180784666Y-74120451D01*
X180914757Y-74520383D01*
X181072786Y-74816038D01*
X181388347Y-74972048D01*
X182700395Y-73660000D01*
X183059605Y-73660000D01*
X184371653Y-74972048D01*
X184687214Y-74816038D01*
X184878020Y-74441255D01*
X184992044Y-74036449D01*
X185024902Y-73617176D01*
X184975334Y-73199549D01*
X184845243Y-72799617D01*
X184687214Y-72503962D01*
X184371653Y-72347952D01*
X183059605Y-73660000D01*
X182700395Y-73660000D01*
X181388347Y-72347952D01*
X181072786Y-72503962D01*
X180881980Y-72878745D01*
X180767956Y-73283551D01*
X180735098Y-73702824D01*
X179730000Y-73702824D01*
X179730000Y-72168347D01*
X181567952Y-72168347D01*
X182880000Y-73480395D01*
X184192048Y-72168347D01*
X184036038Y-71852786D01*
X183661255Y-71661980D01*
X183256449Y-71547956D01*
X182837176Y-71515098D01*
X182419549Y-71564666D01*
X182019617Y-71694757D01*
X181723962Y-71852786D01*
X181567952Y-72168347D01*
X179730000Y-72168347D01*
X179730000Y-70080000D01*
X180741928Y-70080000D01*
X180754188Y-70204482D01*
X180790498Y-70324180D01*
X180849463Y-70434494D01*
X180928815Y-70531185D01*
X181025506Y-70610537D01*
X181135820Y-70669502D01*
X181255518Y-70705812D01*
X181380000Y-70718072D01*
X182594250Y-70715000D01*
X182753000Y-70556250D01*
X182753000Y-68707000D01*
X183007000Y-68707000D01*
X183007000Y-70556250D01*
X183165750Y-70715000D01*
X184380000Y-70718072D01*
X184504482Y-70705812D01*
X184624180Y-70669502D01*
X184734494Y-70610537D01*
X184831185Y-70531185D01*
X184910537Y-70434494D01*
X184969502Y-70324180D01*
X185005812Y-70204482D01*
X185018072Y-70080000D01*
X185015000Y-68865750D01*
X184856250Y-68707000D01*
X183007000Y-68707000D01*
X182753000Y-68707000D01*
X180903750Y-68707000D01*
X180745000Y-68865750D01*
X180741928Y-70080000D01*
X179730000Y-70080000D01*
X179730000Y-67080000D01*
X180741928Y-67080000D01*
X180745000Y-68294250D01*
X180903750Y-68453000D01*
X182753000Y-68453000D01*
X182753000Y-66603750D01*
X183007000Y-66603750D01*
X183007000Y-68453000D01*
X184856250Y-68453000D01*
X185015000Y-68294250D01*
X185018072Y-67080000D01*
X185005812Y-66955518D01*
X184969502Y-66835820D01*
X184910537Y-66725506D01*
X184831185Y-66628815D01*
X184734494Y-66549463D01*
X184624180Y-66490498D01*
X184504482Y-66454188D01*
X184380000Y-66441928D01*
X183165750Y-66445000D01*
X183007000Y-66603750D01*
X182753000Y-66603750D01*
X182594250Y-66445000D01*
X181380000Y-66441928D01*
X181255518Y-66454188D01*
X181135820Y-66490498D01*
X181025506Y-66549463D01*
X180928815Y-66628815D01*
X180849463Y-66725506D01*
X180790498Y-66835820D01*
X180754188Y-66955518D01*
X180741928Y-67080000D01*
X179730000Y-67080000D01*
X179730000Y-64991653D01*
X181567952Y-64991653D01*
X181723962Y-65307214D01*
X182098745Y-65498020D01*
X182503551Y-65612044D01*
X182922824Y-65644902D01*
X183340451Y-65595334D01*
X183740383Y-65465243D01*
X184036038Y-65307214D01*
X184192048Y-64991653D01*
X182880000Y-63679605D01*
X181567952Y-64991653D01*
X179730000Y-64991653D01*
X179730000Y-63542824D01*
X180735098Y-63542824D01*
X180784666Y-63960451D01*
X180914757Y-64360383D01*
X181072786Y-64656038D01*
X181388347Y-64812048D01*
X182700395Y-63500000D01*
X183059605Y-63500000D01*
X184371653Y-64812048D01*
X184687214Y-64656038D01*
X184878020Y-64281255D01*
X184992044Y-63876449D01*
X185024902Y-63457176D01*
X184975334Y-63039549D01*
X184845243Y-62639617D01*
X184687214Y-62343962D01*
X184371653Y-62187952D01*
X183059605Y-63500000D01*
X182700395Y-63500000D01*
X181388347Y-62187952D01*
X181072786Y-62343962D01*
X180881980Y-62718745D01*
X180767956Y-63123551D01*
X180735098Y-63542824D01*
X179730000Y-63542824D01*
X179730000Y-62008347D01*
X181567952Y-62008347D01*
X182880000Y-63320395D01*
X184192048Y-62008347D01*
X184036038Y-61692786D01*
X183661255Y-61501980D01*
X183256449Y-61387956D01*
X182837176Y-61355098D01*
X182419549Y-61404666D01*
X182019617Y-61534757D01*
X181723962Y-61692786D01*
X181567952Y-62008347D01*
X179730000Y-62008347D01*
X179730000Y-59920000D01*
X180741928Y-59920000D01*
X180754188Y-60044482D01*
X180790498Y-60164180D01*
X180849463Y-60274494D01*
X180928815Y-60371185D01*
X181025506Y-60450537D01*
X181135820Y-60509502D01*
X181255518Y-60545812D01*
X181380000Y-60558072D01*
X182594250Y-60555000D01*
X182753000Y-60396250D01*
X182753000Y-58547000D01*
X183007000Y-58547000D01*
X183007000Y-60396250D01*
X183165750Y-60555000D01*
X184380000Y-60558072D01*
X184504482Y-60545812D01*
X184624180Y-60509502D01*
X184734494Y-60450537D01*
X184831185Y-60371185D01*
X184910537Y-60274494D01*
X184969502Y-60164180D01*
X185005812Y-60044482D01*
X185018072Y-59920000D01*
X185015000Y-58705750D01*
X184856250Y-58547000D01*
X183007000Y-58547000D01*
X182753000Y-58547000D01*
X180903750Y-58547000D01*
X180745000Y-58705750D01*
X180741928Y-59920000D01*
X179730000Y-59920000D01*
X179730000Y-56920000D01*
X180741928Y-56920000D01*
X180745000Y-58134250D01*
X180903750Y-58293000D01*
X182753000Y-58293000D01*
X182753000Y-56443750D01*
X183007000Y-56443750D01*
X183007000Y-58293000D01*
X184856250Y-58293000D01*
X185015000Y-58134250D01*
X185018072Y-56920000D01*
X185005812Y-56795518D01*
X184969502Y-56675820D01*
X184910537Y-56565506D01*
X184831185Y-56468815D01*
X184734494Y-56389463D01*
X184624180Y-56330498D01*
X184504482Y-56294188D01*
X184380000Y-56281928D01*
X183165750Y-56285000D01*
X183007000Y-56443750D01*
X182753000Y-56443750D01*
X182594250Y-56285000D01*
X181380000Y-56281928D01*
X181255518Y-56294188D01*
X181135820Y-56330498D01*
X181025506Y-56389463D01*
X180928815Y-56468815D01*
X180849463Y-56565506D01*
X180790498Y-56675820D01*
X180754188Y-56795518D01*
X180741928Y-56920000D01*
X179730000Y-56920000D01*
X179730000Y-56007000D01*
X187153620Y-56007000D01*
X189840001Y-58693382D01*
G37*
G04 #@! TD.AperFunction*
G04 #@! TD*
M02*
